<?xml version="1.0" encoding="UTF-8" standalone="no"?>
<!DOCTYPE svg PUBLIC "-//W3C//DTD SVG 1.1//EN" "http://www.w3.org/Graphics/SVG/1.1/DTD/svg11.dtd">
<svg width="100%" height="100%" viewBox="0 0 500 500" version="1.1" xmlns="http://www.w3.org/2000/svg" xmlns:xlink="http://www.w3.org/1999/xlink" xml:space="preserve" xmlns:serif="http://www.serif.com/" style="fill-rule:evenodd;clip-rule:evenodd;stroke-linecap:round;stroke-linejoin:round;stroke-miterlimit:1.5;">
    <g transform="matrix(1,0,0,1,-547.246,-1081.77)">
        <g id="Artboard1" transform="matrix(1,0,0,1,547.246,1081.77)">
            <rect x="0" y="0" width="499.999" height="500" style="fill:none;"/>
            <g transform="matrix(1,0,0,1,-11.453,-65.4534)">
                <path d="M85.026,453C68.756,424.533 59.453,391.571 59.453,356.453C59.453,248.83 146.83,161.453 254.453,161.453C362.076,161.453 449.453,248.83 449.453,356.453C449.453,391.571 440.15,424.533 423.88,453L85.026,453Z" style="fill:rgb(220,245,226);"/>
            </g>
            <g id="Background-Complete" serif:id="Background Complete">
            </g>
            <g transform="matrix(1.34007,0,0,1.34007,281.046,246.112)">
                <path d="M0,103.336C-15.448,92.543 -18.953,72.51 -18.342,54.502C-18.24,51.496 -18.57,48.327 -17.141,45.69C-15.71,43.053 -12.374,41.25 -9.683,42.517C-7.45,43.567 -6.478,46.164 -5.229,48.312C-3.567,51.169 -1.092,53.533 1.821,55.045C3.735,56.038 6.104,56.646 7.993,55.604C10.586,54.173 10.892,50.591 10.873,47.601C10.838,42.028 10.804,36.456 10.769,30.885C10.75,27.896 10.741,24.843 11.671,22.005C12.601,19.168 14.655,16.532 17.499,15.735C20.344,14.939 23.86,16.579 24.461,19.505C24.711,20.723 24.463,21.987 24.546,23.228C24.629,24.469 25.207,25.842 26.386,26.188C27.579,26.538 28.775,25.69 29.669,24.815C32.755,21.797 34.849,17.908 36.806,14.041C38.763,10.174 40.662,6.215 43.462,2.922C46.262,-0.37 50.135,-2.979 54.416,-3.222C58.698,-3.464 63.26,-0.821 64.342,3.382C65.427,7.597 62.968,11.873 60.292,15.285C56.322,20.347 51.626,24.823 46.397,28.529C45.455,29.198 44.434,29.921 44.073,31.028C43.424,33.022 45.313,35.001 47.28,35.656C49.509,36.398 51.927,36.167 54.258,36.441C56.589,36.716 59.114,37.744 59.996,39.947C61.221,43.003 58.665,46.206 56.15,48.304C51.115,52.505 45.365,55.823 39.231,58.07C37.032,58.875 34.718,59.581 32.944,61.126C31.171,62.672 30.101,65.358 31.172,67.464C32.244,69.572 34.994,70.246 37.298,69.818C39.601,69.392 41.663,68.141 43.858,67.313C47.967,65.762 53.272,66.045 55.904,69.596C57.634,71.93 57.786,75.18 56.911,77.962C56.037,80.744 54.263,83.141 52.379,85.351C45.794,93.076 37.364,99.296 27.833,102.601C18.303,105.905 9.472,106.8 0,103.336" style="fill:rgb(146,153,244);fill-rule:nonzero;"/>
            </g>
            <g transform="matrix(-0.804802,0,0,0.804802,186.59,303.059)">
                <path d="M0,103.336C-15.448,92.543 -18.953,72.51 -18.342,54.502C-18.24,51.496 -18.57,48.327 -17.141,45.69C-15.71,43.053 -12.374,41.25 -9.683,42.517C-7.45,43.567 -6.478,46.164 -5.229,48.312C-3.567,51.169 -1.092,53.533 1.821,55.045C3.735,56.038 6.104,56.646 7.993,55.604C10.586,54.173 10.892,50.591 10.873,47.601C10.838,42.028 10.804,36.456 10.769,30.885C10.75,27.896 10.741,24.843 11.671,22.005C12.601,19.168 14.655,16.532 17.499,15.735C20.344,14.939 23.86,16.579 24.461,19.505C24.711,20.723 24.463,21.987 24.546,23.228C24.629,24.469 25.207,25.842 26.386,26.188C27.579,26.538 28.775,25.69 29.669,24.815C32.755,21.797 34.849,17.908 36.806,14.041C38.763,10.174 40.662,6.215 43.462,2.922C46.262,-0.37 50.135,-2.979 54.416,-3.222C58.698,-3.464 63.26,-0.821 64.342,3.382C65.427,7.597 62.968,11.873 60.292,15.285C56.322,20.347 51.626,24.823 46.397,28.529C45.455,29.198 44.434,29.921 44.073,31.028C43.424,33.022 45.313,35.001 47.28,35.656C49.509,36.398 51.927,36.167 54.258,36.441C56.589,36.716 59.114,37.744 59.996,39.947C61.221,43.003 58.665,46.206 56.15,48.304C51.115,52.505 45.365,55.823 39.231,58.07C37.032,58.875 34.718,59.581 32.944,61.126C31.171,62.672 30.101,65.358 31.172,67.464C32.244,69.572 34.994,70.246 37.298,69.818C39.601,69.392 41.663,68.141 43.858,67.313C47.967,65.762 53.272,66.045 55.904,69.596C57.634,71.93 57.786,75.18 56.911,77.962C56.037,80.744 54.263,83.141 52.379,85.351C45.794,93.076 37.364,99.296 27.833,102.601C18.303,105.905 9.472,106.8 0,103.336" style="fill:rgb(211,213,251);fill-rule:nonzero;"/>
            </g>
            <g id="Floor">
            </g>
            <g id="Plant">
            </g>
            <g id="Device">
            </g>
            <g id="Character">
            </g>
            <g transform="matrix(0.65464,0,0,0.65464,-772.37,-622.278)">
                <path d="M1462.5,1296C1462.5,1296 1399.95,1397.02 1413,1429.5C1426.05,1461.98 1464,1444.5 1464,1444.5L1462.5,1296Z" style="fill:rgb(153,153,246);"/>
            </g>
            <g transform="matrix(0.65464,0,0,0.65464,-772.37,-622.278)">
                <path d="M1572,1218L1515.07,1220.71C1519.55,1242.49 1521.19,1255.04 1510.36,1263.8C1517.62,1265.97 1501.08,1280.49 1512,1329C1514.96,1342.18 1571.6,1267.83 1585.5,1263.4C1572.23,1261.94 1571.52,1237.41 1572,1218Z" style="fill:rgb(239,181,137);"/>
            </g>
            <g transform="matrix(0.573643,0,0,0.573643,-645.647,-520.085)">
                <path d="M1532.22,1151.98C1558.8,1151.98 1581.06,1175.33 1581.06,1203.98C1581.06,1217.13 1577.35,1224.81 1569.89,1234.67C1561.1,1246.27 1545.99,1259.27 1526.89,1260.67C1523.34,1260.93 1506.13,1244.24 1501.19,1230.88C1493.35,1209.67 1491.02,1203.7 1490.73,1192.53C1489.98,1163.89 1505.64,1151.98 1532.22,1151.98Z" style="fill:rgb(255,191,157);"/>
            </g>
            <g transform="matrix(0.65464,0,0,0.65464,-628.788,-612.199)">
                <path d="M1297.35,1271L1298,1293.5C1298,1293.5 1313.04,1278.25 1315.5,1276.5C1317.96,1274.75 1363.5,1245 1363.5,1245L1365,1249.5L1292.25,1327.5L1281,1279.5L1297.35,1271Z" style="fill:rgb(152,152,246);"/>
            </g>
            <g transform="matrix(0.573643,0,0,0.573643,-646.761,-520.672)">
                <path d="M1585.91,1185.91L1580,1197C1580,1197 1578.47,1192.86 1572.88,1185.91C1572.58,1185.54 1574.17,1190.44 1569.68,1188.48C1569.58,1188.43 1564.8,1182.63 1564,1180C1561.18,1170.76 1563.57,1173.79 1561,1170.56L1547,1177.56C1547,1177.56 1547.22,1176.69 1548,1171.56C1548.78,1166.42 1527.16,1171.63 1511.83,1180.69C1511.83,1180.69 1513.59,1174.94 1516,1174C1519.45,1172.66 1496.48,1181.42 1493.98,1180.91C1492.53,1191.48 1493.27,1197.72 1493.98,1204.01C1493.98,1204.01 1483.91,1186.26 1484.83,1178.8C1485.74,1171.33 1489,1169 1489,1169C1490.56,1138.68 1584.72,1138.29 1585.91,1162C1586.26,1168.87 1585.91,1185.91 1585.91,1185.91Z" style="fill:rgb(69,24,0);"/>
            </g>
            <g transform="matrix(0.597528,0,0,0.563375,-681.992,-509.874)">
                <path d="M1515.4,1178.39C1515.4,1178.39 1472.16,1183.88 1471.88,1179.28C1474.25,1175.48 1476.25,1171.8 1479,1171C1479,1171 1481.22,1137.47 1491,1126C1500.78,1114.53 1515.31,1105.11 1534.32,1104.28C1553.34,1103.45 1569.88,1114.24 1575.32,1123.28C1580.77,1132.33 1581.24,1139.9 1584.3,1150.78C1584.3,1150.78 1584.21,1161.88 1583.63,1164.27C1583.06,1166.66 1586.04,1178.33 1584.85,1179.66C1583.65,1180.99 1581.85,1180.66 1581.85,1180.66C1581.85,1180.66 1579.34,1173.86 1573.97,1174.59C1568.61,1175.33 1533.7,1177.98 1515.4,1178.39Z" style="fill:rgb(255,135,45);"/>
                <clipPath id="_clip1">
                    <path d="M1515.4,1178.39C1515.4,1178.39 1472.16,1183.88 1471.88,1179.28C1474.25,1175.48 1476.25,1171.8 1479,1171C1479,1171 1481.22,1137.47 1491,1126C1500.78,1114.53 1515.31,1105.11 1534.32,1104.28C1553.34,1103.45 1569.88,1114.24 1575.32,1123.28C1580.77,1132.33 1581.24,1139.9 1584.3,1150.78C1584.3,1150.78 1584.21,1161.88 1583.63,1164.27C1583.06,1166.66 1586.04,1178.33 1584.85,1179.66C1583.65,1180.99 1581.85,1180.66 1581.85,1180.66C1581.85,1180.66 1579.34,1173.86 1573.97,1174.59C1568.61,1175.33 1533.7,1177.98 1515.4,1178.39Z"/>
                </clipPath>
                <g clip-path="url(#_clip1)">
                    <g transform="matrix(0.960027,0,0,1.01823,267.122,1.9023)">
                        <path d="M1314,1080C1314,1080 1298.5,1095.09 1298,1103C1298,1103 1300.19,1088.73 1308,1083C1315.81,1077.27 1314,1080 1314,1080Z" style="fill:rgb(255,115,4);"/>
                    </g>
                    <g transform="matrix(0.960027,0,0,1.01823,289.203,1.5454)">
                        <path d="M1314,1080C1314,1080 1298.5,1095.09 1298,1103C1298,1103 1300.19,1088.73 1308,1083C1315.81,1077.27 1314,1080 1314,1080Z" style="fill:rgb(255,115,4);"/>
                    </g>
                </g>
            </g>
            <g transform="matrix(0.65464,0,0,0.65464,-772.37,-622.278)">
                <path d="M1513,1263C1509.48,1295.06 1508.33,1319.06 1513.5,1330.61L1584,1261.5L1639.5,1291.5C1652.69,1299.59 1646.6,1334.36 1636.5,1410C1626.41,1485.55 1630.47,1543.26 1630.47,1543.26L1459.38,1543.26L1461,1449C1461,1449 1455.43,1319.53 1457,1299C1458.57,1278.47 1513,1263 1513,1263Z" style="fill:rgb(255,177,75);"/>
                <clipPath id="_clip2">
                    <path d="M1513,1263C1509.48,1295.06 1508.33,1319.06 1513.5,1330.61L1584,1261.5L1639.5,1291.5C1652.69,1299.59 1646.6,1334.36 1636.5,1410C1626.41,1485.55 1630.47,1543.26 1630.47,1543.26L1459.38,1543.26L1461,1449C1461,1449 1455.43,1319.53 1457,1299C1458.57,1278.47 1513,1263 1513,1263Z"/>
                </clipPath>
                <g clip-path="url(#_clip2)">
                    <g transform="matrix(1,0,0,1,219.329,15.3962)">
                        <path d="M1415.01,1404C1415.01,1404 1301.8,1411.92 1290,1410C1278.2,1408.08 1230,1396.44 1230,1396.44L1234.35,1441.92C1234.35,1441.92 1277.35,1441.83 1285.5,1444.09C1300.12,1448.15 1421.13,1442.35 1413.47,1438L1415.01,1404Z" style="fill:white;"/>
                    </g>
                    <g transform="matrix(1,0,0,1,219.329,73.9534)">
                        <path d="M1415.01,1404C1415.01,1404 1301.8,1411.92 1290,1410C1278.2,1408.08 1227.83,1406.67 1227.83,1406.67L1234.35,1441.92C1234.35,1441.92 1277.35,1441.83 1285.5,1444.09C1300.12,1448.15 1421.13,1442.35 1413.47,1438L1415.01,1404Z" style="fill:white;"/>
                    </g>
                </g>
            </g>
            <g transform="matrix(1,0,0,1,-544.533,-1081.77)">
                <path d="M834.678,1314.77C834.678,1314.77 841.311,1305.93 844.533,1306.77C844.533,1306.77 847.901,1306.43 850.303,1312.77C852.705,1319.12 852.533,1319.27 852.533,1319.27L834.678,1314.77Z" style="fill:rgb(246,145,0);"/>
            </g>
            <g transform="matrix(0.65464,0,0,0.755065,-772.37,-756.891)">
                <path d="M1512,1340.44C1512,1340.44 1503.1,1362.08 1506,1371.03C1508.9,1379.97 1508.15,1386 1508.15,1386C1508.15,1386 1512.97,1427.89 1509.58,1452C1506.19,1476.11 1508.15,1498.29 1508.15,1498.29L1506.74,1514.57C1506.74,1514.57 1499.86,1520.89 1501.83,1500C1503.79,1479.11 1506.03,1456.62 1506,1446C1505.98,1435.38 1506.02,1438.64 1505.96,1429.58C1505.91,1420.52 1506.02,1377.96 1501.97,1368C1497.92,1358.04 1507.46,1347.4 1512,1340.44Z" style="fill:rgb(254,154,0);"/>
            </g>
            <g transform="matrix(0.65464,0,0,0.65464,-772.37,-622.278)">
                <path d="M1460.81,1445.76C1460.81,1445.76 1536.97,1413.26 1545,1408.5C1550.94,1404.98 1545.52,1386.46 1541.87,1377.05C1540.59,1373.75 1538.81,1371.56 1538.81,1371.56L1453.5,1393.5L1460.81,1445.76Z" style="fill:rgb(153,153,246);"/>
            </g>
            <g transform="matrix(1,0,0,1,-544.533,-1081.77)">
                <path d="M733.033,1382.27C733.033,1382.27 733.805,1384.87 737.033,1387.27C740.26,1389.67 757.033,1393.62 757.033,1393.62L765.533,1389.77L733.033,1382.27Z" style="fill:rgb(135,135,245);"/>
            </g>
            <g transform="matrix(0.65464,0,0,0.65464,-772.37,-622.278)">
                <path d="M1470.97,1382L1427,1376L1411,1388L1408,1407C1408,1407 1407.55,1414.37 1411,1415C1414.45,1415.63 1414,1409 1414,1409C1418.38,1409.4 1422.14,1409.17 1425,1408C1425,1408 1440.56,1414.29 1445.63,1413.12C1450.7,1411.94 1455.24,1410.65 1457.85,1411.12C1460.47,1411.59 1470.2,1411.53 1470.2,1411.53L1470.97,1382Z" style="fill:rgb(255,191,157);"/>
            </g>
            <g transform="matrix(0.65464,0,0,0.65464,-772.37,-622.278)">
                <path d="M1623.59,1305.72C1645.37,1285.02 1665.58,1323.21 1647.91,1368L1601.44,1430.22C1578.85,1441.76 1566.15,1431.46 1547.64,1430.22L1468.01,1411.53C1461.67,1401.51 1460.6,1388.35 1471,1381L1575,1375.5C1585.19,1356.39 1598.62,1340.96 1623.59,1305.72Z" style="fill:rgb(172,170,248);"/>
            </g>
            <g transform="matrix(0.65464,0,0,0.65464,-771.661,-623.725)">
                <path d="M1540.86,1379.46C1561.91,1379.58 1573.92,1377.71 1573.92,1377.71C1573.69,1382.77 1576.36,1386.55 1580,1391C1580,1391 1578.36,1405.24 1583.11,1403.49C1583.11,1403.49 1599.21,1383.95 1598.39,1379.81C1598.16,1378.64 1598.03,1375.92 1600.68,1372.93C1602.86,1370.48 1604.14,1366.48 1602.97,1364.53C1599.93,1359.48 1590.61,1352.76 1589.89,1351.8C1588.55,1350 1561.14,1356.13 1561.14,1356.13L1537,1374L1538.4,1376.16L1540.86,1379.46Z" style="fill:rgb(255,191,157);"/>
            </g>
            <g transform="matrix(0.65464,0,0,0.65464,-628.788,-612.199)">
                <path d="M1297.13,1240.68L1287.41,1248.32C1284.32,1254.65 1283.74,1266.86 1286.64,1287.27C1286.64,1287.27 1288.75,1274.23 1297.5,1273C1297.5,1273 1293.3,1247.52 1297.13,1240.68Z" style="fill:rgb(152,152,246);"/>
            </g>
            <g transform="matrix(0.573643,0,0,0.573643,-646.761,-520.672)">
                <path d="M1579.5,1192.5C1579.5,1192.5 1584.72,1180.38 1590,1189C1595.28,1197.62 1590.21,1205.47 1588,1210C1585.79,1214.53 1580,1217 1580,1217L1579.5,1192.5Z" style="fill:rgb(241,192,155);"/>
            </g>
            <g transform="matrix(0.573643,0,0,0.573643,-522.379,-508.802)">
                <path d="M1264,1146C1264,1146 1308.95,1150.05 1333,1146C1357.05,1141.95 1360,1143 1360,1143C1360,1143 1329.35,1150.65 1304,1149.45C1278.65,1148.26 1262,1148 1262,1148L1264,1146Z" style="fill:rgb(255,115,5);"/>
            </g>
            <g transform="matrix(0.65464,0,0,0.65464,-628.788,-612.199)">
                <path d="M1304,1273L1298.28,1293.5L1315.5,1282L1304,1273Z" style="fill:rgb(152,152,246);"/>
            </g>
            <g transform="matrix(0.65464,0,0,0.65464,-628.788,-612.199)">
                <path d="M1304,1273C1304,1273 1305.83,1283.3 1305.5,1286.74C1305.17,1290.18 1314.24,1295.67 1314.24,1295.67L1316.43,1292.62C1316.43,1292.62 1305.03,1272.99 1304,1273Z" style="fill:rgb(123,123,244);"/>
            </g>
            <g transform="matrix(0.65464,0,0,0.65464,-628.788,-612.199)">
                <path d="M1304,1273L1353.86,1235.33L1353.86,1229.22L1364,1245L1315.19,1298.94C1315.19,1298.94 1309.79,1278.85 1304,1273Z" style="fill:rgb(152,152,246);"/>
            </g>
            <g transform="matrix(0.65464,0,0,0.65464,-628.788,-612.199)">
                <path d="M1297,1273C1297,1273 1294.36,1274.57 1292.5,1277.12C1290.64,1279.68 1290.77,1281 1290.77,1281L1291,1276.27C1291,1276.27 1294.83,1273.35 1297,1273Z" style="fill:rgb(123,123,244);"/>
            </g>
            <g transform="matrix(1,0,0,1,7.4675,-68.6996)">
                <path d="M54,456L414,456" style="fill:none;stroke:black;stroke-width:1px;"/>
            </g>
        </g>
        <g id="Layer-1" serif:id="Layer 1">
        </g>
        <g id="Слой-1" serif:id="Слой 1">
        </g>
        <g id="Padlock">
        </g>
        <g id="Speech-Bubble" serif:id="Speech Bubble">
        </g>
    </g>
</svg>
