<?xml version="1.0" encoding="UTF-8" standalone="no"?>
<!DOCTYPE svg PUBLIC "-//W3C//DTD SVG 1.1//EN" "http://www.w3.org/Graphics/SVG/1.1/DTD/svg11.dtd">
<svg width="100%" height="100%" viewBox="0 0 500 500" version="1.1" xmlns="http://www.w3.org/2000/svg" xmlns:xlink="http://www.w3.org/1999/xlink" xml:space="preserve" xmlns:serif="http://www.serif.com/" style="fill-rule:evenodd;clip-rule:evenodd;stroke-linecap:round;stroke-linejoin:round;stroke-miterlimit:1.5;">
    <g transform="matrix(1,0,0,1,-1067.43,-1606.24)">
        <g id="Artboard1" transform="matrix(1,0,0,1,1067.43,1606.24)">
            <rect x="0" y="0" width="499.999" height="500" style="fill:none;"/>
            <g transform="matrix(1,0,0,1,0.547041,-65.4534)">
                <path d="M85.026,453C68.756,424.533 59.453,391.571 59.453,356.453C59.453,248.83 146.83,161.453 254.453,161.453C362.076,161.453 449.453,248.83 449.453,356.453C449.453,391.571 440.15,424.533 423.88,453L85.026,453Z" style="fill:rgb(220,245,226);"/>
            </g>
            <g transform="matrix(1.34007,0,0,1.34007,295.797,244.338)">
                <path d="M0,103.336C-15.448,92.543 -18.953,72.51 -18.342,54.502C-18.24,51.496 -18.57,48.327 -17.141,45.69C-15.71,43.053 -12.374,41.25 -9.683,42.517C-7.45,43.567 -6.478,46.164 -5.229,48.312C-3.567,51.169 -1.092,53.533 1.821,55.045C3.735,56.038 6.104,56.646 7.993,55.604C10.586,54.173 10.892,50.591 10.873,47.601C10.838,42.028 10.804,36.456 10.769,30.885C10.75,27.896 10.741,24.843 11.671,22.005C12.601,19.168 14.655,16.532 17.499,15.735C20.344,14.939 23.86,16.579 24.461,19.505C24.711,20.723 24.463,21.987 24.546,23.228C24.629,24.469 25.207,25.842 26.386,26.188C27.579,26.538 28.775,25.69 29.669,24.815C32.755,21.797 34.849,17.908 36.806,14.041C38.763,10.174 40.662,6.215 43.462,2.922C46.262,-0.37 50.135,-2.979 54.416,-3.222C58.698,-3.464 63.26,-0.821 64.342,3.382C65.427,7.597 62.968,11.873 60.292,15.285C56.322,20.347 51.626,24.823 46.397,28.529C45.455,29.198 44.434,29.921 44.073,31.028C43.424,33.022 45.313,35.001 47.28,35.656C49.509,36.398 51.927,36.167 54.258,36.441C56.589,36.716 59.114,37.744 59.996,39.947C61.221,43.003 58.665,46.206 56.15,48.304C51.115,52.505 45.365,55.823 39.231,58.07C37.032,58.875 34.718,59.581 32.944,61.126C31.171,62.672 30.101,65.358 31.172,67.464C32.244,69.572 34.994,70.246 37.298,69.818C39.601,69.392 41.663,68.141 43.858,67.313C47.967,65.762 53.272,66.045 55.904,69.596C57.634,71.93 57.786,75.18 56.911,77.962C56.037,80.744 54.263,83.141 52.379,85.351C45.794,93.076 37.364,99.296 27.833,102.601C18.303,105.905 9.472,106.8 0,103.336" style="fill:rgb(146,153,244);fill-rule:nonzero;"/>
            </g>
            <g id="Background-Complete" serif:id="Background Complete">
            </g>
            <g id="Floor">
            </g>
            <g id="Plant">
            </g>
            <g id="Device">
            </g>
            <g id="Character">
            </g>
            <g id="Слой-1" serif:id="Слой 1">
            </g>
            <g id="Слой-11" serif:id="Слой 1">
            </g>
            <g transform="matrix(1,0,0,1,23.5298,-68.6996)">
                <path d="M54,456L414,456" style="fill:none;stroke:black;stroke-width:1px;"/>
            </g>
            <g id="Слой-12" serif:id="Слой 1">
            </g>
            <g transform="matrix(0.55199,0,0,0.55199,327.144,147.141)">
                <path d="M0,433.028L-285.103,432.67C-293.317,432.66 -299.967,425.993 -299.958,417.778L-299.48,14.856C-299.471,6.641 -292.803,-0.011 -284.588,0L0.515,0.358C8.729,0.368 15.379,7.035 15.369,15.249L14.893,418.172C14.883,426.386 8.215,433.039 0,433.028" style="fill:rgb(74,83,174);fill-rule:nonzero;"/>
            </g>
            <g transform="matrix(0.55199,0,0,0.55199,321.574,147.141)">
                <path d="M0,433.028L-285.103,432.67C-293.316,432.66 -299.967,425.993 -299.958,417.778L-299.48,14.856C-299.471,6.641 -292.803,-0.011 -284.588,0L0.515,0.358C8.729,0.368 15.38,7.035 15.37,15.249L14.893,418.172C14.883,426.386 8.215,433.039 0,433.028" style="fill:rgb(130,136,201);fill-rule:nonzero;"/>
            </g>
            <g transform="matrix(0.55199,0,0,0.55199,323.448,146.941)">
                <path d="M0,433.772C-1.808,433.772 -3.5,433.767 -4.513,433.751L-4.481,431.751C-1.485,431.798 7.566,431.751 7.657,431.751L7.675,431.751C11.325,431.751 14.754,430.295 17.337,427.649C19.931,424.992 21.361,421.454 21.366,417.688L21.844,16.458C21.853,8.693 15.721,2.369 8.174,2.359L-278.614,2L-278.611,0L8.176,0.359C16.825,0.37 23.854,7.593 23.844,16.46L23.366,417.69C23.361,421.981 21.729,426.013 18.768,429.046C15.806,432.081 11.869,433.751 7.682,433.751L7.661,433.751C7.604,433.751 3.579,433.772 0,433.772" style="fill:rgb(109,117,193);fill-rule:nonzero;"/>
            </g>
            <g transform="matrix(0.55199,0,0,0.55199,24.6441,129.073)">
                <g opacity="0.36">
                    <g transform="matrix(-0.999999,-0.00125665,-0.00125665,0.999999,270.555,68.3573)">
                        <rect x="-266.372" y="0.167" width="266.609" height="377.107" style="fill:rgb(69,39,42);"/>
                    </g>
                </g>
            </g>
            <g transform="matrix(-0.55199,-0.000693657,-0.000693657,0.55199,169.708,162.39)">
                <rect x="-266.372" y="0.167" width="266.609" height="377.107" style="fill:white;"/>
            </g>
            <g transform="matrix(0.55199,0,0,0.55199,243.954,152.508)">
                <path d="M0,-14.097C-5.201,-12.958 -9.744,-17.407 -8.595,-22.529C-8.016,-25.113 -5.902,-27.201 -3.28,-27.777C1.924,-28.922 6.468,-24.446 5.312,-19.325C4.73,-16.747 2.617,-14.67 0,-14.097M23.148,-16.746L23.149,-16.994C23.169,-32.132 9.227,-44.083 -6.738,-40.963C-18.279,-38.708 -26.425,-28.456 -26.44,-16.867L-26.44,-16.808L-58.967,-16.849C-63.031,-16.854 -66.33,-13.613 -66.336,-9.609L-66.377,22.579C-66.382,26.582 -63.092,29.832 -59.027,29.837L55.615,29.98C59.68,29.986 62.979,26.744 62.984,22.74L63.025,-9.448C63.031,-13.451 59.74,-16.701 55.676,-16.706L23.148,-16.746Z" style="fill:rgb(215,217,238);fill-rule:nonzero;"/>
            </g>
            <g transform="matrix(1.18237,0,0,1.18237,-1338.46,-1964.39)">
                <text x="1321.96px" y="1828.37px" style="font-family:'LucidaGrande-Bold', 'Lucida Grande', sans-serif;font-weight:600;font-size:19.252px;fill:rgb(61,68,146);">ISO</text>
            </g>
            <g transform="matrix(1.18237,0,0,1.18237,-1374.69,-1943.1)">
                <text x="1321.96px" y="1828.37px" style="font-family:'LucidaGrande-Bold', 'Lucida Grande', sans-serif;font-weight:600;font-size:19.252px;fill:rgb(61,68,146);">CERTIFIED</text>
            </g>
            <g transform="matrix(1.07549,0,0,1.18237,-1203.67,-1968.91)">
                <rect x="1313.43" y="1864.24" width="88.5" height="6" style="fill:rgb(208,211,235);"/>
            </g>
            <g transform="matrix(1.07549,0,0,1.18237,-1203.67,-1939.97)">
                <rect x="1313.43" y="1864.24" width="88.5" height="6" style="fill:rgb(208,211,235);"/>
            </g>
            <g transform="matrix(1.07549,0,0,1.18237,-1203.67,-1911.03)">
                <rect x="1313.43" y="1864.24" width="88.5" height="6" style="fill:rgb(208,211,235);"/>
            </g>
            <g transform="matrix(1.07549,0,0,1.18237,-1203.67,-1882.63)">
                <rect x="1313.43" y="1864.24" width="88.5" height="6" style="fill:rgb(208,211,235);"/>
            </g>
            <g transform="matrix(1.18237,0,0,1.18237,-1350.54,-1967.11)">
                <rect x="1295.92" y="1857.24" width="18" height="18" style="fill:rgb(174,179,220);"/>
            </g>
            <g transform="matrix(1.18237,0,0,1.18237,-1350.54,-1938.17)">
                <rect x="1295.92" y="1857.24" width="18" height="18" style="fill:rgb(174,179,220);"/>
            </g>
            <g transform="matrix(1.18237,0,0,1.18237,-1350.54,-1909.23)">
                <rect x="1295.92" y="1857.24" width="18" height="18" style="fill:rgb(174,179,220);"/>
            </g>
            <g transform="matrix(1.18237,0,0,1.18237,-1350.54,-1880.82)">
                <rect x="1295.92" y="1857.24" width="18" height="18" style="fill:rgb(174,179,220);"/>
            </g>
            <g transform="matrix(1.07549,0,0,1.18237,-1203.67,-1882.63)">
                <rect x="1313.43" y="1864.24" width="88.5" height="6" style="fill:rgb(208,211,235);"/>
            </g>
            <g transform="matrix(1.18237,0,0,1.18237,-1350.54,-1880.82)">
                <rect x="1295.92" y="1857.24" width="18" height="18" style="fill:rgb(174,179,220);"/>
            </g>
            <g transform="matrix(0.55199,0,0,0.55199,190.612,231.738)">
                <path d="M0,27.913L-13.971,10.266L-9.547,6.764L-0.058,18.751L14.408,0L18.875,3.446L0,27.913Z" style="fill:white;fill-rule:nonzero;"/>
            </g>
            <g id="OBJECTS" transform="matrix(0.780336,0,0,0.780336,318,172.032)">
                <g transform="matrix(1.18237,0,0,1.18237,-37.3308,-5.02185)">
                    <path d="M0,29.192L10.256,27.524L16.137,36.09L31.563,0.001L15.427,-6.898L0,29.192Z" style="fill:rgb(255,219,114);fill-rule:nonzero;"/>
                </g>
                <g transform="matrix(1.18237,0,0,1.18237,-29.9509,-4.83811)">
                    <path d="M0,14.434C0.238,14.86 0.512,15.254 0.877,15.573C2.654,17.125 5.842,16.615 8.129,17.592C10.417,18.57 12.25,21.227 14.6,21.439C15.131,21.487 15.653,21.4 16.171,21.251L25.322,-0.155L9.185,-7.053L0,14.434Z" style="fill:rgb(242,173,99);fill-rule:nonzero;"/>
                </g>
                <g transform="matrix(1.18237,0,0,1.18237,5.1398,-13.1774)">
                    <path d="M0,42.987L5.881,34.422L16.137,36.09L0.711,0L-15.426,6.898L0,42.987Z" style="fill:rgb(255,219,114);fill-rule:nonzero;"/>
                </g>
                <g transform="matrix(1.18237,0,0,1.18237,16.84,-4.83811)">
                    <path d="M0,14.434C-0.238,14.86 -0.512,15.254 -0.876,15.573C-2.654,17.125 -5.842,16.615 -8.129,17.592C-10.417,18.57 -12.25,21.227 -14.6,21.439C-15.131,21.487 -15.653,21.4 -16.171,21.251L-25.322,-0.155L-9.185,-7.053L0,14.434Z" style="fill:rgb(242,173,99);fill-rule:nonzero;"/>
                </g>
                <g transform="matrix(1.18237,0,0,1.18237,29.4518,-15.9605)">
                    <path d="M0,-0.001C0,3.017 -3.045,5.516 -3.929,8.238C-4.845,11.059 -3.883,14.864 -5.592,17.213C-7.318,19.584 -11.246,19.836 -13.617,21.561C-15.966,23.27 -17.41,26.938 -20.231,27.854C-22.953,28.738 -26.265,26.649 -29.282,26.649C-32.299,26.649 -35.61,28.738 -38.333,27.854C-41.154,26.938 -42.598,23.27 -44.946,21.561C-47.318,19.836 -51.246,19.584 -52.972,17.212C-54.681,14.863 -53.718,11.059 -54.634,8.237C-55.518,5.516 -58.563,3.017 -58.563,-0.001C-58.563,-3.018 -55.518,-5.517 -54.634,-8.239C-53.718,-11.061 -54.68,-14.865 -52.971,-17.214C-51.245,-19.585 -47.317,-19.837 -44.946,-21.563C-42.597,-23.272 -41.153,-26.939 -38.332,-27.855C-35.61,-28.739 -32.298,-26.65 -29.282,-26.65C-26.265,-26.65 -22.953,-28.739 -20.23,-27.855C-17.409,-26.939 -15.965,-23.272 -13.617,-21.563C-11.245,-19.837 -7.317,-19.585 -5.591,-17.213C-3.882,-14.865 -4.845,-11.06 -3.929,-8.238C-3.045,-5.517 0,-3.018 0,-0.001" style="fill:rgb(255,190,105);fill-rule:nonzero;"/>
                </g>
                <g transform="matrix(0,-1.18237,-1.18237,0,-6.70972,-39.4768)">
                    <path d="M-20.681,-20.68C-32.102,-20.68 -41.361,-11.421 -41.361,0C-41.361,11.422 -32.102,20.681 -20.681,20.681C-9.259,20.681 0,11.422 0,0C0,-11.421 -9.259,-20.68 -20.681,-20.68" style="fill:rgb(242,173,99);fill-rule:nonzero;"/>
                </g>
                <g transform="matrix(0,-1.18237,-1.18237,0,-5.17062,-40.4131)">
                    <path d="M-20.68,-20.681C-32.102,-20.681 -41.361,-11.422 -41.361,0C-41.361,11.421 -32.102,20.68 -20.68,20.68C-9.259,20.68 0,11.421 0,0C0,-11.422 -9.259,-20.681 -20.68,-20.681" style="fill:rgb(255,219,114);fill-rule:nonzero;"/>
                </g>
                <g transform="matrix(0,-1.18237,-1.18237,0,-4.24329,-39.2931)">
                    <path d="M-18.594,-18.594C-28.864,-18.594 -37.188,-10.269 -37.188,0C-37.188,10.269 -28.864,18.594 -18.594,18.594C-8.325,18.594 0,10.269 0,0C0,-10.269 -8.325,-18.594 -18.594,-18.594" style="fill:rgb(255,231,133);fill-rule:nonzero;"/>
                </g>
                <g transform="matrix(0,-1.18237,-1.18237,0,0.156563,-26.78)">
                    <path d="M-3.636,-3.636C-5.644,-3.636 -7.272,-2.008 -7.272,-0C-7.272,2.008 -5.644,3.636 -3.636,3.636C-1.628,3.636 -0,2.008 -0,-0C-0,-2.008 -1.628,-3.636 -3.636,-3.636" style="fill:rgb(255,255,162);fill-rule:nonzero;"/>
                </g>
                <g transform="matrix(1.18237,0,0,1.18237,-6.80927,-49.4328)">
                    <path d="M0,1.659C0.229,1.659 0.46,1.644 0.693,1.622C-1.826,1.385 -4.498,0 -6.83,0.28C-4.631,0.514 -2.235,1.659 0,1.659" style="fill:rgb(255,219,114);fill-rule:nonzero;"/>
                </g>
                <g transform="matrix(1.18237,0,0,1.18237,-6.80927,17.5106)">
                    <path d="M0,-1.659C-2.235,-1.659 -4.631,-0.515 -6.831,-0.28C-4.498,0 -1.826,-1.385 0.693,-1.622C0.46,-1.644 0.229,-1.659 0,-1.659" style="fill:rgb(255,219,114);fill-rule:nonzero;"/>
                </g>
                <g transform="matrix(1.18237,0,0,1.18237,24.806,-6.22043)">
                    <path d="M0,-16.476C-0.916,-19.297 0.047,-23.103 -1.662,-25.451C-3.388,-27.823 -7.316,-28.075 -9.688,-29.8C-12.036,-31.509 -13.48,-35.177 -16.301,-36.093C-17.007,-36.323 -17.752,-36.349 -18.522,-36.267C-18.239,-36.233 -17.96,-36.182 -17.688,-36.093C-14.867,-35.177 -13.423,-31.509 -11.074,-29.8C-8.703,-28.075 -4.775,-27.823 -3.049,-25.451C-1.34,-23.103 -2.303,-19.297 -1.387,-16.476C-0.503,-13.754 2.542,-11.255 2.542,-8.239C2.542,-5.221 -0.503,-2.722 -1.387,0.001C-2.303,2.821 -1.34,6.627 -3.049,8.975C-4.775,11.346 -8.703,11.598 -11.075,13.324C-13.423,15.033 -14.867,18.701 -17.688,19.617C-17.96,19.705 -18.239,19.756 -18.522,19.791C-17.752,19.873 -17.007,19.846 -16.302,19.617C-13.48,18.701 -12.037,15.033 -9.688,13.324C-7.316,11.598 -3.389,11.346 -1.663,8.975C0.046,6.627 -0.916,2.821 0,0.001C0.884,-2.722 3.929,-5.221 3.929,-8.239C3.929,-11.255 0.884,-13.754 0,-16.476" style="fill:rgb(255,219,114);fill-rule:nonzero;"/>
                </g>
            </g>
            <g transform="matrix(-0.633168,0,0,0.633168,189.329,205.724)">
                <g id="OBJECTS1" serif:id="OBJECTS">
                    <g transform="matrix(1,0,0,1,105.45,285.068)">
                        <path d="M0,-11.67C-1.057,-11.67 -10.184,-4.567 -15.351,-1.775C-16.438,-1.188 -16.133,0.447 -14.907,0.605L-0.692,0.667L2.466,0.665C3.488,0.463 4.195,-0.737 5.034,-0.12L6.49,0.95C6.815,1.19 7.213,1.312 7.617,1.298L9.429,1.232C10.42,1.196 11.193,0.36 11.153,-0.631L10.654,-12.982L0,-11.67Z" style="fill:rgb(0,4,17);fill-rule:nonzero;"/>
                    </g>
                    <g transform="matrix(1,0,0,1,150.448,285.068)">
                        <path d="M0,-11.67C-1.057,-11.67 -10.604,-4.718 -15.771,-1.926C-16.858,-1.339 -16.305,1.045 -15.079,1.203L-1.967,0.834L3.27,0.747C4.292,0.545 4.195,-0.737 5.034,-0.12L6.49,0.95C6.815,1.19 7.213,1.312 7.617,1.298L9.429,1.232C10.42,1.196 11.193,0.36 11.153,-0.631L10.654,-12.982L0,-11.67Z" style="fill:rgb(0,4,17);fill-rule:nonzero;"/>
                    </g>
                    <g transform="matrix(1,0,0,1,149.615,110.11)">
                        <path d="M0,-48.379C5.076,-43.573 9.232,-39.467 11.104,-37.463C11.808,-36.71 12.12,-35.674 11.934,-34.661C10.529,-27.065 -2.612,-7.124 -7.177,0L-14.676,-4.618C-14.676,-4.618 -3.018,-29.778 -3.631,-32.553C-3.631,-32.553 -6.322,-34.303 -10.343,-37.376" style="fill:rgb(255,193,173);fill-rule:nonzero;"/>
                    </g>
                    <g transform="matrix(0.820888,-0.571089,-0.571089,-0.820888,147.102,67.9503)">
                        <path d="M-10.899,0.181C-12.806,6.131 -13.487,15.258 -14.77,24.714C-15.422,29.511 -13.683,34.5 -10.899,37.403C-7.832,40.6 -3.491,35.895 -3.491,35.895C-0.894,27.231 3.546,13.628 5.615,3.67" style="fill:rgb(130,136,201);fill-rule:nonzero;"/>
                    </g>
                    <g transform="matrix(1,0,0,1,118.153,278.712)">
                        <path d="M0,-167.608L13.292,-72.576L32.975,-5.398C38.404,-3.493 40.973,-4.733 42.948,-6.626L30.536,-74.651L26.135,-151.036L24.966,-165.816L0,-167.608Z" style="fill:rgb(63,71,150);fill-rule:nonzero;"/>
                    </g>
                    <g transform="matrix(1,0,0,1,96.7714,273.656)">
                        <path d="M0,-164.635L-0.025,-72.659L7.663,0.436C9.299,2.707 16.996,3.446 19.576,1.589L19.019,-73.33L42.861,-169.597L0,-164.635Z" style="fill:rgb(74,83,174);fill-rule:nonzero;"/>
                    </g>
                    <g transform="matrix(0.810768,-0.585368,-0.585368,-0.810768,8.69285,33.339)">
                        <path d="M0.154,8.14L24.045,8.14L25.305,-0.301L1.039,-0.297L0.154,8.14Z" style="fill:rgb(0,69,147);fill-rule:nonzero;"/>
                    </g>
                    <g transform="matrix(1,0,0,1,3.0849,35.5539)">
                        <path d="M0,-7.775L-3.085,0L5.297,-1.956L0,-7.775Z" style="fill:rgb(255,193,173);fill-rule:nonzero;"/>
                    </g>
                    <g transform="matrix(-0.154705,-0.987961,-0.987961,0.154705,5.72656,25.298)">
                        <path d="M-4.499,-5.258C-6.786,-5.259 -8.638,-3.219 -8.638,-0.705C-8.639,1.81 -6.785,3.85 -4.499,3.849C-2.212,3.85 -0.358,1.811 -0.359,-0.704C-0.359,-3.219 -2.212,-5.258 -4.499,-5.258" style="fill:rgb(0,69,147);fill-rule:nonzero;"/>
                    </g>
                    <g transform="matrix(-0.154688,-0.987963,-0.987963,0.154688,25.003,11.3828)">
                        <path d="M-4.5,-5.259C-6.786,-5.259 -8.64,-3.22 -8.64,-0.705C-8.64,1.811 -6.786,3.851 -4.5,3.85C-2.213,3.85 -0.36,1.811 -0.359,-0.703C-0.359,-3.22 -2.213,-5.259 -4.5,-5.259" style="fill:rgb(255,193,173);fill-rule:nonzero;"/>
                    </g>
                    <g transform="matrix(-0.154768,-0.987951,-0.987951,0.154768,26.0895,13.839)">
                        <path d="M-1.657,-1.936C-2.499,-1.936 -3.182,-1.185 -3.181,-0.259C-3.181,0.667 -2.498,1.419 -1.657,1.417C-0.815,1.417 -0.132,0.667 -0.133,-0.259C-0.132,-1.185 -0.814,-1.936 -1.657,-1.936" style="fill:rgb(0,69,147);fill-rule:nonzero;"/>
                    </g>
                    <g transform="matrix(1,0,0,1,0.7831,35.5536)">
                        <path d="M0,-1.973L-0.783,0L1.488,-0.53C0.871,-0.887 0.358,-1.376 0,-1.973" style="fill:rgb(0,69,147);fill-rule:nonzero;"/>
                    </g>
                    <g transform="matrix(1,0,0,1,20.7734,30.3404)">
                        <path d="M0,-6.769C-0.982,-6.586 -2,-6.897 -2.68,-7.63C-5.136,-10.284 -6.751,-13.419 -8.159,-12.748C-9.78,-11.976 -8.787,-11.109 -10.17,-10.116C-10.604,-9.805 -12.018,-10.144 -12.308,-9.009C-12.597,-7.875 -12.625,-6.829 -13.642,-6.04C-14.645,-5.264 -14.064,-2.658 -13.719,-1.77C-13.464,-1.111 -12.397,0.077 -11.809,0.647C-9.764,2.864 -6.467,4.809 -4.563,5.574C-1.883,6.65 0.791,3.724 2.455,0.933C3.712,-1.175 2.617,-7.198 2.617,-7.198C1.701,-7.067 0.829,-6.923 0,-6.769" style="fill:rgb(255,193,173);fill-rule:nonzero;"/>
                    </g>
                    <g transform="matrix(1,0,0,1,12.9613,18.6516)">
                        <path d="M0,-1.131L4.241,-1.464L1.736,0.333L0,-1.131Z" style="fill:rgb(255,193,173);fill-rule:nonzero;"/>
                    </g>
                    <g transform="matrix(-0.381608,0.924324,0.924324,0.381608,82.9576,25.0625)">
                        <path d="M-4.249,-4.137L1.257,-4.137C1.756,-4.089 2.125,-3.651 2.088,-3.151L1.91,-0.766L-4.249,-4.137Z" style="fill:rgb(255,193,173);fill-rule:nonzero;"/>
                    </g>
                    <g transform="matrix(0.973917,0.226904,0.226904,-0.973917,54.8674,59.5937)">
                        <path d="M1.703,-4.016L35.564,-4.016C39.253,-3.719 31.69,22.514 31.69,22.514L15.042,16.351L2.097,13.842" style="fill:rgb(130,136,201);fill-rule:nonzero;"/>
                    </g>
                    <g transform="matrix(1,0,0,1,91.246,5.6826)">
                        <path d="M0,39.13C0.061,39.096 0.119,39.063 0.177,39.029C1.854,38.056 0.628,24.447 -1.423,21.143L10.314,0C10.314,0 11.17,13.562 14.623,26.255C15.749,30.39 19.805,33.506 21.407,34.038" style="fill:rgb(255,193,173);fill-rule:nonzero;"/>
                    </g>
                    <g transform="matrix(1,0,0,1,96.4374,34.0188)">
                        <path d="M0,-1.152L1.68,-9.792C1.68,-9.792 -1.094,-4.015 -1.117,-3.677C-1.139,-3.367 -4.264,-0.668 -4.753,-0.247C-4.354,2.526 -4.178,6.484 -4.276,8.64L0,-1.152Z" style="fill:rgb(252,160,151);fill-rule:nonzero;"/>
                    </g>
                    <g transform="matrix(1,0,0,1,82.6093,6.2185)">
                        <path d="M0,28.429C0.125,29.263 0.778,29.955 1.618,30.039C11.049,30.977 24.126,14.926 22.779,5.334C22.104,0.523 16.789,-1.034 11.782,-1.53C4.033,-2.298 -1.78,-2.548 -2.402,11.438C-2.409,11.578 0,28.429 0,28.429" style="fill:rgb(255,193,173);fill-rule:nonzero;"/>
                    </g>
                    <g transform="matrix(1,0,0,1,81.2646,24.3715)">
                        <path d="M0,-14.033L-1.123,-15.844C-3.648,-19.917 -0.191,-25.092 4.533,-24.288C16.872,-22.187 27.388,-18.826 27.29,-12.94C27.025,3.053 24.907,7.318 24.907,7.318C24.907,7.318 18.089,11.059 16.437,-2.385C11.054,1.9 8.588,-11.604 8.588,-11.604C8.365,-13.719 3.044,-13.325 0,-14.033" style="fill:rgb(61,61,61);fill-rule:nonzero;"/>
                    </g>
                    <g transform="matrix(0.322412,-0.946599,-0.946599,-0.322412,98.0136,20.0637)">
                        <path d="M-2.614,-1.871C-4.633,-1.798 -6.269,-0.502 -6.269,1.023C-6.268,2.547 -4.632,3.725 -2.614,3.653C-0.595,3.579 1.041,2.284 1.042,0.759C1.04,-0.767 -0.595,-1.945 -2.614,-1.871" style="fill:rgb(255,193,173);fill-rule:nonzero;"/>
                    </g>
                    <g transform="matrix(1,0,0,1,60.0497,43.983)">
                        <path d="M0,2.605L-10.575,0.678L-39.746,-15.314L-47.687,-10.917L-12.839,15.459L-3.745,17.919L0,2.605Z" style="fill:rgb(255,193,173);fill-rule:nonzero;"/>
                    </g>
                    <g transform="matrix(1,0,0,1,81.8173,98.1696)">
                        <path d="M0,-34.773C-0.3,-42.666 -3.32,-49.836 -1.73,-50.531C-1.73,-50.531 8.572,-54.797 10.353,-55.638C10.353,-55.638 24.661,-56.714 27.242,-60.891C27.242,-60.891 41.498,-58.648 42.021,-57.514C49.895,-40.45 49.222,-35.671 49.222,-35.671L54.635,-11.653L62.293,15.102C57.015,18.528 28.512,26.118 15.169,25.408C15.169,25.408 12.897,-0.192 12.111,-4.369C12.111,-4.369 0.261,-27.869 0,-34.773" style="fill:rgb(130,136,201);fill-rule:nonzero;"/>
                    </g>
                </g>
            </g>
        </g>
        <g id="Layer-1" serif:id="Layer 1">
        </g>
        <g id="Слой-13" serif:id="Слой 1">
        </g>
        <g id="Padlock">
        </g>
        <g id="Speech-Bubble" serif:id="Speech Bubble">
        </g>
    </g>
</svg>
