<?xml version="1.0" encoding="UTF-8" standalone="no"?>
<!DOCTYPE svg PUBLIC "-//W3C//DTD SVG 1.1//EN" "http://www.w3.org/Graphics/SVG/1.1/DTD/svg11.dtd">
<svg width="100%" height="100%" viewBox="0 0 500 500" version="1.1" xmlns="http://www.w3.org/2000/svg" xmlns:xlink="http://www.w3.org/1999/xlink" xml:space="preserve" xmlns:serif="http://www.serif.com/" style="fill-rule:evenodd;clip-rule:evenodd;stroke-linecap:round;stroke-linejoin:round;stroke-miterlimit:1.5;">
    <g transform="matrix(1,0,0,1,-546.47,-1606.24)">
        <g id="Artboard1" transform="matrix(1,0,0,1,546.47,1606.24)">
            <rect x="0" y="0" width="499.999" height="500" style="fill:none;"/>
            <g transform="matrix(1,0,0,1,0.547041,-65.4534)">
                <path d="M85.026,453C68.756,424.533 59.453,391.571 59.453,356.453C59.453,248.83 146.83,161.453 254.453,161.453C362.076,161.453 449.453,248.83 449.453,356.453C449.453,391.571 440.15,424.533 423.88,453L85.026,453Z" style="fill:rgb(220,245,226);"/>
            </g>
            <g transform="matrix(1.34007,0,0,1.34007,329.046,244.338)">
                <path d="M0,103.336C-15.448,92.543 -18.953,72.51 -18.342,54.502C-18.24,51.496 -18.57,48.327 -17.141,45.69C-15.71,43.053 -12.374,41.25 -9.683,42.517C-7.45,43.567 -6.478,46.164 -5.229,48.312C-3.567,51.169 -1.092,53.533 1.821,55.045C3.735,56.038 6.104,56.646 7.993,55.604C10.586,54.173 10.892,50.591 10.873,47.601C10.838,42.028 10.804,36.456 10.769,30.885C10.75,27.896 10.741,24.843 11.671,22.005C12.601,19.168 14.655,16.532 17.499,15.735C20.344,14.939 23.86,16.579 24.461,19.505C24.711,20.723 24.463,21.987 24.546,23.228C24.629,24.469 25.207,25.842 26.386,26.188C27.579,26.538 28.775,25.69 29.669,24.815C32.755,21.797 34.849,17.908 36.806,14.041C38.763,10.174 40.662,6.215 43.462,2.922C46.262,-0.37 50.135,-2.979 54.416,-3.222C58.698,-3.464 63.26,-0.821 64.342,3.382C65.427,7.597 62.968,11.873 60.292,15.285C56.322,20.347 51.626,24.823 46.397,28.529C45.455,29.198 44.434,29.921 44.073,31.028C43.424,33.022 45.313,35.001 47.28,35.656C49.509,36.398 51.927,36.167 54.258,36.441C56.589,36.716 59.114,37.744 59.996,39.947C61.221,43.003 58.665,46.206 56.15,48.304C51.115,52.505 45.365,55.823 39.231,58.07C37.032,58.875 34.718,59.581 32.944,61.126C31.171,62.672 30.101,65.358 31.172,67.464C32.244,69.572 34.994,70.246 37.298,69.818C39.601,69.392 41.663,68.141 43.858,67.313C47.967,65.762 53.272,66.045 55.904,69.596C57.634,71.93 57.786,75.18 56.911,77.962C56.037,80.744 54.263,83.141 52.379,85.351C45.794,93.076 37.364,99.296 27.833,102.601C18.303,105.905 9.472,106.8 0,103.336" style="fill:rgb(146,153,244);fill-rule:nonzero;"/>
            </g>
            <g id="Background-Complete" serif:id="Background Complete">
            </g>
            <g id="Floor">
            </g>
            <g id="Plant">
            </g>
            <g id="Device">
            </g>
            <g id="Character">
            </g>
            <g id="Слой-1" serif:id="Слой 1">
            </g>
            <g id="Слой-11" serif:id="Слой 1">
            </g>
            <g transform="matrix(1,0,0,1,23.5298,-68.6996)">
                <path d="M54,456L414,456" style="fill:none;stroke:black;stroke-width:1px;"/>
            </g>
            <g id="Слой-12" serif:id="Слой 1">
            </g>
            <g transform="matrix(0.562513,0,0,0.562513,365.117,143.748)">
                <path d="M0,433.028L-285.103,432.67C-293.317,432.66 -299.967,425.993 -299.958,417.778L-299.48,14.856C-299.471,6.641 -292.803,-0.011 -284.588,0L0.515,0.358C8.729,0.368 15.379,7.035 15.369,15.249L14.893,418.172C14.883,426.386 8.215,433.039 0,433.028" style="fill:rgb(74,83,174);fill-rule:nonzero;"/>
            </g>
            <g transform="matrix(0.562513,0,0,0.562513,359.441,143.748)">
                <path d="M0,433.028L-285.103,432.67C-293.316,432.66 -299.967,425.993 -299.958,417.778L-299.48,14.856C-299.471,6.641 -292.803,-0.011 -284.588,0L0.515,0.358C8.729,0.368 15.38,7.035 15.37,15.249L14.893,418.172C14.883,426.386 8.215,433.039 0,433.028" style="fill:rgb(130,136,201);fill-rule:nonzero;"/>
            </g>
            <g transform="matrix(0.562513,0,0,0.562513,361.35,143.544)">
                <path d="M0,433.772C-1.808,433.772 -3.5,433.767 -4.513,433.751L-4.481,431.751C-1.485,431.798 7.566,431.751 7.657,431.751L7.675,431.751C11.325,431.751 14.754,430.295 17.337,427.649C19.931,424.992 21.361,421.454 21.366,417.688L21.844,16.458C21.853,8.693 15.721,2.369 8.174,2.359L-278.614,2L-278.611,0L8.176,0.359C16.825,0.37 23.854,7.593 23.844,16.46L23.366,417.69C23.361,421.981 21.729,426.013 18.768,429.046C15.806,432.081 11.869,433.751 7.682,433.751L7.661,433.751C7.604,433.751 3.579,433.772 0,433.772" style="fill:rgb(109,117,193);fill-rule:nonzero;"/>
            </g>
            <g transform="matrix(0.562513,0,0,0.562513,56.8504,125.336)">
                <g opacity="0.36">
                    <g transform="matrix(-0.999999,-0.00125665,-0.00125665,0.999999,270.555,68.3573)">
                        <rect x="-266.372" y="0.167" width="266.609" height="377.107" style="fill:rgb(69,39,42);"/>
                    </g>
                </g>
            </g>
            <g transform="matrix(-0.562512,-0.000706881,-0.000706881,0.562512,204.68,159.288)">
                <rect x="-266.372" y="0.167" width="266.609" height="377.107" style="fill:white;"/>
            </g>
            <g transform="matrix(0.562513,0,0,0.562513,280.341,149.217)">
                <path d="M0,-14.097C-5.201,-12.958 -9.744,-17.407 -8.595,-22.529C-8.016,-25.113 -5.902,-27.201 -3.28,-27.777C1.924,-28.922 6.468,-24.446 5.312,-19.325C4.73,-16.747 2.617,-14.67 0,-14.097M23.148,-16.746L23.149,-16.994C23.169,-32.132 9.227,-44.083 -6.738,-40.963C-18.279,-38.708 -26.425,-28.456 -26.44,-16.867L-26.44,-16.808L-58.967,-16.849C-63.031,-16.854 -66.33,-13.613 -66.336,-9.609L-66.377,22.579C-66.382,26.582 -63.092,29.832 -59.027,29.837L55.615,29.98C59.68,29.986 62.979,26.744 62.984,22.74L63.025,-9.448C63.031,-13.451 59.74,-16.701 55.676,-16.706L23.148,-16.746Z" style="fill:rgb(215,217,238);fill-rule:nonzero;"/>
            </g>
            <g transform="matrix(0.562513,0,0,0.562513,214.82,292.363)">
                <path d="M0,-23.557C-0.034,-23.412 -0.068,-23.276 -0.111,-23.139C-15.044,37.055 -44.44,105.242 -102.147,148.229C-111.542,155.23 -121.696,161.564 -132.654,167.086C-133.979,166.419 -135.287,165.744 -136.586,165.043C-286.679,85.36 -280.097,-148.733 -280.097,-148.733C-254.992,-151.237 -226.946,-161.794 -197.678,-175.692C-176.531,-185.736 -153.725,-190.643 -130.954,-190.395C-109.344,-190.173 -87.77,-185.317 -67.691,-175.804C-38.209,-161.845 -9.933,-151.245 15.241,-148.733C15.241,-148.733 16.745,-91.248 0,-23.557" style="fill:rgb(130,136,202);fill-rule:nonzero;"/>
            </g>
            <g transform="matrix(0.562513,0,0,0.562513,214.82,292.503)">
                <path d="M0,-23.805C-0.034,-23.66 -0.068,-23.524 -0.111,-23.387C-15.403,36.628 -44.987,104.174 -102.147,147.981C-111.542,154.982 -121.696,161.316 -132.654,166.838C-133.979,166.171 -135.287,165.496 -136.586,164.795C-119.91,130.706 -19.216,-88.188 -130.954,-190.643C-109.344,-190.421 -87.77,-185.565 -67.691,-176.052C-38.209,-162.093 -9.933,-151.493 15.241,-148.981C15.241,-148.981 16.745,-91.496 0,-23.805" style="fill:rgb(164,169,216);fill-rule:nonzero;"/>
            </g>
            <g transform="matrix(0.562513,0,0,0.562513,73.844,345.376)">
                <path d="M0,-215.65C-0.057,-206.06 0.437,-162.347 12.965,-113.1C25.876,-62.347 54.576,4.814 118.004,37.32C181.436,4.813 210.234,-62.349 223.228,-113.104C235.834,-162.344 236.411,-206.052 236.372,-215.65C218.383,-217.79 197.216,-224.833 170.013,-237.712C136.951,-253.364 99.02,-253.331 65.947,-237.622C38.94,-224.796 17.907,-217.781 0,-215.65M118.004,42.332L116.999,41.825C87.967,27.199 63.513,4.408 44.315,-25.916C29.006,-50.098 16.991,-79.096 8.604,-112.105C-5.652,-168.215 -4.458,-217.231 -4.445,-217.72L-4.39,-219.686L-2.433,-219.882C15.376,-221.664 36.495,-228.585 64.028,-241.662C98.32,-257.948 137.647,-257.982 171.927,-241.754C199.665,-228.622 220.917,-221.672 238.808,-219.882L240.769,-219.686L240.82,-217.715C240.833,-217.227 241.935,-168.212 227.587,-112.102C219.147,-79.094 207.09,-50.096 191.75,-25.914C172.515,4.409 148.041,27.2 119.01,41.825L118.004,42.332Z" style="fill:white;fill-rule:nonzero;"/>
            </g>
            <g transform="matrix(0.562513,0,0,0.562513,140.808,242.768)">
                <path d="M0,122.606L-61.367,45.092L-41.936,29.707L-0.252,82.361L63.284,0L82.905,15.136L0,122.606Z" style="fill:white;fill-rule:nonzero;"/>
            </g>
            <g transform="matrix(0,-0.67625,-0.67625,0,314.993,328.166)">
                <path d="M-25.354,-25.353C-39.356,-25.353 -50.707,-14 -50.707,0.002C-50.707,14.002 -39.356,25.354 -25.354,25.354C-11.352,25.354 0,14.002 0,0.002C0,-14 -11.352,-25.353 -25.354,-25.353" style="fill:rgb(74,83,174);fill-rule:nonzero;"/>
            </g>
            <g transform="matrix(0,-0.562513,-0.562513,0,314.993,331.05)">
                <path d="M-25.354,-25.353C-39.356,-25.353 -50.707,-14 -50.707,0.002C-50.707,14.002 -39.356,25.354 -25.354,25.354C-11.352,25.354 0,14.002 0,0.002C0,-14 -11.352,-25.353 -25.354,-25.353" style="fill:rgb(220,245,226);fill-rule:nonzero;"/>
            </g>
            <g transform="matrix(0.562513,0,0,0.562513,314.126,337.46)">
                <path d="M0,27.913L-13.971,10.266L-9.547,6.764L-0.058,18.751L14.408,0L18.875,3.446L0,27.913Z" style="fill:rgb(74,83,174);fill-rule:nonzero;"/>
            </g>
            <g transform="matrix(0.470368,0,0,0.470368,230.109,185.264)">
                <g transform="matrix(1,0,0,1,89.4916,33.3696)">
                    <path d="M0,62.464C-0.161,58.923 -1.76,57.338 -3.366,55.733C-14.063,45.048 -24.737,34.342 -35.433,23.656C-41.623,17.47 -41.651,13.428 -35.486,7.238C-34.196,5.943 -32.941,4.602 -31.566,3.401C-27.771,0.084 -23.084,0 -19.471,3.573C-7.658,15.256 4.02,27.075 15.758,38.834C17.95,41.029 18.583,43.34 16.231,45.78C11.063,51.143 5.847,56.461 0,62.464" style="fill:rgb(61,68,146);fill-rule:nonzero;"/>
                </g>
                <g transform="matrix(1,0,0,1,92.7416,30.2922)">
                    <path d="M0,23.392C3.6,22.756 5.459,20.39 7.534,18.309C17.963,7.853 28.364,-2.63 38.814,-13.064C44.159,-18.399 48.432,-18.407 53.764,-13.214C55.071,-11.941 56.37,-10.656 57.614,-9.322C62.002,-4.616 62.121,-0.42 57.607,4.163C46.2,15.744 34.658,27.192 23.195,38.718C20.678,41.249 18.294,41.799 15.545,38.973C10.581,33.87 5.495,28.886 0,23.392" style="fill:rgb(61,68,146);fill-rule:nonzero;"/>
                </g>
                <g transform="matrix(1,0,0,1,132.082,122.18)">
                    <path d="M0,-23.708C-3.9,-23.383 -5.509,-21.782 -7.151,-20.125C-17.555,-9.635 -28.017,0.797 -38.442,11.265C-45.666,18.518 -48.82,18.502 -56.171,11.098C-57.106,10.156 -58.069,9.236 -58.95,8.245C-62.555,4.188 -62.714,-0.338 -58.941,-4.177C-47.31,-16.014 -35.521,-27.697 -23.839,-39.484C-21.121,-42.226 -18.732,-41.85 -16.149,-39.303C-11.189,-34.414 -6.135,-29.621 0,-23.708" style="fill:rgb(61,68,146);fill-rule:nonzero;"/>
                </g>
                <g transform="matrix(1,0,0,1,134.76,118.724)">
                    <path d="M0,-62.939C-0.187,-59.003 1.595,-57.404 3.332,-55.672C14.267,-44.776 25.158,-33.835 36.021,-22.866C41.214,-17.621 41.21,-13.626 36.106,-8.305C34.383,-6.507 32.698,-4.625 30.74,-3.111C27.178,-0.356 23.151,0 19.864,-3.21C7.634,-15.154 -4.412,-27.287 -16.464,-39.413C-18.521,-41.483 -18.525,-43.973 -16.487,-46.099C-11.338,-51.472 -6.082,-56.742 0,-62.939" style="fill:rgb(61,68,146);fill-rule:nonzero;"/>
                </g>
                <g transform="matrix(1,0,0,1,63.8383,80.0403)">
                    <path d="M0,37.41C-3.553,37.364 -12.145,30.372 -13.662,26.17C-15.396,21.368 -13.106,17.962 -9.745,14.796C-5.769,11.051 -1.897,7.182 1.833,3.192C4.925,-0.115 7.583,0.035 10.584,3.306C13.718,6.721 17.092,9.918 20.393,13.177C22.805,15.559 23.171,17.937 20.627,20.473C15.701,25.382 10.804,30.32 5.879,35.23C4.264,36.841 2.273,37.525 0,37.41" style="fill:rgb(61,68,146);fill-rule:nonzero;"/>
                </g>
                <g transform="matrix(1,0,0,1,138.979,101.42)">
                    <path d="M0,37.122C-2.563,37.313 -4.515,36.146 -6.21,34.453C-10.896,29.772 -15.538,25.049 -20.236,20.381C-22.68,17.954 -22.858,15.522 -20.414,13.042C-16.812,9.387 -13.174,5.765 -9.543,2.138C-7.254,-0.148 -4.877,-0.191 -2.59,2.074C2.349,6.965 7.353,11.799 12.1,16.872C15.495,20.502 15.569,24.918 12.05,28.431C8.542,31.931 5.928,36.93 0,37.122" style="fill:rgb(61,68,146);fill-rule:nonzero;"/>
                </g>
                <g transform="matrix(1,0,0,1,70.5981,35.2372)">
                    <path d="M0,-7.305C0.054,-11.017 7.152,-19.865 11.222,-21.299C16.002,-22.982 19.403,-20.718 22.556,-17.305C26.258,-13.296 30.189,-9.491 34.133,-5.713C37.073,-2.896 37.501,-0.289 34.343,2.695C30.855,5.99 27.524,9.452 24.166,12.881C21.785,15.311 19.393,15.677 16.869,13.14C12.085,8.328 7.329,3.487 2.508,-1.287C0.728,-3.05 0.167,-5.21 0,-7.305" style="fill:rgb(61,68,146);fill-rule:nonzero;"/>
                </g>
                <g transform="matrix(1,0,0,1,160.125,72.0767)">
                    <path d="M0,-37.685C6.573,-36.46 10.41,-31.519 13.514,-26.379C16.208,-21.916 13.068,-18.285 9.826,-15.131C5.909,-11.322 1.988,-7.506 -1.73,-3.507C-4.724,-0.289 -7.359,0.026 -10.45,-3.362C-13.46,-6.661 -16.674,-9.783 -19.91,-12.864C-22.903,-15.714 -23.087,-18.389 -20.052,-21.341C-15.542,-25.727 -11.111,-30.197 -6.701,-34.684C-4.864,-36.553 -2.794,-37.711 0,-37.685" style="fill:rgb(61,68,146);fill-rule:nonzero;"/>
                </g>
                <g transform="matrix(0.999974,-0.0071614,-0.0071614,-0.999974,112.263,25.5512)">
                    <path d="M-0.091,-0.001C-6.985,-0.043 -12.85,5.637 -12.992,12.49C-13.138,19.495 -7.083,25.626 -0.091,25.552C6.754,25.479 12.549,19.63 12.591,12.749C12.634,5.935 6.769,0.039 -0.091,-0.001" style="fill:rgb(61,68,146);fill-rule:nonzero;"/>
                </g>
                <g transform="matrix(0.999917,0.0128699,0.0128699,-0.999917,111.758,151.809)">
                    <path d="M0.164,-0C-6.773,-0.042 -12.641,5.627 -12.735,12.461C-12.832,19.576 -7.001,25.429 0.164,25.408C7.052,25.387 12.852,19.568 12.832,12.701C12.812,5.707 7.161,0.043 0.164,-0" style="fill:rgb(61,68,146);fill-rule:nonzero;"/>
                </g>
                <g transform="matrix(-0.999909,-0.0134873,-0.0134873,0.999909,48.7355,88.7691)">
                    <path d="M0.014,-25.549C-6.816,-25.616 -12.783,-19.859 -12.913,-13.075C-13.048,-6.019 -7.111,-0.069 0.014,-0.118C6.953,-0.164 12.707,-5.939 12.676,-12.825C12.645,-19.741 6.934,-25.481 0.014,-25.549" style="fill:rgb(61,68,146);fill-rule:nonzero;"/>
                </g>
                <g transform="matrix(-0.00307654,-0.999995,-0.999995,0.00307654,174.716,63.3355)">
                    <path d="M-12.485,-12.883C-19.545,-12.943 -25.183,-7.477 -25.306,-0.451C-25.435,6.806 -19.734,12.55 -12.485,12.47C-5.478,12.39 0.128,6.756 0.117,-0.199C0.106,-7.207 -5.472,-12.822 -12.485,-12.883" style="fill:rgb(61,68,146);fill-rule:nonzero;"/>
                </g>
                <g transform="matrix(2.4165,0,0,2.4165,-1497.19,-4356.59)">
                    <text x="625.986px" y="1878.65px" style="font-family:'LucidaGrande-Bold', 'Lucida Grande', sans-serif;font-weight:600;font-size:14.151px;fill:rgb(61,68,146);">KEMNAKER</text>
                </g>
            </g>
            <g transform="matrix(0.271085,0,0,0.271085,224.679,280.623)">
                <g transform="matrix(1,0,0,1,260.018,48.5745)">
                    <path d="M0,44.849C-0.297,26.432 0.448,7.88 -0.42,-10.682C-0.618,-14.903 -2.487,-16.265 -6.335,-15.924C-7.324,-15.837 -8.333,-15.872 -9.325,-15.945C-10.238,-16.012 -11.499,-15.687 -11.63,-17.118C-11.757,-18.5 -10.656,-18.672 -9.629,-18.675C-1.815,-18.702 5.998,-18.707 13.812,-18.712C14.71,-18.713 15.517,-18.421 15.498,-17.39C15.486,-16.69 14.915,-16.141 14.163,-16.209C7.39,-16.818 7.983,-12.119 7.852,-7.709C7.176,15.063 7.261,37.838 7.345,60.615C7.35,62.002 8.27,63.953 6.702,64.716C5.115,65.488 3.414,64.281 2.217,63.199C-4.559,57.073 -11.292,50.898 -17.938,44.633C-32.813,30.612 -47.627,16.526 -62.472,2.473C-63.281,1.706 -64.145,0.998 -65.791,-0.446L-65.791,11.606C-65.791,25.905 -65.799,40.203 -65.786,54.502C-65.779,62.571 -65.534,62.789 -57.362,62.931C-56.603,62.944 -55.71,62.513 -54.827,63.724L-79.285,63.724C-71.375,61.376 -73.633,54.817 -73.57,49.466C-73.319,28.021 -73.278,6.574 -73.155,-14.872C-73.125,-20.184 -72.507,-20.639 -68.007,-17.733C-56.619,-10.381 -47.215,-0.685 -37.497,8.615C-25.021,20.555 -12.655,32.61 0,44.849" style="fill:rgb(11,11,11);fill-rule:nonzero;"/>
                </g>
                <g transform="matrix(1,0,0,1,342.57,27.5663)">
                    <path d="M0,84.614C4.969,83.892 5.597,80.61 5.569,76.322C5.435,55.049 5.511,33.773 5.503,12.499C5.501,8.959 5.862,5.153 0.612,5.022C-0.14,5.004 -0.594,4.61 -0.63,3.809C-0.678,2.747 -0.069,2.317 0.877,2.353C15.934,2.933 31.148,0 46.038,4.086C55.015,6.549 59.957,12.737 60.99,21.955C61.945,30.474 58.177,36.796 51.262,41.305C44.734,45.56 37.408,47.627 29.655,48.147C28.612,48.217 26.979,48.79 26.895,47.049C26.812,45.386 28.522,45.779 29.556,45.54C41.45,42.796 47.289,35.668 46.589,24.708C45.911,14.099 39.906,8.459 27.971,7.219C21.187,6.514 21.19,6.514 21.19,13.189C21.191,33.3 21.186,53.411 21.189,73.522C21.191,82.197 21.311,82.316 29.829,83.359C30.561,83.448 31.273,83.692 31.878,84.614L0,84.614Z" style="fill:rgb(11,11,11);fill-rule:nonzero;"/>
                </g>
                <g transform="matrix(1,0,0,1,75.228,48.8888)">
                    <path d="M0,-15.145C7.511,-24.391 15.022,-33.636 22.531,-42.883C23.574,-44.167 24.548,-45.511 25.66,-46.73C26.59,-47.749 27.415,-49.742 29.154,-48.487C30.973,-47.175 29.261,-45.874 28.484,-44.723C21.915,-34.983 15.314,-25.264 8.755,-15.517C7.659,-13.888 6.353,-12.326 6.254,-10.212C1.469,-6.513 -0.455,-0.748 -3.918,3.91C-10.467,12.721 -15.867,22.364 -23.383,30.484C-26.08,33.398 -28.521,34.597 -32.349,32.141C-36.041,29.771 -40.066,27.736 -44.203,26.292C-49.271,24.522 -52.941,19.678 -58.81,19.837C-59.818,16.825 -62.816,16.215 -65.053,14.703C-67.638,12.955 -70.316,11.348 -72.892,9.587C-73.949,8.864 -75.129,8.131 -75.223,6.596C-75.476,2.451 -66.37,-5.491 -62.394,-3.991C-59.017,-2.718 -59.417,-4.852 -58.868,-6.529C-58.654,-2.587 -56.873,0.257 -53.195,1.917C-52.176,2.377 -51.34,3.249 -50.428,3.943C-44.792,8.23 -39.192,12.565 -33.513,16.793C-30.299,19.186 -27.499,19.695 -24.535,15.813C-16.544,5.351 -8.202,-4.844 0,-15.145" style="fill:rgb(201,3,3);fill-rule:nonzero;"/>
                </g>
                <g transform="matrix(1,0,0,1,16.4184,72.2482)">
                    <path d="M0,-3.522C5.868,-3.682 9.538,1.162 14.606,2.932C18.743,4.376 22.769,6.412 26.461,8.781C30.289,11.238 32.729,10.039 35.427,7.125C42.942,-0.996 48.343,-10.639 54.892,-19.449C58.354,-24.107 60.278,-29.873 65.063,-33.572C65.104,-14.72 65.1,4.133 65.205,22.985C65.244,30.05 59.961,26.269 56.985,27.2C57.082,21.942 53.676,19.281 49.531,17.191C45.99,15.405 42.388,13.829 38.478,12.932C25.272,9.902 21.335,11.653 14.915,23.678C14.295,24.839 13.685,26.006 13.068,27.17C10.105,27.195 7.132,27.077 4.181,27.283C1.07,27.501 -0.296,26.532 -0.211,23.157C0.014,14.268 -0.051,5.372 0,-3.522" style="fill:rgb(11,11,11);fill-rule:nonzero;"/>
                </g>
                <g transform="matrix(1,0,0,1,329.078,97.5578)">
                    <path d="M0,-51.189C-3.175,-58.889 -8.556,-62.022 -14.88,-63.987C-20.053,-65.594 -27.98,-63.153 -30.948,-58.888C-33.523,-55.188 -32.894,-50.575 -28.562,-45.249C-21.655,-36.757 -12.556,-30.826 -3.703,-24.644C1.464,-21.035 4.934,-16.549 5.23,-9.932C5.769,2.094 -1.689,12.006 -13.619,14.717C-22.991,16.847 -32.503,15.604 -41.956,15.784C-43.907,15.821 -44.05,14.711 -44.043,13.249C-44.021,8.094 -44.039,2.94 -44.026,-2.215C-44.023,-3.168 -44.238,-4.432 -42.759,-4.367C-41.449,-4.309 -41.551,-3.126 -41.358,-2.129C-38.919,10.536 -34.316,13.74 -21.438,11.681C-19.319,11.342 -17.207,10.785 -15.182,10.075C-5.734,6.759 -2.678,-2.287 -8.007,-10.829C-10.921,-15.5 -15.356,-18.434 -19.802,-21.364C-25.067,-24.835 -30.608,-27.928 -34.964,-32.625C-45.52,-44.006 -42.208,-62.131 -28.68,-66.329C-25.715,-67.25 -22.477,-67.502 -19.347,-67.629C-14.034,-67.845 -8.694,-67.488 -3.393,-67.813C0.263,-68.036 1.297,-66.651 0.913,-63.28C0.515,-59.78 1.416,-56.161 0,-51.189" style="fill:rgb(11,11,11);fill-rule:nonzero;"/>
                </g>
                <g transform="matrix(1,0,0,1,54.9888,50.3985)">
                    <path d="M0,-0.746C0.583,-6.284 -4.669,-10.061 -9.161,-10.04C-14.13,-10.017 -18.418,-5.816 -18.373,-0.997C-18.327,3.856 -14.114,8.118 -9.215,8.268C-4.41,8.416 -0.084,4.184 0,-0.746M20.239,-16.655C12.037,-6.354 3.695,3.841 -4.296,14.304C-7.26,18.185 -10.06,17.676 -13.273,15.283C-18.953,11.055 -24.553,6.72 -30.188,2.433C-31.101,1.739 -31.937,0.868 -32.956,0.407C-36.634,-1.253 -38.415,-4.097 -38.629,-8.039C-38.873,-18.931 -39.261,-16.726 -30.103,-16.771C-13.322,-16.854 3.459,-16.706 20.239,-16.655" style="fill:rgb(11,11,11);fill-rule:nonzero;"/>
                </g>
                <g transform="matrix(1,0,0,1,29.4868,115.915)">
                    <path d="M0,-16.496C0.616,-17.661 1.227,-18.827 1.847,-19.989C8.267,-32.014 12.204,-33.764 25.409,-30.734C29.319,-29.837 32.922,-28.261 36.463,-26.475C40.607,-24.385 44.014,-21.725 43.917,-16.466C40.418,-10.214 36.962,-3.935 31.941,1.878C29.959,-2.263 32.786,-5.094 33.752,-8.33C34.529,-10.934 38.19,-13.715 33.993,-16.537C29.452,-24.706 17.032,-24.808 10.604,-16.729C5.351,-4.972 -1.579,5.464 -12.023,13.389C-15.25,15.837 -19.075,15.861 -22.729,17.268C-11.022,8.702 -5.163,-3.665 0,-16.496" style="fill:rgb(254,206,0);fill-rule:nonzero;"/>
                </g>
                <g transform="matrix(1,0,0,1,40.0903,91.2992)">
                    <path d="M0,7.886C6.429,-0.193 18.849,-0.091 23.39,8.079C15.593,8.014 7.796,7.95 0,7.886" style="fill:rgb(11,11,11);fill-rule:nonzero;"/>
                </g>
                <g transform="matrix(1,0,0,1,159.176,44.1992)">
                    <path d="M0,55.798C-2.428,61.37 -10.043,65.235 -18.031,64.947C-30.977,64.481 -30.977,64.481 -30.977,51.677L-30.977,44.716C-30.968,39.578 -30.959,34.44 -30.973,29.301C-30.977,27.727 -30.977,26.355 -28.723,26.376C-21.899,26.44 -15.116,26.616 -8.895,29.948C-0.322,34.538 3.904,46.837 0,55.798M-28.971,-9.548C-18.162,-12.403 -11.453,-9.069 -8.867,-1.145C-8.155,1.036 -7.633,3.354 -7.506,5.637C-6.849,17.461 -10.9,21.658 -22.725,21.657C-30.803,21.655 -30.808,21.655 -30.852,13.652C-30.867,11.001 -30.854,8.35 -30.854,5.699L-30.958,5.699C-30.958,4.042 -31.306,2.291 -30.887,0.748C-29.943,-2.729 -33.834,-8.264 -28.971,-9.548M-1.821,23.394C-2.562,23.13 -3.287,22.824 -4.142,22.49C3.565,14.91 4.858,12.924 5.246,8.201C6.117,-2.44 -2.33,-11.383 -14.542,-12.539C-25.986,-13.622 -37.473,-12.834 -48.938,-13.056C-49.541,-13.068 -50.209,-12.861 -50.139,-11.561C-45.717,-12.153 -44.371,-9.614 -44.379,-5.628C-44.421,16.321 -44.401,38.27 -44.41,60.218C-44.412,64.081 -44.976,67.563 -50.313,67.88C-35.258,67.906 -20.549,69.42 -5.918,67.568C4.631,66.233 12.496,57.341 13.462,46.601C14.496,35.105 9.422,27.403 -1.821,23.394" style="fill:rgb(11,11,11);fill-rule:nonzero;"/>
                </g>
                <g transform="matrix(0.0136601,-0.999907,-0.999907,-0.0136601,46.2696,40.6604)">
                    <path d="M-8.872,-8.841C-13.803,-8.825 -18.094,-4.557 -18.011,0.25C-17.928,5.15 -13.724,9.421 -8.872,9.534C-4.054,9.644 0.205,5.414 0.296,0.446C0.378,-4.045 -3.327,-9.349 -8.872,-8.841" style="fill:rgb(254,206,0);fill-rule:nonzero;"/>
                </g>
            </g>
        </g>
        <g id="Layer-1" serif:id="Layer 1">
        </g>
        <g id="Слой-13" serif:id="Слой 1">
        </g>
        <g id="Padlock">
        </g>
        <g id="Speech-Bubble" serif:id="Speech Bubble">
        </g>
    </g>
</svg>
