<?xml version="1.0" encoding="UTF-8" standalone="no"?>
<!DOCTYPE svg PUBLIC "-//W3C//DTD SVG 1.1//EN" "http://www.w3.org/Graphics/SVG/1.1/DTD/svg11.dtd">
<svg width="100%" height="100%" viewBox="0 0 500 500" version="1.1" xmlns="http://www.w3.org/2000/svg" xmlns:xlink="http://www.w3.org/1999/xlink" xml:space="preserve" xmlns:serif="http://www.serif.com/" style="fill-rule:evenodd;clip-rule:evenodd;stroke-linecap:round;stroke-linejoin:round;stroke-miterlimit:1.5;">
    <g transform="matrix(1,0,0,1,-1062.84,-1081.77)">
        <g id="Artboard1" transform="matrix(1,0,0,1,1062.84,1081.77)">
            <rect x="0" y="0" width="499.999" height="500" style="fill:none;"/>
            <g transform="matrix(1,0,0,1,-11.453,-65.4534)">
                <path d="M85.026,453C68.756,424.533 59.453,391.571 59.453,356.453C59.453,248.83 146.83,161.453 254.453,161.453C362.076,161.453 449.453,248.83 449.453,356.453C449.453,391.571 440.15,424.533 423.88,453L85.026,453Z" style="fill:rgb(220,245,226);"/>
            </g>
            <g id="Background-Complete" serif:id="Background Complete">
            </g>
            <g id="Floor">
            </g>
            <g id="Plant">
            </g>
            <g id="Device">
            </g>
            <g id="Character">
            </g>
            <g transform="matrix(1,0,0,1,11.4675,-68.6996)">
                <path d="M54,456L414,456" style="fill:none;stroke:black;stroke-width:1px;"/>
            </g>
            <g transform="matrix(1,0,0,1,11.4675,-68.6996)">
                <path d="M54,456L414,456" style="fill:none;stroke:black;stroke-width:1px;"/>
            </g>
            <g id="Слой-1" serif:id="Слой 1" transform="matrix(0.254809,0,0,0.254809,127.218,108.086)">
                <g transform="matrix(1.1432,0,0,1.39466,-163.724,82.0779)">
                    <g id="Слой-11" serif:id="Слой 1">
                        <g>
                            <g>
                                <g>
                                    <g>
                                        <g transform="matrix(0,1,1,0,1017.29,336.849)">
                                            <path d="M58.933,-58.933C26.386,-58.933 0,-32.547 0,0C0,32.547 26.386,58.933 58.933,58.933C91.481,58.933 117.866,32.547 117.866,0C117.866,-32.547 91.481,-58.933 58.933,-58.933" style="fill:rgb(172,171,248);fill-rule:nonzero;"/>
                                        </g>
                                        <g transform="matrix(3.43292,0,0,2.81395,-3933.32,-3392.71)">
                                            <text x="1432.21px" y="1349.68px" style="font-family:'LucidaGrande-Bold', 'Lucida Grande', sans-serif;font-weight:600;font-size:14.151px;fill:white;">Rp</text>
                                        </g>
                                        <g transform="matrix(0,1,1,0,549.791,395.513)">
                                            <path d="M68.162,-68.162C30.517,-68.162 -0,-37.645 -0,0C-0,37.646 30.517,68.162 68.162,68.162C105.807,68.162 136.324,37.646 136.324,0C136.324,-37.645 105.807,-68.162 68.162,-68.162" style="fill:rgb(172,171,248);fill-rule:nonzero;"/>
                                        </g>
                                        <g transform="matrix(0,1,1,0,45.9825,236.353)">
                                            <path d="M45.983,-45.983C20.587,-45.983 0.001,-25.396 0.001,-0.001C0.001,25.395 20.587,45.983 45.983,45.983C71.379,45.983 91.965,25.395 91.965,-0.001C91.965,-25.396 71.379,-45.983 45.983,-45.983" style="fill:rgb(172,171,248);fill-rule:nonzero;"/>
                                        </g>
                                        <g transform="matrix(-0.294068,0.955784,0.955784,0.294068,379.929,49.3346)">
                                            <path d="M3.826,-5.18C1.615,-5.18 -0.177,-3.388 -0.176,-1.177C-0.177,1.034 1.616,2.826 3.826,2.825C6.037,2.826 7.829,1.034 7.829,-1.177C7.829,-3.388 6.037,-5.18 3.826,-5.18" style="fill:rgb(172,171,248);fill-rule:nonzero;"/>
                                        </g>
                                        <g transform="matrix(-0.294033,0.955795,0.955795,0.294033,397.633,54.7822)">
                                            <path d="M3.826,-5.18C1.615,-5.18 -0.177,-3.387 -0.177,-1.177C-0.177,1.034 1.615,2.826 3.826,2.826C6.037,2.826 7.829,1.034 7.829,-1.177C7.829,-3.388 6.037,-5.18 3.826,-5.18" style="fill:rgb(172,171,248);fill-rule:nonzero;"/>
                                        </g>
                                        <g transform="matrix(0.955795,0.294033,0.294033,-0.955795,411.07,66.9228)">
                                            <path d="M1.177,-0.177C-1.034,-0.177 -2.826,1.615 -2.825,3.826C-2.825,6.037 -1.034,7.829 1.177,7.829C3.389,7.829 5.18,6.037 5.18,3.826C5.181,1.616 3.388,-0.177 1.177,-0.177" style="fill:rgb(172,171,248);fill-rule:nonzero;"/>
                                        </g>
                                        <g transform="matrix(-0.294068,0.955784,0.955784,0.294068,433.508,65.8199)">
                                            <path d="M3.826,-5.18C1.616,-5.181 -0.177,-3.388 -0.176,-1.177C-0.177,1.033 1.616,2.826 3.826,2.825C6.037,2.825 7.829,1.034 7.829,-1.178C7.829,-3.389 6.037,-5.18 3.826,-5.18" style="fill:rgb(172,171,248);fill-rule:nonzero;"/>
                                        </g>
                                        <g transform="matrix(-0.294068,0.955784,0.955784,0.294068,451.212,71.2672)">
                                            <path d="M3.826,-5.18C1.615,-5.18 -0.177,-3.388 -0.176,-1.177C-0.177,1.034 1.616,2.826 3.826,2.825C6.037,2.826 7.829,1.034 7.829,-1.178C7.829,-3.388 6.037,-5.18 3.826,-5.18" style="fill:rgb(172,171,248);fill-rule:nonzero;"/>
                                        </g>
                                        <g transform="matrix(0.955784,0.294068,0.294068,-0.955784,464.649,83.4076)">
                                            <path d="M1.177,-0.177C-1.034,-0.177 -2.826,1.615 -2.825,3.826C-2.826,6.037 -1.034,7.829 1.177,7.828C3.389,7.828 5.18,6.037 5.18,3.825C5.18,1.615 3.388,-0.177 1.177,-0.177" style="fill:rgb(172,171,248);fill-rule:nonzero;"/>
                                        </g>
                                        <g transform="matrix(-0.294068,0.955784,0.955784,0.294068,486.368,82.0841)">
                                            <path d="M3.826,-5.18C1.615,-5.18 -0.177,-3.388 -0.176,-1.177C-0.177,1.034 1.616,2.826 3.826,2.825C6.037,2.825 7.829,1.034 7.829,-1.178C7.829,-3.388 6.037,-5.18 3.826,-5.18" style="fill:rgb(172,171,248);fill-rule:nonzero;"/>
                                        </g>
                                        <g transform="matrix(-0.294068,0.955784,0.955784,0.294068,504.072,87.5314)">
                                            <path d="M3.826,-5.18C1.615,-5.18 -0.177,-3.387 -0.176,-1.177C-0.177,1.034 1.616,2.826 3.826,2.825C6.038,2.826 7.829,1.034 7.829,-1.178C7.829,-3.388 6.037,-5.18 3.826,-5.18" style="fill:rgb(172,171,248);fill-rule:nonzero;"/>
                                        </g>
                                        <g transform="matrix(0.955795,0.294033,0.294033,-0.955795,517.509,99.6723)">
                                            <path d="M1.177,-0.177C-1.034,-0.177 -2.826,1.615 -2.825,3.826C-2.826,6.037 -1.034,7.829 1.177,7.829C3.389,7.829 5.18,6.037 5.18,3.826C5.181,1.616 3.388,-0.177 1.177,-0.177" style="fill:rgb(172,171,248);fill-rule:nonzero;"/>
                                        </g>
                                        <g transform="matrix(-0.294068,0.955784,0.955784,0.294068,539.947,98.5695)">
                                            <path d="M3.826,-5.18C1.616,-5.181 -0.177,-3.388 -0.176,-1.177C-0.177,1.033 1.615,2.826 3.826,2.825C6.037,2.825 7.829,1.034 7.829,-1.178C7.829,-3.389 6.037,-5.18 3.826,-5.18" style="fill:rgb(172,171,248);fill-rule:nonzero;"/>
                                        </g>
                                        <g transform="matrix(-0.294068,0.955784,0.955784,0.294068,557.651,104.017)">
                                            <path d="M3.826,-5.18C1.616,-5.181 -0.177,-3.388 -0.176,-1.177C-0.177,1.034 1.616,2.826 3.826,2.825C6.037,2.826 7.829,1.034 7.829,-1.178C7.829,-3.389 6.037,-5.18 3.826,-5.18" style="fill:rgb(172,171,248);fill-rule:nonzero;"/>
                                        </g>
                                        <g transform="matrix(0.955784,0.294068,0.294068,-0.955784,571.088,116.157)">
                                            <path d="M1.177,-0.177C-1.034,-0.177 -2.826,1.615 -2.826,3.826C-2.826,6.037 -1.034,7.829 1.177,7.828C3.388,7.828 5.18,6.037 5.18,3.825C5.18,1.615 3.388,-0.177 1.177,-0.177" style="fill:rgb(172,171,248);fill-rule:nonzero;"/>
                                        </g>
                                        <g transform="matrix(-0.294068,0.955784,0.955784,0.294068,593.571,115.069)">
                                            <path d="M3.826,-5.18C1.615,-5.18 -0.177,-3.388 -0.177,-1.177C-0.177,1.034 1.615,2.826 3.826,2.825C6.037,2.825 7.829,1.034 7.829,-1.178C7.829,-3.388 6.037,-5.18 3.826,-5.18" style="fill:rgb(172,171,248);fill-rule:nonzero;"/>
                                        </g>
                                        <g transform="matrix(-0.294033,0.955795,0.955795,0.294033,611.276,120.516)">
                                            <path d="M3.827,-5.18C1.616,-5.18 -0.177,-3.387 -0.176,-1.177C-0.176,1.033 1.616,2.826 3.827,2.825C6.037,2.825 7.83,1.033 7.83,-1.178C7.83,-3.388 6.037,-5.18 3.827,-5.18" style="fill:rgb(172,171,248);fill-rule:nonzero;"/>
                                        </g>
                                        <g transform="matrix(0.955795,0.294033,0.294033,-0.955795,624.712,132.657)">
                                            <path d="M1.177,-0.177C-1.034,-0.177 -2.826,1.615 -2.825,3.826C-2.825,6.037 -1.034,7.829 1.177,7.829C3.389,7.829 5.18,6.037 5.18,3.826C5.181,1.616 3.388,-0.177 1.177,-0.177" style="fill:rgb(172,171,248);fill-rule:nonzero;"/>
                                        </g>
                                        <g transform="matrix(-0.294068,0.955784,0.955784,0.294068,647.15,131.554)">
                                            <path d="M3.826,-5.18C1.615,-5.18 -0.177,-3.388 -0.177,-1.177C-0.177,1.033 1.615,2.826 3.826,2.825C6.037,2.825 7.829,1.034 7.829,-1.178C7.829,-3.389 6.037,-5.18 3.826,-5.18" style="fill:rgb(172,171,248);fill-rule:nonzero;"/>
                                        </g>
                                        <g transform="matrix(-0.294068,0.955784,0.955784,0.294068,664.854,137.002)">
                                            <path d="M3.826,-5.18C1.616,-5.181 -0.177,-3.388 -0.177,-1.177C-0.177,1.034 1.615,2.826 3.826,2.825C6.037,2.825 7.829,1.034 7.829,-1.178C7.829,-3.388 6.037,-5.18 3.826,-5.18" style="fill:rgb(172,171,248);fill-rule:nonzero;"/>
                                        </g>
                                        <g transform="matrix(0.955795,0.294033,0.294033,-0.955795,678.291,149.142)">
                                            <path d="M1.177,-0.177C-1.034,-0.177 -2.826,1.615 -2.826,3.826C-2.826,6.037 -1.034,7.829 1.177,7.829C3.388,7.829 5.18,6.037 5.18,3.826C5.18,1.615 3.388,-0.177 1.177,-0.177" style="fill:rgb(172,171,248);fill-rule:nonzero;"/>
                                        </g>
                                        <g transform="matrix(-0.294033,0.955795,0.955795,0.294033,700.011,147.817)">
                                            <path d="M3.827,-5.181C1.616,-5.18 -0.176,-3.388 -0.176,-1.177C-0.176,1.034 1.616,2.826 3.827,2.825C6.038,2.825 7.83,1.034 7.83,-1.178C7.83,-3.388 6.038,-5.18 3.827,-5.181" style="fill:rgb(172,171,248);fill-rule:nonzero;"/>
                                        </g>
                                        <g transform="matrix(-0.294068,0.955784,0.955784,0.294068,717.715,153.266)">
                                            <path d="M3.826,-5.18C1.615,-5.18 -0.177,-3.388 -0.177,-1.177C-0.177,1.034 1.615,2.826 3.826,2.825C6.037,2.826 7.829,1.034 7.829,-1.178C7.829,-3.389 6.037,-5.18 3.826,-5.18" style="fill:rgb(172,171,248);fill-rule:nonzero;"/>
                                        </g>
                                        <g transform="matrix(0.955795,0.294033,0.294033,-0.955795,731.152,165.406)">
                                            <path d="M1.177,-0.177C-1.034,-0.177 -2.826,1.615 -2.825,3.826C-2.825,6.037 -1.034,7.829 1.177,7.829C3.388,7.829 5.18,6.037 5.18,3.826C5.181,1.616 3.388,-0.177 1.177,-0.177" style="fill:rgb(172,171,248);fill-rule:nonzero;"/>
                                        </g>
                                        <g transform="matrix(-0.294068,0.955784,0.955784,0.294068,753.589,164.304)">
                                            <path d="M3.826,-5.179C1.615,-5.181 -0.177,-3.387 -0.177,-1.178C-0.177,1.033 1.615,2.825 3.826,2.825C6.036,2.826 7.828,1.034 7.829,-1.177C7.829,-3.388 6.036,-5.179 3.826,-5.179" style="fill:rgb(172,171,248);fill-rule:nonzero;"/>
                                        </g>
                                        <g transform="matrix(-0.294033,0.955795,0.955795,0.294033,771.294,169.75)">
                                            <path d="M3.827,-5.181C1.617,-5.181 -0.176,-3.388 -0.176,-1.177C-0.176,1.034 1.616,2.826 3.827,2.825C6.038,2.825 7.83,1.034 7.83,-1.178C7.83,-3.389 6.038,-5.18 3.827,-5.181" style="fill:rgb(172,171,248);fill-rule:nonzero;"/>
                                        </g>
                                        <g transform="matrix(0.955795,0.294033,0.294033,-0.955795,784.731,181.892)">
                                            <path d="M1.177,-0.177C-1.034,-0.177 -2.826,1.615 -2.826,3.826C-2.826,6.037 -1.034,7.829 1.177,7.829C3.388,7.829 5.18,6.037 5.18,3.826C5.18,1.615 3.387,-0.177 1.177,-0.177" style="fill:rgb(172,171,248);fill-rule:nonzero;"/>
                                        </g>
                                        <g transform="matrix(0.806695,0.590968,0.590968,-0.806695,596.103,391.917)">
                                            <path d="M2.366,-0.774C0.155,-0.774 -1.637,1.018 -1.637,3.23C-1.637,5.44 0.155,7.232 2.366,7.232C4.576,7.232 6.368,5.44 6.368,3.23C6.368,1.018 4.576,-0.774 2.366,-0.774" style="fill:rgb(172,171,248);fill-rule:nonzero;"/>
                                        </g>
                                        <g transform="matrix(0.806695,0.590968,0.590968,-0.806695,607.049,376.974)">
                                            <path d="M2.366,-0.774C0.155,-0.774 -1.637,1.018 -1.637,3.23C-1.637,5.44 0.154,7.232 2.366,7.232C4.576,7.232 6.368,5.44 6.369,3.229C6.369,1.019 4.576,-0.774 2.366,-0.774" style="fill:rgb(172,171,248);fill-rule:nonzero;"/>
                                        </g>
                                        <g transform="matrix(0.590968,-0.806695,-0.806695,-0.590968,625.773,359.421)">
                                            <path d="M-3.229,-1.637C-5.44,-1.637 -7.232,0.155 -7.232,2.366C-7.232,4.576 -5.44,6.369 -3.229,6.368C-1.018,6.369 0.774,4.576 0.774,2.365C0.774,0.155 -1.017,-1.637 -3.229,-1.637" style="fill:rgb(172,171,248);fill-rule:nonzero;"/>
                                        </g>
                                        <g transform="matrix(0.806754,0.590887,0.590887,-0.806754,629.23,346.696)">
                                            <path d="M2.365,-0.773C0.154,-0.773 -1.638,1.02 -1.637,3.23C-1.638,5.44 0.155,7.232 2.365,7.232C4.576,7.232 6.368,5.439 6.369,3.23C6.368,1.019 4.575,-0.773 2.365,-0.773" style="fill:rgb(172,171,248);fill-rule:nonzero;"/>
                                        </g>
                                        <g transform="matrix(0.806695,0.590968,0.590968,-0.806695,640.177,331.752)">
                                            <path d="M2.366,-0.774C0.155,-0.773 -1.638,1.019 -1.638,3.229C-1.638,5.439 0.154,7.232 2.366,7.232C4.576,7.232 6.368,5.44 6.368,3.23C6.368,1.018 4.576,-0.774 2.366,-0.774" style="fill:rgb(172,171,248);fill-rule:nonzero;"/>
                                        </g>
                                        <g transform="matrix(0.590968,-0.806695,-0.806695,-0.590968,658.9,314.199)">
                                            <path d="M-3.229,-1.637C-5.439,-1.637 -7.232,0.155 -7.231,2.365C-7.231,4.576 -5.44,6.369 -3.229,6.368C-1.017,6.368 0.774,4.576 0.774,2.365C0.775,0.155 -1.017,-1.637 -3.229,-1.637" style="fill:rgb(172,171,248);fill-rule:nonzero;"/>
                                        </g>
                                        <g transform="matrix(0.806695,0.590968,0.590968,-0.806695,662.386,301.435)">
                                            <path d="M2.366,-0.774C0.155,-0.773 -1.638,1.019 -1.637,3.23C-1.637,5.44 0.155,7.233 2.366,7.232C4.577,7.233 6.369,5.44 6.369,3.23C6.368,1.019 4.577,-0.773 2.366,-0.774" style="fill:rgb(172,171,248);fill-rule:nonzero;"/>
                                        </g>
                                        <g transform="matrix(0.806695,0.590968,0.590968,-0.806695,673.332,286.492)">
                                            <path d="M2.366,-0.774C0.155,-0.773 -1.638,1.019 -1.637,3.23C-1.637,5.44 0.155,7.233 2.366,7.232C4.577,7.233 6.369,5.44 6.369,3.23C6.369,1.02 4.576,-0.774 2.366,-0.774" style="fill:rgb(172,171,248);fill-rule:nonzero;"/>
                                        </g>
                                        <g transform="matrix(0.590968,-0.806695,-0.806695,-0.590968,692.056,268.938)">
                                            <path d="M-3.229,-1.637C-5.441,-1.637 -7.232,0.155 -7.232,2.366C-7.232,4.576 -5.441,6.368 -3.229,6.368C-1.019,6.368 0.774,4.576 0.774,2.365C0.774,0.155 -1.018,-1.638 -3.229,-1.637" style="fill:rgb(172,171,248);fill-rule:nonzero;"/>
                                        </g>
                                        <g transform="matrix(0.806754,0.590887,0.590887,-0.806754,695.514,256.213)">
                                            <path d="M2.365,-0.773C0.155,-0.773 -1.638,1.019 -1.637,3.23C-1.637,5.441 0.154,7.232 2.365,7.231C4.577,7.233 6.368,5.439 6.368,3.23C6.368,1.018 4.576,-0.774 2.365,-0.773" style="fill:rgb(172,171,248);fill-rule:nonzero;"/>
                                        </g>
                                        <g transform="matrix(0.806695,0.590968,0.590968,-0.806695,706.46,241.27)">
                                            <path d="M2.366,-0.774C0.155,-0.774 -1.637,1.018 -1.637,3.23C-1.637,5.44 0.155,7.232 2.366,7.232C4.576,7.232 6.368,5.44 6.369,3.229C6.368,1.018 4.576,-0.774 2.366,-0.774" style="fill:rgb(172,171,248);fill-rule:nonzero;"/>
                                        </g>
                                        <g transform="matrix(0.590968,-0.806695,-0.806695,-0.590968,725.184,223.717)">
                                            <path d="M-3.229,-1.637C-5.44,-1.637 -7.232,0.155 -7.232,2.366C-7.232,4.576 -5.44,6.369 -3.229,6.368C-1.017,6.368 0.774,4.576 0.774,2.366C0.773,0.155 -1.018,-1.638 -3.229,-1.637" style="fill:rgb(172,171,248);fill-rule:nonzero;"/>
                                        </g>
                                        <g transform="matrix(0.806754,0.590887,0.590887,-0.806754,728.197,211.598)">
                                            <path d="M2.365,-0.773C0.155,-0.772 -1.638,1.02 -1.637,3.23C-1.638,5.44 0.155,7.232 2.365,7.232C4.576,7.232 6.368,5.439 6.369,3.23C6.368,1.019 4.575,-0.773 2.365,-0.773" style="fill:rgb(172,171,248);fill-rule:nonzero;"/>
                                        </g>
                                        <g transform="matrix(0.806695,0.590968,0.590968,-0.806695,739.144,196.655)">
                                            <path d="M2.366,-0.774C0.155,-0.773 -1.638,1.019 -1.638,3.229C-1.638,5.439 0.154,7.232 2.366,7.232C4.577,7.233 6.369,5.44 6.369,3.23C6.369,1.018 4.576,-0.774 2.366,-0.774" style="fill:rgb(172,171,248);fill-rule:nonzero;"/>
                                        </g>
                                        <g transform="matrix(0.591028,-0.806651,-0.806651,-0.591028,757.867,179.102)">
                                            <path d="M-3.229,-1.637C-5.439,-1.638 -7.231,0.155 -7.232,2.365C-7.231,4.576 -5.44,6.368 -3.229,6.368C-1.018,6.368 0.774,4.576 0.774,2.366C0.774,0.155 -1.018,-1.637 -3.229,-1.637" style="fill:rgb(172,171,248);fill-rule:nonzero;"/>
                                        </g>
                                        <g transform="matrix(0.806695,0.590968,0.590968,-0.806695,761.325,166.375)">
                                            <path d="M2.366,-0.774C0.155,-0.774 -1.637,1.018 -1.637,3.23C-1.637,5.44 0.155,7.232 2.366,7.232C4.576,7.232 6.368,5.44 6.37,3.229C6.369,1.019 4.576,-0.774 2.366,-0.774" style="fill:rgb(172,171,248);fill-rule:nonzero;"/>
                                        </g>
                                        <g transform="matrix(0.806754,0.590887,0.590887,-0.806754,772.272,151.433)">
                                            <path d="M2.365,-0.773C0.155,-0.773 -1.638,1.019 -1.638,3.23C-1.638,5.44 0.154,7.232 2.365,7.231C4.576,7.232 6.368,5.439 6.368,3.228C6.368,1.018 4.576,-0.774 2.365,-0.773" style="fill:rgb(172,171,248);fill-rule:nonzero;"/>
                                        </g>
                                        <g transform="matrix(0.590968,-0.806695,-0.806695,-0.590968,790.995,133.879)">
                                            <path d="M-3.229,-1.637C-5.439,-1.637 -7.232,0.155 -7.232,2.366C-7.232,4.576 -5.44,6.369 -3.229,6.368C-1.017,6.368 0.774,4.576 0.774,2.365C0.774,0.155 -1.018,-1.638 -3.229,-1.637" style="fill:rgb(172,171,248);fill-rule:nonzero;"/>
                                        </g>
                                        <g transform="matrix(0.161765,0.986829,0.986829,-0.161765,633.355,452.228)">
                                            <path d="M3.951,-3.355C1.74,-3.355 -0.052,-1.563 -0.052,0.648C-0.053,2.858 1.74,4.651 3.951,4.65C6.161,4.651 7.954,2.858 7.953,0.648C7.954,-1.563 6.161,-3.356 3.951,-3.355" style="fill:rgb(172,171,248);fill-rule:nonzero;"/>
                                        </g>
                                        <g transform="matrix(0.161765,0.986829,0.986829,-0.161765,651.635,449.231)">
                                            <path d="M3.951,-3.356C1.74,-3.356 -0.052,-1.564 -0.052,0.647C-0.052,2.857 1.74,4.65 3.951,4.649C6.162,4.651 7.954,2.857 7.954,0.647C7.953,-1.564 6.162,-3.356 3.951,-3.356" style="fill:rgb(172,171,248);fill-rule:nonzero;"/>
                                        </g>
                                        <g transform="matrix(0.986829,-0.161765,-0.161765,-0.986829,672.711,453.783)">
                                            <path d="M-0.648,-0.053C-2.859,-0.052 -4.65,1.739 -4.651,3.951C-4.65,6.161 -2.859,7.953 -0.648,7.953C1.564,7.953 3.355,6.162 3.356,3.95C3.355,1.74 1.564,-0.052 -0.648,-0.053" style="fill:rgb(172,171,248);fill-rule:nonzero;"/>
                                        </g>
                                        <g transform="matrix(0.161765,0.986829,0.986829,-0.161765,688.675,443.16)">
                                            <path d="M3.95,-3.356C1.74,-3.356 -0.053,-1.564 -0.053,0.647C-0.053,2.857 1.739,4.65 3.95,4.649C6.161,4.65 7.953,2.857 7.953,0.647C7.954,-1.564 6.161,-3.357 3.95,-3.356" style="fill:rgb(172,171,248);fill-rule:nonzero;"/>
                                        </g>
                                        <g transform="matrix(0.161765,0.986829,0.986829,-0.161765,706.953,440.163)">
                                            <path d="M3.951,-3.355C1.74,-3.355 -0.052,-1.563 -0.052,0.648C-0.053,2.858 1.74,4.651 3.951,4.65C6.161,4.651 7.954,2.858 7.953,0.648C7.954,-1.563 6.162,-3.356 3.951,-3.355" style="fill:rgb(172,171,248);fill-rule:nonzero;"/>
                                        </g>
                                        <g transform="matrix(0.986849,-0.161643,-0.161643,-0.986849,728.028,444.715)">
                                            <path d="M-0.647,-0.053C-2.858,-0.053 -4.649,1.739 -4.65,3.95C-4.65,6.16 -2.859,7.952 -0.647,7.953C1.564,7.953 3.355,6.161 3.357,3.951C3.356,1.74 1.564,-0.053 -0.647,-0.053" style="fill:rgb(172,171,248);fill-rule:nonzero;"/>
                                        </g>
                                        <g transform="matrix(0.161765,0.986829,0.986829,-0.161765,744.041,434.084)">
                                            <path d="M3.951,-3.356C1.74,-3.356 -0.052,-1.564 -0.052,0.647C-0.052,2.857 1.74,4.65 3.951,4.649C6.162,4.651 7.954,2.857 7.954,0.648C7.954,-1.563 6.162,-3.356 3.951,-3.356" style="fill:rgb(172,171,248);fill-rule:nonzero;"/>
                                        </g>
                                        <g transform="matrix(0.161765,0.986829,0.986829,-0.161765,762.32,431.087)">
                                            <path d="M3.951,-3.356C1.74,-3.355 -0.051,-1.564 -0.052,0.648C-0.052,2.858 1.74,4.65 3.951,4.65C6.162,4.651 7.954,2.858 7.955,0.647C7.954,-1.564 6.162,-3.355 3.951,-3.356" style="fill:rgb(172,171,248);fill-rule:nonzero;"/>
                                        </g>
                                        <g transform="matrix(0.986829,-0.161765,-0.161765,-0.986829,783.396,435.639)">
                                            <path d="M-0.648,-0.053C-2.859,-0.052 -4.65,1.739 -4.651,3.951C-4.65,6.161 -2.859,7.953 -0.648,7.953C1.564,7.953 3.355,6.161 3.356,3.95C3.355,1.739 1.563,-0.053 -0.648,-0.053" style="fill:rgb(172,171,248);fill-rule:nonzero;"/>
                                        </g>
                                        <g transform="matrix(0.161765,0.986829,0.986829,-0.161765,799.36,425.016)">
                                            <path d="M3.951,-3.355C1.74,-3.355 -0.052,-1.563 -0.052,0.648C-0.053,2.858 1.74,4.651 3.951,4.65C6.162,4.65 7.954,2.858 7.954,0.648C7.954,-1.563 6.162,-3.356 3.951,-3.355" style="fill:rgb(172,171,248);fill-rule:nonzero;"/>
                                        </g>
                                        <g transform="matrix(0.161765,0.986829,0.986829,-0.161765,817.639,422.02)">
                                            <path d="M3.95,-3.356C1.739,-3.355 -0.052,-1.564 -0.053,0.648C-0.052,2.858 1.739,4.65 3.95,4.65C6.162,4.65 7.953,2.858 7.954,0.647C7.953,-1.564 6.161,-3.356 3.95,-3.356" style="fill:rgb(172,171,248);fill-rule:nonzero;"/>
                                        </g>
                                        <g transform="matrix(0.986829,-0.161765,-0.161765,-0.986829,838.716,426.571)">
                                            <path d="M-0.648,-0.053C-2.859,-0.052 -4.65,1.739 -4.651,3.951C-4.651,6.161 -2.859,7.953 -0.648,7.953C1.564,7.953 3.354,6.161 3.356,3.95C3.355,1.739 1.564,-0.052 -0.648,-0.053" style="fill:rgb(172,171,248);fill-rule:nonzero;"/>
                                        </g>
                                        <g transform="matrix(0.161765,0.986829,0.986829,-0.161765,853.939,416.07)">
                                            <path d="M3.95,-3.356C1.739,-3.355 -0.053,-1.564 -0.053,0.647C-0.053,2.857 1.739,4.65 3.95,4.649C6.161,4.65 7.953,2.857 7.953,0.647C7.954,-1.564 6.161,-3.357 3.95,-3.356" style="fill:rgb(172,171,248);fill-rule:nonzero;"/>
                                        </g>
                                        <g transform="matrix(0.161765,0.986829,0.986829,-0.161765,872.217,413.073)">
                                            <path d="M3.951,-3.355C1.74,-3.355 -0.052,-1.563 -0.052,0.648C-0.053,2.858 1.74,4.651 3.951,4.65C6.162,4.65 7.954,2.858 7.954,0.648C7.954,-1.563 6.162,-3.356 3.951,-3.355" style="fill:rgb(172,171,248);fill-rule:nonzero;"/>
                                        </g>
                                        <g transform="matrix(0.986829,-0.161765,-0.161765,-0.986829,893.293,417.625)">
                                            <path d="M-0.647,-0.053C-2.859,-0.053 -4.65,1.739 -4.651,3.95C-4.65,6.161 -2.859,7.952 -0.647,7.953C1.564,7.953 3.355,6.161 3.356,3.95C3.355,1.739 1.564,-0.053 -0.647,-0.053" style="fill:rgb(172,171,248);fill-rule:nonzero;"/>
                                        </g>
                                        <g transform="matrix(0.161765,0.986829,0.986829,-0.161765,909.258,407.003)">
                                            <path d="M3.95,-3.356C1.738,-3.356 -0.053,-1.564 -0.054,0.647C-0.053,2.858 1.738,4.649 3.95,4.65C6.161,4.65 7.952,2.857 7.953,0.647C7.953,-1.565 6.161,-3.356 3.95,-3.356" style="fill:rgb(172,171,248);fill-rule:nonzero;"/>
                                        </g>
                                        <g transform="matrix(0.161765,0.986829,0.986829,-0.161765,927.537,404.006)">
                                            <path d="M3.95,-3.356C1.739,-3.356 -0.053,-1.564 -0.054,0.647C-0.053,2.857 1.738,4.649 3.95,4.65C6.161,4.65 7.952,2.858 7.953,0.647C7.953,-1.564 6.161,-3.356 3.95,-3.356" style="fill:rgb(172,171,248);fill-rule:nonzero;"/>
                                        </g>
                                        <g transform="matrix(0.986829,-0.161765,-0.161765,-0.986829,948.612,408.557)">
                                            <path d="M-0.648,-0.053C-2.859,-0.052 -4.649,1.739 -4.651,3.951C-4.65,6.161 -2.859,7.952 -0.648,7.953C1.564,7.953 3.355,6.161 3.356,3.95C3.355,1.739 1.563,-0.053 -0.648,-0.053" style="fill:rgb(172,171,248);fill-rule:nonzero;"/>
                                        </g>
                                        <g transform="matrix(0.952497,-0.304549,-0.304549,-0.952497,526.571,383.1)">
                                            <path d="M-1.219,-0.19C-3.429,-0.19 -5.221,1.602 -5.221,3.813C-5.222,6.024 -3.43,7.816 -1.219,7.815C0.992,7.816 2.784,6.023 2.784,3.813C2.785,1.602 0.992,-0.19 -1.219,-0.19" style="fill:rgb(172,171,248);fill-rule:nonzero;"/>
                                        </g>
                                        <g transform="matrix(0.952508,-0.304513,-0.304513,-0.952508,520.93,365.457)">
                                            <path d="M-1.219,-0.19C-3.429,-0.19 -5.221,1.602 -5.221,3.813C-5.221,6.024 -3.429,7.816 -1.219,7.816C0.992,7.816 2.784,6.024 2.785,3.813C2.785,1.602 0.992,-0.19 -1.219,-0.19" style="fill:rgb(172,171,248);fill-rule:nonzero;"/>
                                        </g>
                                        <g transform="matrix(-0.304513,-0.952508,-0.952508,0.304513,510.572,341.059)">
                                            <path d="M-3.813,-5.222C-6.024,-5.222 -7.815,-3.43 -7.816,-1.219C-7.816,0.992 -6.023,2.784 -3.813,2.784C-1.602,2.784 0.19,0.992 0.19,-1.219C0.19,-3.429 -1.602,-5.221 -3.813,-5.222" style="fill:rgb(172,171,248);fill-rule:nonzero;"/>
                                        </g>
                                        <g transform="matrix(0.952497,-0.304549,-0.304549,-0.952497,509.502,329.705)">
                                            <path d="M-1.219,-0.19C-3.43,-0.19 -5.222,1.602 -5.222,3.813C-5.222,6.024 -3.43,7.816 -1.219,7.815C0.992,7.816 2.783,6.023 2.784,3.813C2.784,1.602 0.991,-0.19 -1.219,-0.19" style="fill:rgb(172,171,248);fill-rule:nonzero;"/>
                                        </g>
                                        <g transform="matrix(0.952497,-0.304549,-0.304549,-0.952497,503.861,312.061)">
                                            <path d="M-1.219,-0.19C-3.429,-0.19 -5.222,1.602 -5.222,3.813C-5.222,6.024 -3.43,7.816 -1.219,7.815C0.992,7.816 2.784,6.024 2.784,3.813C2.784,1.602 0.991,-0.19 -1.219,-0.19" style="fill:rgb(172,171,248);fill-rule:nonzero;"/>
                                        </g>
                                        <g transform="matrix(-0.304549,-0.952497,-0.952497,0.304549,493.502,287.664)">
                                            <path d="M-3.813,-5.222C-6.024,-5.222 -7.815,-3.43 -7.815,-1.218C-7.815,0.992 -6.022,2.784 -3.813,2.784C-1.601,2.784 0.19,0.993 0.19,-1.22C0.19,-3.43 -1.602,-5.222 -3.813,-5.222" style="fill:rgb(172,171,248);fill-rule:nonzero;"/>
                                        </g>
                                        <g transform="matrix(0.952497,-0.304549,-0.304549,-0.952497,492.417,276.264)">
                                            <path d="M-1.219,-0.19C-3.429,-0.19 -5.221,1.602 -5.221,3.813C-5.221,6.024 -3.429,7.816 -1.219,7.815C0.992,7.816 2.784,6.023 2.785,3.813C2.785,1.602 0.992,-0.19 -1.219,-0.19" style="fill:rgb(172,171,248);fill-rule:nonzero;"/>
                                        </g>
                                        <g transform="matrix(0.952497,-0.304549,-0.304549,-0.952497,486.777,258.62)">
                                            <path d="M-1.219,-0.19C-3.43,-0.19 -5.222,1.602 -5.222,3.813C-5.222,6.024 -3.43,7.816 -1.219,7.815C0.991,7.816 2.784,6.024 2.784,3.813C2.784,1.602 0.991,-0.19 -1.219,-0.19" style="fill:rgb(172,171,248);fill-rule:nonzero;"/>
                                        </g>
                                        <g transform="matrix(-0.304513,-0.952508,-0.952508,0.304513,476.418,234.223)">
                                            <path d="M-3.813,-5.222C-6.024,-5.222 -7.815,-3.43 -7.816,-1.219C-7.816,0.991 -6.024,2.783 -3.813,2.784C-1.602,2.784 0.189,0.992 0.19,-1.219C0.19,-3.43 -1.603,-5.221 -3.813,-5.222" style="fill:rgb(172,171,248);fill-rule:nonzero;"/>
                                        </g>
                                        <g transform="matrix(0.952497,-0.304549,-0.304549,-0.952497,475.347,222.868)">
                                            <path d="M-1.219,-0.19C-3.429,-0.19 -5.221,1.602 -5.222,3.813C-5.222,6.024 -3.43,7.815 -1.219,7.815C0.992,7.815 2.783,6.023 2.784,3.813C2.784,1.602 0.991,-0.19 -1.219,-0.19" style="fill:rgb(172,171,248);fill-rule:nonzero;"/>
                                        </g>
                                        <g transform="matrix(0.952497,-0.304549,-0.304549,-0.952497,469.707,205.225)">
                                            <path d="M-1.219,-0.19C-3.429,-0.19 -5.221,1.602 -5.221,3.813C-5.222,6.024 -3.43,7.817 -1.219,7.815C0.992,7.816 2.784,6.023 2.784,3.813C2.785,1.602 0.991,-0.19 -1.219,-0.19" style="fill:rgb(172,171,248);fill-rule:nonzero;"/>
                                        </g>
                                        <g transform="matrix(-0.304549,-0.952497,-0.952497,0.304549,459.348,180.828)">
                                            <path d="M-3.813,-5.222C-6.024,-5.222 -7.816,-3.43 -7.815,-1.218C-7.815,0.992 -6.023,2.784 -3.813,2.784C-1.601,2.784 0.19,0.992 0.19,-1.22C0.19,-3.43 -1.603,-5.222 -3.813,-5.222" style="fill:rgb(172,171,248);fill-rule:nonzero;"/>
                                        </g>
                                        <g transform="matrix(0.952508,-0.304513,-0.304513,-0.952508,458.507,170.189)">
                                            <path d="M-1.219,-0.19C-3.43,-0.19 -5.221,1.602 -5.222,3.813C-5.222,6.024 -3.43,7.816 -1.219,7.816C0.992,7.816 2.784,6.024 2.784,3.813C2.784,1.602 0.991,-0.19 -1.219,-0.19" style="fill:rgb(172,171,248);fill-rule:nonzero;"/>
                                        </g>
                                        <g transform="matrix(0.952497,-0.304549,-0.304549,-0.952497,452.866,152.545)">
                                            <path d="M-1.219,-0.19C-3.429,-0.19 -5.222,1.602 -5.222,3.813C-5.222,6.024 -3.43,7.816 -1.219,7.815C0.992,7.816 2.784,6.023 2.784,3.813C2.784,1.602 0.991,-0.19 -1.219,-0.19" style="fill:rgb(172,171,248);fill-rule:nonzero;"/>
                                        </g>
                                        <g transform="matrix(-0.304549,-0.952497,-0.952497,0.304549,442.507,128.149)">
                                            <path d="M-3.813,-5.222C-6.023,-5.223 -7.815,-3.43 -7.815,-1.218C-7.815,0.992 -6.022,2.784 -3.813,2.784C-1.601,2.784 0.191,0.992 0.19,-1.22C0.19,-3.43 -1.602,-5.222 -3.813,-5.222" style="fill:rgb(172,171,248);fill-rule:nonzero;"/>
                                        </g>
                                        <g transform="matrix(0.952508,-0.304513,-0.304513,-0.952508,441.436,116.794)">
                                            <path d="M-1.219,-0.19C-3.429,-0.19 -5.221,1.602 -5.221,3.813C-5.222,6.024 -3.429,7.816 -1.219,7.816C0.992,7.816 2.784,6.024 2.784,3.813C2.785,1.602 0.992,-0.19 -1.219,-0.19" style="fill:rgb(172,171,248);fill-rule:nonzero;"/>
                                        </g>
                                        <g transform="matrix(0.952497,-0.304549,-0.304549,-0.952497,435.796,99.1497)">
                                            <path d="M-1.219,-0.19C-3.429,-0.19 -5.221,1.602 -5.221,3.813C-5.221,6.024 -3.429,7.815 -1.219,7.815C0.992,7.815 2.784,6.023 2.785,3.813C2.785,1.602 0.992,-0.19 -1.219,-0.19" style="fill:rgb(172,171,248);fill-rule:nonzero;"/>
                                        </g>
                                        <g transform="matrix(-0.304513,-0.952508,-0.952508,0.304513,425.437,74.7528)">
                                            <path d="M-3.813,-5.222C-6.023,-5.222 -7.815,-3.43 -7.816,-1.219C-7.816,0.992 -6.023,2.784 -3.813,2.784C-1.602,2.784 0.19,0.992 0.19,-1.219C0.19,-3.43 -1.602,-5.221 -3.813,-5.222" style="fill:rgb(172,171,248);fill-rule:nonzero;"/>
                                        </g>
                                        <g transform="matrix(0.56806,0.822987,0.822987,-0.56806,71.1405,256.195)">
                                            <path d="M3.294,-1.729C1.084,-1.729 -0.708,0.063 -0.708,2.274C-0.708,4.485 1.084,6.277 3.294,6.277C5.505,6.277 7.298,4.485 7.298,2.273C7.297,0.063 5.505,-1.729 3.294,-1.729" style="fill:rgb(172,171,248);fill-rule:nonzero;"/>
                                        </g>
                                        <g transform="matrix(0.568118,0.822947,0.822947,-0.568118,86.3852,245.673)">
                                            <path d="M3.294,-1.729C1.083,-1.728 -0.708,0.064 -0.708,2.275C-0.708,4.485 1.084,6.277 3.294,6.277C5.504,6.277 7.298,4.485 7.298,2.273C7.296,0.063 5.504,-1.728 3.294,-1.729" style="fill:rgb(172,171,248);fill-rule:nonzero;"/>
                                        </g>
                                        <g transform="matrix(0.822947,-0.568118,-0.568118,-0.822947,109.316,237.85)">
                                            <path d="M-2.274,-0.709C-4.485,-0.709 -6.277,1.083 -6.277,3.294C-6.276,5.505 -4.484,7.297 -2.274,7.296C-0.064,7.297 1.729,5.504 1.729,3.294C1.728,1.084 -0.064,-0.71 -2.274,-0.709" style="fill:rgb(172,171,248);fill-rule:nonzero;"/>
                                        </g>
                                        <g transform="matrix(0.568118,0.822947,0.822947,-0.568118,117.276,224.352)">
                                            <path d="M3.294,-1.729C1.084,-1.729 -0.708,0.064 -0.708,2.275C-0.708,4.485 1.084,6.276 3.294,6.277C5.504,6.277 7.297,4.484 7.297,2.273C7.296,0.063 5.504,-1.728 3.294,-1.729" style="fill:rgb(172,171,248);fill-rule:nonzero;"/>
                                        </g>
                                        <g transform="matrix(0.567975,0.823046,0.823046,-0.567975,132.52,213.829)">
                                            <path d="M3.295,-1.729C1.084,-1.73 -0.708,0.062 -0.708,2.274C-0.709,4.484 1.084,6.277 3.295,6.277C5.505,6.277 7.298,4.485 7.298,2.274C7.298,0.064 5.505,-1.729 3.295,-1.729" style="fill:rgb(172,171,248);fill-rule:nonzero;"/>
                                        </g>
                                        <g transform="matrix(0.822947,-0.568118,-0.568118,-0.822947,155.451,206.007)">
                                            <path d="M-2.274,-0.709C-4.484,-0.709 -6.276,1.084 -6.276,3.295C-6.276,5.505 -4.484,7.297 -2.274,7.297C-0.064,7.297 1.729,5.504 1.73,3.293C1.729,1.084 -0.064,-0.708 -2.274,-0.709" style="fill:rgb(172,171,248);fill-rule:nonzero;"/>
                                        </g>
                                        <g transform="matrix(0.56806,0.822987,0.822987,-0.56806,163.45,192.481)">
                                            <path d="M3.294,-1.729C1.084,-1.729 -0.708,0.063 -0.708,2.274C-0.708,4.485 1.084,6.277 3.294,6.277C5.506,6.277 7.298,4.485 7.298,2.273C7.297,0.063 5.505,-1.729 3.294,-1.729" style="fill:rgb(172,171,248);fill-rule:nonzero;"/>
                                        </g>
                                        <g transform="matrix(0.567975,0.823046,0.823046,-0.567975,178.696,181.958)">
                                            <path d="M3.294,-1.729C1.084,-1.73 -0.708,0.062 -0.708,2.273C-0.709,4.484 1.083,6.276 3.294,6.276C5.505,6.277 7.297,4.485 7.297,2.274C7.297,0.062 5.506,-1.729 3.294,-1.729" style="fill:rgb(172,171,248);fill-rule:nonzero;"/>
                                        </g>
                                        <g transform="matrix(0.823046,-0.567975,-0.567975,-0.823046,201.625,174.138)">
                                            <path d="M-2.273,-0.708C-4.484,-0.709 -6.276,1.083 -6.275,3.294C-6.276,5.505 -4.484,7.297 -2.273,7.298C-0.063,7.298 1.73,5.506 1.729,3.295C1.73,1.084 -0.062,-0.708 -2.273,-0.708" style="fill:rgb(172,171,248);fill-rule:nonzero;"/>
                                        </g>
                                        <g transform="matrix(0.56806,0.822987,0.822987,-0.56806,209.586,160.638)">
                                            <path d="M3.294,-1.729C1.084,-1.729 -0.709,0.062 -0.708,2.275C-0.708,4.485 1.084,6.277 3.294,6.278C5.504,6.277 7.298,4.485 7.297,2.273C7.296,0.063 5.505,-1.728 3.294,-1.729" style="fill:rgb(172,171,248);fill-rule:nonzero;"/>
                                        </g>
                                        <g transform="matrix(0.567975,0.823046,0.823046,-0.567975,224.83,150.115)">
                                            <path d="M3.295,-1.729C1.084,-1.73 -0.708,0.062 -0.708,2.274C-0.709,4.484 1.084,6.277 3.295,6.277C5.505,6.277 7.298,4.485 7.298,2.274C7.298,0.064 5.505,-1.729 3.295,-1.729" style="fill:rgb(172,171,248);fill-rule:nonzero;"/>
                                        </g>
                                        <g transform="matrix(0.822947,-0.568118,-0.568118,-0.822947,247.761,142.293)">
                                            <path d="M-2.274,-0.709C-4.484,-0.709 -6.276,1.084 -6.276,3.295C-6.276,5.505 -4.484,7.297 -2.274,7.297C-0.064,7.297 1.73,5.505 1.73,3.293C1.729,1.084 -0.064,-0.709 -2.274,-0.709" style="fill:rgb(172,171,248);fill-rule:nonzero;"/>
                                        </g>
                                        <g transform="matrix(0.568118,0.822947,0.822947,-0.568118,255.102,129.222)">
                                            <path d="M3.294,-1.729C1.084,-1.729 -0.708,0.064 -0.709,2.274C-0.708,4.485 1.084,6.277 3.294,6.277C5.504,6.277 7.297,4.484 7.298,2.273C7.296,0.063 5.504,-1.728 3.294,-1.729" style="fill:rgb(172,171,248);fill-rule:nonzero;"/>
                                        </g>
                                        <g transform="matrix(0.567975,0.823046,0.823046,-0.567975,270.347,118.698)">
                                            <path d="M3.295,-1.729C1.084,-1.73 -0.708,0.062 -0.708,2.274C-0.709,4.484 1.084,6.277 3.295,6.277C5.505,6.277 7.298,4.485 7.298,2.274C7.298,0.064 5.506,-1.729 3.295,-1.729" style="fill:rgb(172,171,248);fill-rule:nonzero;"/>
                                        </g>
                                        <g transform="matrix(0.822947,-0.568118,-0.568118,-0.822947,293.277,110.877)">
                                            <path d="M-2.274,-0.709C-4.484,-0.709 -6.276,1.084 -6.276,3.295C-6.276,5.505 -4.484,7.297 -2.274,7.297C-0.064,7.297 1.729,5.504 1.73,3.293C1.729,1.084 -0.064,-0.709 -2.274,-0.709" style="fill:rgb(172,171,248);fill-rule:nonzero;"/>
                                        </g>
                                        <g transform="matrix(0.56806,0.822987,0.822987,-0.56806,301.237,97.3777)">
                                            <path d="M3.294,-1.729C1.083,-1.729 -0.708,0.063 -0.708,2.274C-0.708,4.485 1.084,6.277 3.294,6.277C5.505,6.277 7.298,4.485 7.298,2.273C7.297,0.063 5.505,-1.729 3.294,-1.729" style="fill:rgb(172,171,248);fill-rule:nonzero;"/>
                                        </g>
                                        <g transform="matrix(0.567917,0.823086,0.823086,-0.567917,316.482,86.8543)">
                                            <path d="M3.295,-1.73C1.085,-1.729 -0.707,0.063 -0.708,2.273C-0.708,4.484 1.084,6.276 3.295,6.277C5.505,6.277 7.298,4.486 7.298,2.274C7.298,0.064 5.506,-1.729 3.295,-1.73" style="fill:rgb(172,171,248);fill-rule:nonzero;"/>
                                        </g>
                                        <g transform="matrix(0.823005,-0.568034,-0.568034,-0.823005,339.412,79.0343)">
                                            <path d="M-2.273,-0.708C-4.484,-0.709 -6.276,1.083 -6.276,3.295C-6.276,5.505 -4.484,7.297 -2.274,7.296C-0.063,7.297 1.73,5.505 1.73,3.294C1.729,1.084 -0.063,-0.708 -2.273,-0.708" style="fill:rgb(172,171,248);fill-rule:nonzero;"/>
                                        </g>
                                        <g transform="matrix(-0.722058,0.691832,0.691832,0.722058,843.709,208.207)">
                                            <path d="M2.769,-6.894C0.558,-6.894 -1.234,-5.102 -1.233,-2.891C-1.233,-0.68 0.558,1.111 2.769,1.112C4.981,1.112 6.772,-0.681 6.772,-2.891C6.771,-5.102 4.98,-6.894 2.769,-6.894" style="fill:rgb(172,171,248);fill-rule:nonzero;"/>
                                        </g>
                                        <g transform="matrix(-0.722058,0.691832,0.691832,0.722058,856.523,221.582)">
                                            <path d="M2.769,-6.894C0.559,-6.893 -1.234,-5.101 -1.234,-2.891C-1.234,-0.68 0.559,1.112 2.769,1.113C4.98,1.112 6.773,-0.68 6.773,-2.891C6.772,-5.101 4.98,-6.894 2.769,-6.894" style="fill:rgb(172,171,248);fill-rule:nonzero;"/>
                                        </g>
                                        <g transform="matrix(0.691895,0.721999,0.721999,-0.691895,861.508,234.791)">
                                            <path d="M2.89,-1.233C0.679,-1.234 -1.113,0.559 -1.113,2.77C-1.112,4.98 0.679,6.772 2.89,6.772C5.102,6.772 6.894,4.98 6.893,2.769C6.892,0.558 5.1,-1.234 2.89,-1.233" style="fill:rgb(172,171,248);fill-rule:nonzero;"/>
                                        </g>
                                        <g transform="matrix(-0.722058,0.691832,0.691832,0.722058,882.49,248.684)">
                                            <path d="M2.769,-6.894C0.559,-6.893 -1.234,-5.101 -1.234,-2.891C-1.234,-0.68 0.559,1.112 2.769,1.113C4.98,1.112 6.773,-0.68 6.773,-2.891C6.772,-5.101 4.98,-6.894 2.769,-6.894" style="fill:rgb(172,171,248);fill-rule:nonzero;"/>
                                        </g>
                                        <g transform="matrix(-0.722121,0.691767,0.691767,0.722121,895.303,262.06)">
                                            <path d="M2.768,-6.892C0.558,-6.893 -1.234,-5.1 -1.234,-2.89C-1.234,-0.68 0.557,1.113 2.768,1.113C4.979,1.113 6.771,-0.678 6.771,-2.889C6.771,-5.1 4.979,-6.893 2.768,-6.892" style="fill:rgb(172,171,248);fill-rule:nonzero;"/>
                                        </g>
                                        <g transform="matrix(0.691895,0.721999,0.721999,-0.691895,900.29,275.269)">
                                            <path d="M2.89,-1.234C0.679,-1.233 -1.113,0.558 -1.113,2.77C-1.112,4.98 0.68,6.772 2.89,6.772C5.102,6.772 6.894,4.979 6.893,2.768C6.892,0.557 5.1,-1.234 2.89,-1.234" style="fill:rgb(172,171,248);fill-rule:nonzero;"/>
                                        </g>
                                        <g transform="matrix(-0.722058,0.691832,0.691832,0.722058,921.305,289.197)">
                                            <path d="M2.769,-6.894C0.558,-6.894 -1.234,-5.102 -1.234,-2.891C-1.233,-0.68 0.558,1.111 2.769,1.112C4.981,1.112 6.772,-0.681 6.772,-2.891C6.771,-5.102 4.98,-6.894 2.769,-6.894" style="fill:rgb(172,171,248);fill-rule:nonzero;"/>
                                        </g>
                                        <g transform="matrix(-0.722058,0.691832,0.691832,0.722058,934.119,302.572)">
                                            <path d="M2.769,-6.894C0.559,-6.893 -1.234,-5.101 -1.234,-2.891C-1.234,-0.68 0.558,1.113 2.769,1.113C4.98,1.112 6.773,-0.68 6.773,-2.891C6.772,-5.101 4.98,-6.894 2.769,-6.894" style="fill:rgb(172,171,248);fill-rule:nonzero;"/>
                                        </g>
                                        <g transform="matrix(0.691895,0.721999,0.721999,-0.691895,939.104,315.781)">
                                            <path d="M2.89,-1.234C0.68,-1.233 -1.113,0.558 -1.113,2.77C-1.112,4.98 0.68,6.772 2.89,6.772C5.102,6.772 6.894,4.979 6.893,2.768C6.892,0.557 5.1,-1.234 2.89,-1.234" style="fill:rgb(172,171,248);fill-rule:nonzero;"/>
                                        </g>
                                        <g transform="matrix(-0.722058,0.691832,0.691832,0.722058,960.085,329.674)">
                                            <path d="M2.769,-6.894C0.559,-6.893 -1.234,-5.101 -1.234,-2.891C-1.234,-0.68 0.558,1.113 2.769,1.113C4.98,1.112 6.773,-0.68 6.773,-2.891C6.772,-5.101 4.98,-6.894 2.769,-6.894" style="fill:rgb(172,171,248);fill-rule:nonzero;"/>
                                        </g>
                                        <g transform="matrix(-0.722121,0.691767,0.691767,0.722121,972.899,343.05)">
                                            <path d="M2.768,-6.892C0.558,-6.893 -1.235,-5.101 -1.234,-2.89C-1.234,-0.68 0.557,1.113 2.768,1.113C4.979,1.114 6.771,-0.678 6.771,-2.889C6.771,-5.1 4.979,-6.893 2.768,-6.892" style="fill:rgb(172,171,248);fill-rule:nonzero;"/>
                                        </g>
                                        <g transform="matrix(0.691895,0.721999,0.721999,-0.691895,977.885,356.259)">
                                            <path d="M2.89,-1.234C0.679,-1.233 -1.113,0.558 -1.113,2.77C-1.112,4.98 0.68,6.772 2.89,6.772C5.102,6.772 6.893,4.98 6.893,2.768C6.892,0.557 5.1,-1.234 2.89,-1.234" style="fill:rgb(172,171,248);fill-rule:nonzero;"/>
                                        </g>
                                        <g transform="matrix(0,1,1,0,406.246,-0.0011)">
                                            <path d="M56.651,-56.651C25.364,-56.651 0.001,-31.288 0.001,-0.001C0.001,31.288 25.364,56.651 56.651,56.651C87.938,56.651 113.301,31.288 113.301,-0.001C113.301,-31.288 87.938,-56.651 56.651,-56.651" style="fill:rgb(172,171,248);fill-rule:nonzero;"/>
                                        </g>
                                        <g transform="matrix(0,1,1,0,798.754,69.2837)">
                                            <path d="M87.293,-87.293C39.082,-87.293 0,-48.211 0,0C0,48.211 39.082,87.293 87.293,87.293C135.503,87.293 174.586,48.211 174.586,0C174.586,-48.211 135.503,-87.293 87.293,-87.293" style="fill:rgb(172,171,248);fill-rule:nonzero;"/>
                                        </g>
                                    </g>
                                    <g transform="matrix(0,1,1,0,549.792,414.45)">
                                        <path d="M21.878,-21.878C9.795,-21.878 0,-12.083 0,0C0,12.083 9.795,21.878 21.878,21.878C33.961,21.878 43.755,12.083 43.755,0C43.755,-12.083 33.961,-21.878 21.878,-21.878" style="fill:white;fill-rule:nonzero;"/>
                                    </g>
                                    <g transform="matrix(1,0,0,1,549.792,496.49)">
                                        <path d="M0,-38.285C-21.145,-38.285 -38.285,-21.144 -38.285,0L38.284,0C38.284,-21.144 21.144,-38.285 0,-38.285" style="fill:white;fill-rule:nonzero;"/>
                                    </g>
                                    <g transform="matrix(0,1,1,0,45.9817,249.129)">
                                        <path d="M14.759,-14.758C6.608,-14.758 0,-8.151 0,0.001C0,8.151 6.608,14.759 14.759,14.759C22.909,14.759 29.517,8.151 29.517,0.001C29.517,-8.151 22.909,-14.758 14.759,-14.758" style="fill:white;fill-rule:nonzero;"/>
                                    </g>
                                    <g transform="matrix(1,0,0,1,45.9825,304.473)">
                                        <path d="M0,-25.827C-14.264,-25.827 -25.828,-14.264 -25.828,0L25.827,0C25.827,-14.264 14.264,-25.827 0,-25.827" style="fill:white;fill-rule:nonzero;"/>
                                    </g>
                                    <g transform="matrix(0,1,1,0,798.754,93.5367)">
                                        <path d="M28.018,-28.018C12.544,-28.018 -0,-15.474 -0,0C-0,15.473 12.544,28.018 28.018,28.018C43.492,28.018 56.036,15.473 56.036,0C56.036,-15.474 43.492,-28.018 28.018,-28.018" style="fill:white;fill-rule:nonzero;"/>
                                    </g>
                                    <g transform="matrix(1,0,0,1,798.754,198.602)">
                                        <path d="M0,-49.03C-27.079,-49.03 -49.031,-27.078 -49.031,0L49.03,0C49.03,-27.078 27.078,-49.03 0,-49.03" style="fill:white;fill-rule:nonzero;"/>
                                    </g>
                                </g>
                                <g transform="matrix(0,1,1,0,406.245,15.7389)">
                                    <path d="M18.182,-18.182C8.14,-18.182 -0.001,-10.041 -0.001,0.002C-0.001,10.043 8.14,18.182 18.182,18.182C28.225,18.182 36.364,10.043 36.364,0.002C36.364,-10.041 28.225,-18.182 18.182,-18.182" style="fill:white;fill-rule:nonzero;"/>
                                </g>
                                <g transform="matrix(1,0,0,1,406.246,83.9225)">
                                    <path d="M0,-31.819C-17.573,-31.819 -31.819,-17.573 -31.819,0L31.819,0C31.819,-17.573 17.573,-31.819 0,-31.819" style="fill:white;fill-rule:nonzero;"/>
                                </g>
                            </g>
                        </g>
                    </g>
                </g>
                <g transform="matrix(1,0,0,1,336.905,451.665)">
                    <path d="M0,35.234C13.043,34.989 31.412,36.601 37.479,29.963C44.357,22.438 52.473,23.543 52.473,23.543L50.831,14.941L48.863,4.668C48.863,4.668 48.122,3.732 45.446,3.765C45.446,3.765 35.996,4.172 31.482,2.559C20.497,-1.367 -23.213,24.823 -21.741,32.091C-21.186,34.808 -5.556,35.338 0,35.234" style="fill:rgb(226,145,90);fill-rule:nonzero;"/>
                </g>
                <g transform="matrix(1,0,0,1,575.142,477.973)">
                    <path d="M24.451,-278.024C24.451,-278.024 -73.839,-90.557 -96.691,-74.186C-119.545,-57.815 -200.998,-22.416 -200.998,-22.416C-200.998,-22.416 -203.131,-17.347 -201.153,-9.917C-199.095,-2.185 -195.03,0 -195.03,0C-195.03,0 -81.143,-10.169 -54.665,-26.647C-28.187,-43.125 30.197,-108.82 30.197,-108.82L24.451,-278.024Z" style="fill:rgb(217,217,217);fill-rule:nonzero;"/>
                </g>
                <g transform="matrix(1,0,0,1,791.265,1001.32)">
                    <path d="M0,88.698L43.701,88.698C49.203,85.71 54.104,78.872 55.654,68.674C57.789,54.594 73.567,46.918 76.982,35.4C80.391,23.889 62.903,7.683 62.903,7.683L59.979,3.913L56.935,0L27.93,6.83C27.93,6.83 27.21,13.739 26.775,22.538C26.459,28.885 26.293,36.222 26.648,42.657C27.503,58.01 22.356,74.548 8.712,77.536C-1.376,79.742 -0.926,85.726 0,88.698" style="fill:rgb(35,56,98);fill-rule:nonzero;"/>
                </g>
                <g transform="matrix(1,0,0,1,537.642,1025.89)">
                    <path d="M0,64.129L99.941,64.129C104.748,58.264 102.977,36.618 102.25,29.551C102.1,28.128 101.996,27.298 101.996,27.298C101.996,27.298 67.869,0 63.181,20.902C63.038,21.559 62.864,22.199 62.675,22.831C56.77,42.382 30.278,51.267 14.981,53.741C5.036,55.355 1.36,60.525 0,64.129" style="fill:rgb(35,56,98);fill-rule:nonzero;"/>
                </g>
                <g transform="matrix(1,0,0,1,556.685,1052.51)">
                    <path d="M0,-520.347C0,-520.347 5.183,-455.693 11.272,-377.974C19.552,-272.4 29.506,-142.719 30.491,-118.152C32.193,-75.493 39.025,-7.255 39.025,-7.255C39.025,-7.255 55.225,8.957 87.647,2.124C87.647,2.124 116.54,-95.286 124.793,-198.353C124.921,-200.042 125.049,-201.744 125.177,-203.446C132.854,-308.368 144.792,-529.304 144.792,-529.304L0,-520.347Z" style="fill:rgb(35,71,234);fill-rule:nonzero;"/>
                </g>
                <g transform="matrix(1,0,0,1,580.35,982.558)">
                    <path d="M0,-442.717C0,-442.717 93.406,-208.563 154.823,-98.523C216.241,11.516 235.434,42.225 235.434,42.225C235.434,42.225 270.621,28.151 273.82,18.554C273.82,18.554 250.334,-193.883 209.204,-245.669C185.963,-274.931 158.662,-362.746 157.382,-393.455C156.104,-424.163 149.065,-484.942 149.065,-484.942L0,-442.717Z" style="fill:rgb(109,128,241);fill-rule:nonzero;"/>
                </g>
                <g transform="matrix(1,0,0,1,603.602,112.672)">
                    <path d="M0,85.822C36.5,97.34 99.656,66.256 99.656,66.256C99.656,66.256 66.003,40.998 67.766,-11.518L39.544,11.226L20.373,26.674C20.373,26.674 38.339,34.236 27.388,57.707C26.146,60.368 23.147,66.534 20.842,67.961C7.538,76.189 0,85.822 0,85.822" style="fill:rgb(254,159,94);fill-rule:nonzero;"/>
                </g>
                <g transform="matrix(1,0,0,1,552.657,173.564)">
                    <path d="M0,363.985C1.099,364.897 2.375,365.447 3.836,365.447C17.543,365.26 57.514,372.874 91.333,369.401C119.845,366.663 145.08,358.217 172.181,346.069C175.779,344.457 184.062,340.036 183.876,336.013C183.755,331.608 183.317,325.221 182.768,317.175C180.85,289.204 177.507,241.09 180.766,185.584C181.353,175.249 181.659,164.996 181.697,154.902C181.977,79.674 167.06,13.506 137.085,-8.889C137.085,-8.889 116.184,2.837 101.72,7.461C87.547,11.992 80.242,11.081 72.895,6.204C72.895,6.204 58.579,13.317 52.461,19.986C38.298,35.426 38.547,39.994 31.238,69.418C25.018,94.457 14.001,96.9 7.691,174.396C5.968,195.547 46.023,221.739 46.936,222.474C43.712,260.982 24.47,310.661 0,363.985Z" style="fill:white;fill-rule:nonzero;"/>
                </g>
                <g transform="matrix(0.907835,0.419328,0.419328,-0.907835,589.781,118.113)">
                    <path d="M32.889,-15.047C32.889,-15.047 84.862,26.175 73.253,66.027C61.644,105.877 66.707,115.79 25.185,106.204C-16.338,96.619 -19.844,79.1 -19.204,64.855C-18.565,50.611 15.873,-18.612 32.889,-15.047Z" style="fill:rgb(255,178,125);fill-rule:nonzero;"/>
                </g>
                <g transform="matrix(1.0955,0.409085,-0.429371,1.14982,772.661,548.557)">
                    <path d="M0,-51.938C0,-51.938 7.05,-42.547 7.329,-38.796C9.224,-13.366 -2.396,-9.848 27.688,4.278C27.688,4.278 40.532,9.175 40.751,-0.793C40.969,-10.762 31.838,-10.927 33.507,-24.887C35.434,-40.989 35.239,-41.138 24.671,-49.547L17.674,-61.113L0,-51.938Z" style="fill:rgb(255,178,125);fill-rule:nonzero;"/>
                </g>
                <g transform="matrix(1,0,0,1,812.497,166.885)">
                    <path d="M0,336.468C-11.334,338.677 -23.619,337.782 -23.619,337.782C-23.619,337.782 -57.266,233.842 -61.597,224.348C-65.928,214.853 -130.489,115.342 -130.489,115.342C-152.626,71.083 -163.336,25.298 -122.755,-2.209C-122.755,-2.209 -100.009,11.103 -75.961,52.595C-46.256,103.849 -13.597,186.393 -7.794,199.806C9.559,239.916 15.58,329.843 15.58,329.843C15.58,329.843 8.901,334.733 0,336.468" style="fill:rgb(217,217,217);fill-rule:nonzero;"/>
                </g>
                <g transform="matrix(3.92451,0,0,3.92451,-4659.76,-4669.62)">
                    <path d="M1339.05,1208.98C1339.05,1208.98 1346.27,1209.18 1347.36,1205.27C1347.36,1205.27 1350.42,1218.9 1353.63,1220.77C1356.84,1222.65 1357.38,1221.06 1358.63,1225.27C1359.88,1229.48 1358.73,1233.39 1359.13,1234.27C1359.53,1235.16 1359.46,1230.92 1364.13,1233.27C1368.8,1235.63 1372.84,1242.27 1372.84,1242.27C1372.84,1242.27 1376.57,1244.72 1379.13,1238.27C1381.69,1231.83 1380.03,1231.42 1376.63,1225.27C1373.23,1219.13 1365.8,1218.7 1366.63,1213.77C1367.46,1208.84 1367.04,1197.7 1364.63,1196.27C1362.22,1194.84 1352.08,1193.2 1350.63,1194.27C1349.18,1195.35 1340.96,1195.1 1337.82,1197.27C1333.97,1199.94 1336.13,1206.11 1339.05,1208.98Z" style="fill:rgb(129,58,3);"/>
                </g>
                <g transform="matrix(-0.848216,-0.817492,-0.815475,0.906171,775.879,527.504)">
                    <path d="M-4.629,-27.636C-4.629,-27.636 -1.06,-18.503 -1.79,-15.619C-4.131,-6.361 -2.775,-1.383 -4.629,-1.037C-8.484,-0.319 -9.831,-8.448 -9.352,-15.043C-8.872,-21.639 -4.629,-27.636 -4.629,-27.636" style="fill:rgb(255,178,125);fill-rule:nonzero;"/>
                </g>
                <g transform="matrix(1,0,0,1,291.943,597.833)">
                    <path d="M0,-67.17C0,-67.17 -4.03,-52.871 -2.647,-48.316C6.729,-17.446 22.944,2.756 -20.643,-2.459C-20.643,-2.459 -18.841,-4.244 -27.184,-19.952C-36.809,-38.071 -36.647,-38.336 -28.018,-53.084L-25.042,-69.926L0,-67.17Z" style="fill:rgb(255,178,125);fill-rule:nonzero;"/>
                </g>
                <g transform="matrix(1,0,0,1,346.784,449.776)">
                    <path d="M0,44.127C-13.159,43.329 -29.198,39.886 -35.044,32.928C-41.671,25.039 -48.287,22.921 -48.287,22.921L-46.267,14.306L-43.846,4.016C-43.846,4.016 -43.059,3.102 -40.358,3.248C-40.358,3.248 -30.041,5.582 -26.208,2.62C-22.382,-0.34 -15.37,1.463 -11.058,4.328C-5.57,7.973 1.837,7.385 1.654,9.168C1.654,9.168 -9.225,14.515 -8.208,15.417C1.753,24.261 27.988,27.776 26.285,34.686C25.61,37.405 5.606,44.467 0,44.127" style="fill:rgb(255,178,125);fill-rule:nonzero;"/>
                </g>
                <g transform="matrix(1,0,0,1,163.396,152.508)">
                    <path d="M0.204,-33.499C-4.062,-17.069 -11.821,0.319 -0.039,12.349C-0.039,12.349 1.91,34.721 -25.638,37.988C-53.186,41.264 -77.711,33.172 -76.964,15.909C-69.725,18.055 -59.052,-8.869 -66.14,-34.404L-15.519,-36.068L0.204,-33.499Z" style="fill:rgb(254,165,104);fill-rule:nonzero;"/>
                </g>
                <g transform="matrix(1,0,0,1,90.4074,64.7542)">
                    <path d="M0.962,48.421C1.986,51.612 3.788,53.853 7.911,53.256C17.462,74.32 35.264,86.336 53.942,87.309C58.095,87.525 79.525,67.143 81.054,54.974C84.088,30.893 86.229,4.028 82.162,-5.013C76.039,-18.617 64.507,-33.332 21.194,-22.715C-22.125,-12.09 -6.985,5.714 0.962,48.421Z" style="fill:rgb(255,178,125);fill-rule:nonzero;"/>
                </g>
                <g transform="matrix(1,0,0,1,55.215,1053.29)">
                    <path d="M0,42.488L60.945,42.488C60.49,39.292 58.937,29.568 56.084,20.611C55.096,17.493 53.942,14.463 52.632,11.832C46.705,0 9.057,7.525 9.057,7.525C9.057,7.525 5.561,10.522 2.83,21.966C1.62,27.005 0.555,33.697 0,42.488" style="fill:rgb(35,56,98);fill-rule:nonzero;"/>
                </g>
                <g transform="matrix(1,0,0,1,239.384,1037.15)">
                    <path d="M0,39.393C0.166,47.684 1.21,55.531 4.218,58.627L124.766,58.627C123.234,54.265 118.895,47.706 106.519,45.697C92.456,43.421 70.535,36.651 57.738,23.122C53.176,18.315 49.78,12.643 48.292,6.017C42.621,-19.234 1.398,13.753 1.398,13.753C1.398,13.753 -0.267,27.05 0,39.393" style="fill:rgb(35,56,98);fill-rule:nonzero;"/>
                </g>
                <g transform="matrix(1,0,0,1,159.203,750.18)">
                    <path d="M0,53.411C1.678,62.657 2.743,70.241 3.025,75.679C6.858,150.43 65.949,321.345 76.518,325.33C92.872,331.502 118.625,318.384 132.099,314.092C137.682,312.307 141.45,306.677 140.208,300.965C110.944,166.437 100.189,-27.278 96.277,-141.966C94.3,-199.734 84.384,-239.639 84.384,-239.639C84.384,-239.639 -59.736,-278.091 -60.591,-229.448C-61.35,-186.405 -12.853,-17.597 0,53.411" style="fill:rgb(110,128,241);fill-rule:nonzero;"/>
                </g>
                <g transform="matrix(1,0,0,1,191.27,1054.06)">
                    <path d="M0,-533.154L-76.188,19.034C-76.188,19.034 -109.646,27.102 -135.669,20.648C-135.669,20.648 -157.974,-273.031 -156.115,-344.03C-154.256,-415.03 -172.124,-534.012 -152.038,-547.133C-131.951,-560.256 0,-533.154 0,-533.154" style="fill:rgb(160,170,246);fill-rule:nonzero;"/>
                </g>
                <g transform="matrix(3.92451,0,0,3.92451,-4659.76,-4656.18)">
                    <path d="M1212.3,1205.17C1224.55,1204.63 1234.09,1203.09 1231.63,1200.77C1231.63,1200.77 1233.74,1195.93 1229.87,1193.43C1226.66,1191.35 1213.9,1192.45 1212.63,1195.27C1210.58,1195.58 1209.19,1196.72 1208.89,1199.22C1207.65,1198.2 1207.05,1198.98 1206.63,1200.27C1206.59,1207.84 1207.54,1213.55 1210.63,1215.27C1210.63,1215.27 1209.23,1207.34 1211.13,1209.27C1213.03,1211.21 1212.63,1212.77 1212.63,1212.77L1214.13,1212.27C1214.47,1212.1 1212.3,1205.17 1212.3,1205.17Z" style="fill:rgb(2,5,15);"/>
                </g>
                <g transform="matrix(1,0,0,1,81.8683,564.432)">
                    <path d="M0,-378.762L17.542,-2.392C17.542,-2.392 163.944,0 159.764,-33.13C155.584,-66.26 106.994,-367.237 106.994,-367.237" style="fill:rgb(233,243,254);fill-rule:nonzero;"/>
                </g>
                <g transform="matrix(1,0,0,1,130.129,339.842)">
                    <path d="M0,81.588C0,81.588 -7.433,182.112 -21.708,245.224C-21.708,245.224 -107.142,249.757 -127.417,216.77C-127.417,216.77 -111.367,80.972 -111.367,53.429C-111.367,43.747 -112.113,30.585 -113.296,15.873C-115.072,-6.415 -117.83,-32.229 -120.445,-54.719C-124.08,-86.037 -127.417,-110.929 -127.417,-110.929L-56.98,-168.169L0,81.588Z" style="fill:rgb(184,191,248);fill-rule:nonzero;"/>
                </g>
                <g transform="matrix(1,0,0,1,299.652,209.076)">
                    <path d="M0,331.293C0,331.293 -15.94,341.272 -41.04,337.923C-50.175,360.328 -71.726,367.94 -71.726,365.915C-71.726,365.669 -76.563,323.599 -82.279,274.021C-82.841,269.065 -83.415,264.042 -84,258.981C-84.047,258.548 -84.106,258.115 -84.153,257.682C-85.113,249.378 -86.073,240.98 -87.045,232.617C-93.92,172.908 -100.526,115.671 -100.526,115.671C-115.506,23.964 -128.191,-36.647 -128.191,-36.647C-96.228,-33.321 -74.666,-21.936 -66.057,-7.027C-40.548,37.187 -22.078,147.774 -11.255,230.557C-11.232,230.767 -11.208,230.978 -11.174,231.189C-9.312,245.478 -7.671,258.935 -6.278,271.058C-6.184,271.818 -6.102,272.567 -6.021,273.306C-2.038,307.997 0,331.293 0,331.293" style="fill:rgb(184,191,248);fill-rule:nonzero;"/>
                </g>
                <g transform="matrix(-0.266516,0.963831,0.963831,0.266516,136.701,159.095)">
                    <path d="M27.41,-53.616C23.995,-54.745 14.677,-39.67 14.677,-39.67C14.677,-39.67 35.511,-13.705 27.41,17.34C27.41,17.34 46.997,13.271 54.309,4.114C54.309,4.114 47.687,-46.909 27.41,-53.616" style="fill:rgb(217,233,249);fill-rule:nonzero;"/>
                </g>
                <g transform="matrix(0.460937,0.887433,0.887433,-0.460937,151.68,170.501)">
                    <path d="M14.295,-13.704C14.295,-13.704 13.189,6.023 3.521,11.111C3.521,11.111 7.361,21.485 14.295,23.286C14.295,23.286 32.765,18.233 39.951,8.479C39.951,8.479 25.361,-11.523 14.295,-13.704" style="fill:rgb(217,233,249);fill-rule:nonzero;"/>
                </g>
                <g transform="matrix(0.972464,-0.233052,-0.233052,-0.972464,133.754,190.415)">
                    <path d="M1.384,2.271L25.083,2.271C25.083,2.271 27.95,1.316 26.995,-2.316C26.039,-5.947 17.251,-15.121 14.287,-15.312C11.323,-15.503 -5.687,-3.844 1.384,2.271" style="fill:rgb(160,170,246);fill-rule:nonzero;"/>
                </g>
                <g transform="matrix(-0.229923,0.973209,0.973209,0.229923,133.805,154.047)">
                    <path d="M27.191,-48.447C23.736,-49.447 13.887,-39.942 13.887,-39.942C13.887,-39.942 34.114,-12.263 27.191,19.066C27.191,19.066 46.609,14.26 53.571,4.834C53.571,4.834 47.707,-42.511 27.191,-48.447" style="fill:rgb(233,243,254);fill-rule:nonzero;"/>
                </g>
                <g transform="matrix(0.298714,0.954343,0.954343,-0.298714,155.456,164.679)">
                    <path d="M16.499,-14.958C16.499,-14.958 12.938,4.169 2.53,7.488C2.53,7.488 9.987,16.025 16.499,19.011C16.499,19.011 29.101,19.715 37.881,11.367C37.881,11.367 27.012,-10.877 16.499,-14.958" style="fill:rgb(233,243,254);fill-rule:nonzero;"/>
                </g>
                <g transform="matrix(1,0,0,1,188.24,237.983)">
                    <path d="M0,262.503C-0.891,273.294 -5.022,283.386 -11.593,290.802L-21.919,302.459C-24.51,305.388 -28.54,305.034 -30.664,301.702L-43.127,282.153C-46.47,276.91 -48,270.245 -47.416,263.547C-46.088,248.628 -43.606,219.882 -41.574,192.143C-39.921,169.667 -38.559,147.835 -38.343,134.561C-37.657,92.178 -43.209,-42.885 -43.209,-42.885L-34.926,-42.452C-34.926,-42.452 -14.849,9.763 -4.76,81.012C-2.271,98.551 -0.4,117.231 0.432,136.587C0.432,136.587 4.007,213.723 0,262.503" style="fill:rgb(160,170,246);fill-rule:nonzero;"/>
                </g>
                <g transform="matrix(1,0,0,1,188.24,361.88)">
                    <path d="M0,138.606C-0.891,149.397 -5.022,159.489 -11.593,166.905L-21.919,178.562C-24.51,181.491 -28.54,181.137 -30.664,177.805L-43.127,158.256C-46.47,153.013 -48,146.348 -47.416,139.65C-46.088,124.731 -43.606,95.985 -41.574,68.246C-18.365,36.431 -8.663,-7.27 -4.76,-42.885C-2.271,-25.346 -0.4,-6.666 0.432,12.69C0.432,12.69 4.007,89.826 0,138.606" style="fill:rgb(160,170,246);fill-rule:nonzero;"/>
                </g>
                <g transform="matrix(1,0,0,1,91.7399,421.478)">
                    <path d="M0,-263.1C0,-263.1 45.628,-71.991 38.367,0C38.367,0 21.589,-76.931 -18.781,-139.945C-18.781,-139.945 -4.048,-152.902 -4.849,-157.679C-4.849,-157.679 -15.784,-160.922 -26.395,-158.739C-26.395,-158.739 -25.222,-241.117 -18.606,-249.82C-11.99,-258.523 0,-263.1 0,-263.1" style="fill:rgb(160,169,246);fill-rule:nonzero;"/>
                </g>
                <g transform="matrix(1,0,0,1,163.357,411.286)">
                    <path d="M0,-246.429C-6.842,-245.875 45.218,-59.682 49.075,0C49.075,0 44.502,-106.501 44.952,-137.196C44.952,-137.196 26.001,-147.229 26.001,-150.749C26.001,-154.269 46.218,-163.786 46.218,-163.786C46.218,-163.786 33.416,-229.374 26.429,-236.601C19.443,-243.828 0,-246.429 0,-246.429" style="fill:rgb(160,169,246);fill-rule:nonzero;"/>
                </g>
                <g transform="matrix(-0.996433,0.0843858,0.0843858,0.996433,267.855,585.875)">
                    <path d="M6.536,-31.967C6.536,-31.967 10.045,-27.972 8.949,-17.097C7.853,-6.223 9.46,-0.41 6.536,-2.021C3.611,-3.633 -3.199,-16.001 -3.199,-16.001L6.536,-31.967Z" style="fill:rgb(255,178,125);fill-rule:nonzero;"/>
                </g>
                <g transform="matrix(1,0,0,1,73.1339,482.171)">
                    <path d="M0,-310.513C0.018,-310.498 -46.678,-304.617 -67.983,-274.877C-89.289,-245.138 -43.535,-83.165 51.421,-31.296C97.099,-6.345 228.899,-0.726 228.899,-0.726C228.899,-0.726 236.145,0 239.018,-14.586C240.021,-19.671 239.018,-28.345 239.018,-28.345C239.018,-28.345 88.989,-84.598 75.799,-95.428C62.61,-106.259 0,-310.513 0,-310.513" style="fill:rgb(222,225,252);fill-rule:nonzero;"/>
                </g>
            </g>
        </g>
        <g id="Layer-1" serif:id="Layer 1">
        </g>
        <g id="Слой-12" serif:id="Слой 1">
        </g>
        <g id="Padlock">
        </g>
        <g id="Speech-Bubble" serif:id="Speech Bubble">
        </g>
    </g>
</svg>
