<?xml version="1.0" encoding="UTF-8" standalone="no"?>
<!DOCTYPE svg PUBLIC "-//W3C//DTD SVG 1.1//EN" "http://www.w3.org/Graphics/SVG/1.1/DTD/svg11.dtd">
<svg width="100%" height="100%" viewBox="0 0 500 500" version="1.1" xmlns="http://www.w3.org/2000/svg" xmlns:xlink="http://www.w3.org/1999/xlink" xml:space="preserve" xmlns:serif="http://www.serif.com/" style="fill-rule:evenodd;clip-rule:evenodd;stroke-linecap:round;stroke-linejoin:round;stroke-miterlimit:1.5;">
    <g transform="matrix(1,0,0,1,-1067.43,-1606.24)">
        <g id="Obj">
        </g>
        <g id="Artboard1" transform="matrix(1,0,0,1,1067.43,1606.24)">
            <rect x="0" y="0" width="499.999" height="500" style="fill:none;"/>
            <g transform="matrix(1,0,0,1,0.547041,-65.4534)">
                <path d="M85.026,453C68.756,424.533 59.453,391.571 59.453,356.453C59.453,248.83 146.83,161.453 254.453,161.453C362.076,161.453 449.453,248.83 449.453,356.453C449.453,391.571 440.15,424.533 423.88,453L85.026,453Z" style="fill:rgb(220,245,226);"/>
            </g>
            <g id="_1" serif:id="1" transform="matrix(3.40987,0,0,3.40987,142.32,157.229)">
                <g transform="matrix(1.25959,0,0,1.25959,-69.3447,-85.7692)">
                    <g transform="matrix(1,0,0,1,88.3016,93.5639)">
                        <path d="M0,-27.725L-28.691,-27.725C-30.389,-27.725 -31.765,-26.298 -31.765,-24.538L-31.765,-3.186C-31.765,-1.427 -30.389,0 -28.691,0L0,0C1.698,0 3.074,-1.427 3.074,-3.186L3.074,-24.538C3.074,-26.298 1.698,-27.725 0,-27.725" style="fill:rgb(228,244,255);fill-rule:nonzero;"/>
                    </g>
                    <g transform="matrix(1,0,0,1,90.2274,69.59)">
                        <path d="M0,20.223C0,21.375 -0.729,22.31 -1.628,22.31L-30.915,22.31C-31.814,22.31 -32.542,21.375 -32.542,20.223L-32.542,-0.751C-32.542,-1.903 -31.814,-2.838 -30.915,-2.838L-1.628,-2.838C-0.729,-2.838 0,-1.903 0,-0.751L0,20.223ZM-0.48,-3.751L-32.063,-3.751C-32.961,-3.751 -33.69,-2.817 -33.69,-1.664L-33.69,21.887C-33.69,23.04 -32.961,23.974 -32.063,23.974L-0.48,23.974C0.419,23.974 1.148,23.04 1.148,21.887L1.148,-1.664C1.148,-2.817 0.419,-3.751 -0.48,-3.751" style="fill:rgb(130,136,201);fill-rule:nonzero;"/>
                    </g>
                    <g transform="matrix(1,0,0,1,71.1497,83.504)">
                        <path d="M0,-7.605C-1.917,-7.48 -3.437,-5.827 -3.437,-3.807C-3.437,-1.705 -1.792,0 0.236,0C2.102,0 3.641,-1.441 3.877,-3.308L0,-3.308L0,-7.605Z" style="fill:rgb(133,147,224);fill-rule:nonzero;"/>
                    </g>
                    <g transform="matrix(1,0,0,1,71.6746,79.6514)">
                        <path d="M0,-3.75L0,0L3.383,0C3.362,-1.981 1.879,-3.599 0,-3.75" style="fill:rgb(164,181,188);fill-rule:nonzero;"/>
                    </g>
                    <g transform="matrix(1,0,0,1,36.0779,47.6478)">
                        <rect x="23.331" y="38.921" width="7.102" height="0.578" style="fill:rgb(183,192,237);"/>
                    </g>
                    <g transform="matrix(1,0,0,1,36.0779,49.5878)">
                        <rect x="23.331" y="37.951" width="7.102" height="0.578" style="fill:rgb(183,192,237);"/>
                    </g>
                    <g transform="matrix(1,0,0,1,36.0779,51.5298)">
                        <rect x="23.331" y="36.98" width="7.102" height="0.578" style="fill:rgb(183,192,237);"/>
                    </g>
                    <g transform="matrix(1,0,0,1,36.0779,53.4698)">
                        <rect x="23.331" y="36.01" width="7.102" height="0.578" style="fill:rgb(183,192,237);"/>
                    </g>
                    <g transform="matrix(1,0,0,1,73.5003,69.9552)">
                        <path d="M0,6.268C0.108,6.335 0.159,6.424 0.237,6.503L3.283,0.095L7.964,0.095L7.964,-0.235L3.084,-0.235L0,6.268Z" style="fill:rgb(103,120,127);fill-rule:nonzero;"/>
                    </g>
                    <g transform="matrix(1,0,0,1,75.0272,72.5608)">
                        <path d="M0,5.678C0.097,5.855 0.139,6.01 0.152,6.161L3.125,-0.154L6.437,-0.154L6.437,-0.483L2.927,-0.483L0,5.678Z" style="fill:rgb(103,120,127);fill-rule:nonzero;"/>
                    </g>
                    <g transform="matrix(1,0,0,1,36.0779,13.7028)">
                        <rect x="46.339" y="55.647" width="6.351" height="1.071" style="fill:rgb(133,147,224);"/>
                    </g>
                    <g transform="matrix(1,0,0,1,36.0779,18.4188)">
                        <rect x="46.339" y="53.289" width="6.351" height="1.071" style="fill:rgb(133,147,224);"/>
                    </g>
                    <g transform="matrix(1,0,0,1,36.0779,25.5508)">
                        <rect x="45.68" y="49.946" width="7.67" height="0.625" style="fill:rgb(136,157,167);"/>
                    </g>
                    <g transform="matrix(1,0,0,1,36.0779,27.6478)">
                        <rect x="45.68" y="48.898" width="7.67" height="0.624" style="fill:rgb(136,157,167);"/>
                    </g>
                    <g transform="matrix(1,0,0,1,36.0779,29.7448)">
                        <rect x="45.68" y="47.849" width="7.67" height="0.625" style="fill:rgb(136,157,167);"/>
                    </g>
                    <g transform="matrix(1,0,0,1,36.0779,31.8398)">
                        <rect x="45.68" y="46.802" width="7.67" height="0.624" style="fill:rgb(136,157,167);"/>
                    </g>
                    <g transform="matrix(1,0,0,1,36.0779,33.9378)">
                        <rect x="45.68" y="45.753" width="7.67" height="0.624" style="fill:rgb(136,157,167);"/>
                    </g>
                    <g transform="matrix(1,0,0,1,36.0779,23.4558)">
                        <rect x="45.68" y="50.994" width="7.67" height="0.624" style="fill:rgb(183,192,237);"/>
                    </g>
                    <g transform="matrix(1,0,0,1,36.0779,25.5508)">
                        <rect x="45.68" y="49.946" width="7.67" height="0.625" style="fill:rgb(183,192,237);"/>
                    </g>
                    <g transform="matrix(1,0,0,1,36.0779,27.6478)">
                        <rect x="45.68" y="48.898" width="7.67" height="0.624" style="fill:rgb(183,192,237);"/>
                    </g>
                    <g transform="matrix(1,0,0,1,36.0779,29.7448)">
                        <rect x="45.68" y="47.849" width="7.67" height="0.625" style="fill:rgb(183,192,237);"/>
                    </g>
                    <g transform="matrix(1,0,0,1,36.0779,31.8398)">
                        <rect x="45.68" y="46.802" width="7.67" height="0.624" style="fill:rgb(183,192,237);"/>
                    </g>
                    <g transform="matrix(1,0,0,1,36.0779,33.9378)">
                        <rect x="45.68" y="45.753" width="7.67" height="0.624" style="fill:rgb(183,192,237);"/>
                    </g>
                    <g transform="matrix(1,0,0,1,36.0779,36.0328)">
                        <rect x="45.68" y="44.705" width="7.67" height="0.625" style="fill:rgb(183,192,237);"/>
                    </g>
                    <g transform="matrix(1,0,0,1,62.9593,70.7269)">
                        <path d="M0,8.07L2.152,8.07L2.152,0L0.721,0C1.071,2.084 0.906,4.697 0,8.07" style="fill:rgb(183,192,237);fill-rule:nonzero;"/>
                    </g>
                    <g transform="matrix(-1,0,0,1,65.8326,78.7966)">
                        <path d="M-0.946,-8.07L0.721,-8.07L0.721,0L-1.667,0C-0.761,-3.372 -0.596,-5.986 -0.946,-8.07" style="fill:rgb(183,192,237);fill-rule:nonzero;"/>
                    </g>
                    <g transform="matrix(1,0,0,1,59.0306,76.3583)">
                        <path d="M0,8.071L2.152,8.071L2.152,0L0.721,0C1.071,2.085 0.906,4.698 0,8.071" style="fill:rgb(183,192,237);fill-rule:nonzero;"/>
                    </g>
                    <g transform="matrix(-1,0,0,1,61.9039,84.4294)">
                        <path d="M-0.946,-8.071L0.721,-8.071L0.721,0L-1.667,0C-0.761,-3.373 -0.596,-5.987 -0.946,-8.071" style="fill:rgb(183,192,237);fill-rule:nonzero;"/>
                    </g>
                    <g transform="matrix(1,0,0,1,68.1453,68.6589)">
                        <path d="M0,0.078C0.027,0.062 0.041,0.033 0.062,0.009C0.053,0.008 0.045,0.001 0.035,0L0,0.078Z" style="fill:rgb(189,205,214);fill-rule:nonzero;"/>
                    </g>
                    <g transform="matrix(1,0,0,1,68.2078,69.986)">
                        <path d="M0,-1.318C-0.021,-1.295 -0.036,-1.265 -0.062,-1.249L-0.027,-1.327C-0.018,-1.326 -0.01,-1.319 0,-1.318C0.068,-1.391 0.116,-1.485 0.108,-1.588C0.098,-1.721 0.009,-1.845 -0.112,-1.894C-0.251,-1.95 -0.414,-1.906 -0.537,-1.818C-0.661,-1.73 -0.752,-1.604 -0.843,-1.481C-0.793,-1.617 -0.919,-1.77 -1.059,-1.79C-1.198,-1.809 -1.334,-1.735 -1.446,-1.646C-1.716,-1.43 -1.911,-1.114 -1.984,-0.769C-2.658,-0.89 -2.807,-0.143 -2.953,0.371C-2.977,0.456 -2.999,0.543 -3.021,0.632C-2.69,0.211 -2.399,-0.012 -1.879,-0.147C-1.541,-0.235 -1.188,-0.25 -0.858,-0.374C-0.7,-0.433 -0.654,-0.458 -0.497,-0.466C-0.351,-0.474 -0.229,-0.416 -0.077,-0.464C0.112,-0.524 0.274,-0.692 0.296,-0.894C0.317,-1.087 0.182,-1.287 0,-1.318" style="fill:rgb(183,192,237);fill-rule:nonzero;"/>
                    </g>
                    <g transform="matrix(1,0,0,1,72.574,89.0631)">
                        <path d="M0,-3.192C0.138,-3.288 0.156,-3.523 0.035,-3.64C-0.087,-3.757 -0.312,-3.722 -0.394,-3.573C-0.404,-3.761 -0.397,-3.931 -0.581,-4.033C-0.675,-4.085 -0.768,-4.083 -0.849,-4.046C-0.977,-3.989 -1.074,-3.846 -1.102,-3.698C-1.168,-3.757 -1.254,-3.787 -1.342,-3.788C-1.462,-3.79 -1.585,-3.738 -1.659,-3.637C-1.79,-3.457 -1.727,-3.205 -1.573,-3.067C-1.867,-2.967 -2.051,-2.962 -2.107,-2.608C-2.129,-2.47 -2.114,-1.975 -1.858,-2.121C-2.006,-2.037 -2.1,-1.857 -2.048,-1.683C-1.997,-1.509 -1.802,-1.395 -1.631,-1.44C-1.612,-1.064 -1.231,-1.036 -0.965,-1.128C-0.962,-1.129 -0.958,-1.13 -0.955,-1.131L-0.955,0.66L-1.458,0.66C-1.604,0.66 -1.676,0.776 -1.676,0.893L0.023,0.893C0.023,0.776 -0.05,0.66 -0.195,0.66L-0.736,0.66L-0.736,-1.219C-0.695,-1.204 -0.684,-1.148 -0.634,-1.138C-0.506,-1.111 -0.402,-1.057 -0.283,-1.161C-0.152,-1.276 -0.149,-1.514 -0.277,-1.632C-0.092,-1.602 0.106,-1.732 0.158,-1.919C0.22,-2.096 0.122,-2.203 0.012,-2.315C0.01,-2.344 0.009,-2.375 0.008,-2.404C0.182,-2.442 0.317,-2.618 0.315,-2.801C0.314,-2.985 0.174,-3.158 0,-3.192" style="fill:rgb(183,192,237);fill-rule:nonzero;"/>
                    </g>
                    <g transform="matrix(1,0,0,1,69.5599,89.8094)">
                        <path d="M0,-4.096C0.177,-4.22 0.2,-4.52 0.044,-4.671C-0.111,-4.821 -0.399,-4.776 -0.505,-4.585C-0.519,-4.827 -0.51,-5.045 -0.746,-5.175C-0.867,-5.242 -0.985,-5.239 -1.089,-5.192C-1.253,-5.118 -1.379,-4.936 -1.414,-4.746C-1.499,-4.822 -1.61,-4.86 -1.722,-4.862C-1.877,-4.864 -2.034,-4.797 -2.128,-4.667C-2.296,-4.436 -2.216,-4.113 -2.019,-3.935C-2.396,-3.808 -2.632,-3.801 -2.704,-3.346C-2.732,-3.17 -2.713,-2.535 -2.384,-2.721C-2.574,-2.614 -2.695,-2.383 -2.629,-2.16C-2.562,-1.936 -2.313,-1.791 -2.094,-1.848C-2.068,-1.365 -1.58,-1.329 -1.238,-1.447C-1.234,-1.449 -1.229,-1.45 -1.226,-1.452L-1.226,0.846L-1.871,0.846C-2.058,0.846 -2.151,0.996 -2.151,1.146L0.03,1.146C0.03,0.996 -0.063,0.846 -0.25,0.846L-0.945,0.846L-0.945,-1.565C-0.892,-1.545 -0.877,-1.473 -0.814,-1.46C-0.649,-1.426 -0.516,-1.357 -0.363,-1.491C-0.195,-1.638 -0.191,-1.944 -0.356,-2.096C-0.118,-2.055 0.136,-2.222 0.203,-2.463C0.283,-2.69 0.156,-2.827 0.015,-2.97C0.014,-3.009 0.012,-3.047 0.01,-3.086C0.233,-3.134 0.407,-3.359 0.405,-3.595C0.403,-3.831 0.224,-4.053 0,-4.096" style="fill:rgb(183,192,237);fill-rule:nonzero;"/>
                    </g>
                    <g transform="matrix(1,0,0,1,63.0892,75.5644)">
                        <path d="M0,-6.06C-0.167,-6.302 -0.497,-6.389 -0.77,-6.3C-1.043,-6.21 -1.255,-5.967 -1.356,-5.688C-1.458,-5.411 -1.458,-5.102 -1.406,-4.81C-3.327,-4.549 -2.677,-1.059 -2.689,0.329C-2.417,-0.23 -2.14,-0.787 -1.875,-1.35C-1.725,-1.668 -1.198,-2.387 -1.198,-2.708C-0.856,-3.233 -0.225,-3.316 0.01,-3.969C0.163,-4.393 0.114,-4.889 -0.119,-5.272C0.121,-5.434 0.167,-5.818 0,-6.06" style="fill:rgb(183,192,237);fill-rule:nonzero;"/>
                    </g>
                    <g transform="matrix(1,0,0,1,75.4457,84.0607)">
                        <path d="M0,1.391C-0.035,1.402 -0.07,1.409 -0.105,1.415C-0.447,1.469 -0.785,1.258 -0.891,0.906C-1.008,0.517 -0.799,0.103 -0.423,-0.018C-0.391,-0.029 -0.357,-0.036 -0.325,-0.041C0.02,-0.099 0.361,0.112 0.468,0.467C0.585,0.856 0.375,1.269 0,1.391M0.901,0.419L1.168,0.211L0.963,-0.2L0.647,-0.096C0.595,-0.157 0.537,-0.213 0.474,-0.262L0.548,-0.595L0.136,-0.774L-0.04,-0.485C-0.118,-0.498 -0.197,-0.502 -0.278,-0.497L-0.426,-0.799L-0.438,-0.796L-0.853,-0.662L-0.809,-0.324C-0.877,-0.28 -0.941,-0.23 -0.998,-0.173L-1.3,-0.307L-1.541,0.083L-1.296,0.314C-1.321,0.391 -1.338,0.472 -1.347,0.554L-1.663,0.653L-1.606,1.112L-1.272,1.126C-1.243,1.203 -1.207,1.274 -1.165,1.341L-1.347,1.63L-1.019,1.944L-0.751,1.73C-0.684,1.768 -0.612,1.799 -0.539,1.822L-0.498,2.168L-0.052,2.19L-0.015,2.015L0.02,1.847C0.056,1.839 0.092,1.829 0.128,1.818C0.166,1.805 0.203,1.791 0.239,1.775L0.485,2.015L0.84,1.734L0.683,1.423C0.731,1.361 0.772,1.293 0.807,1.223L1.144,1.242L1.242,0.79L0.931,0.658C0.929,0.579 0.919,0.499 0.901,0.419" style="fill:rgb(183,192,237);fill-rule:nonzero;"/>
                    </g>
                    <g transform="matrix(1,0,0,1,69.3968,72.3261)">
                        <path d="M0,1.528C-0.039,1.54 -0.077,1.548 -0.116,1.554C-0.491,1.613 -0.862,1.382 -0.979,0.995C-1.106,0.568 -0.877,0.114 -0.464,-0.019C-0.429,-0.031 -0.393,-0.038 -0.356,-0.044C0.021,-0.108 0.396,0.123 0.514,0.513C0.642,0.941 0.412,1.394 0,1.528M0.99,0.461L1.283,0.233L1.058,-0.219L0.71,-0.104C0.653,-0.172 0.589,-0.233 0.52,-0.286L0.602,-0.653L0.15,-0.849L-0.043,-0.532C-0.129,-0.545 -0.217,-0.55 -0.305,-0.545L-0.468,-0.877L-0.481,-0.873L-0.936,-0.726L-0.888,-0.355C-0.963,-0.307 -1.033,-0.252 -1.096,-0.19L-1.427,-0.336L-1.692,0.091L-1.423,0.345C-1.451,0.43 -1.469,0.518 -1.479,0.609L-1.826,0.718L-1.764,1.222L-1.397,1.237C-1.365,1.321 -1.325,1.4 -1.278,1.472L-1.479,1.791L-1.118,2.135L-0.825,1.901C-0.75,1.942 -0.672,1.976 -0.591,2.001L-0.547,2.381L-0.057,2.405L-0.017,2.213L0.022,2.028C0.062,2.019 0.102,2.009 0.141,1.996C0.183,1.983 0.223,1.967 0.262,1.95L0.533,2.213L0.923,1.905L0.75,1.564C0.803,1.495 0.848,1.421 0.886,1.344L1.255,1.364L1.363,0.868L1.022,0.723C1.02,0.636 1.009,0.549 0.99,0.461" style="fill:rgb(183,192,237);fill-rule:nonzero;"/>
                    </g>
                    <g transform="matrix(1,0,0,1,77.7425,86.3798)">
                        <path d="M0,1.365C-0.034,1.376 -0.069,1.383 -0.104,1.388C-0.438,1.442 -0.77,1.235 -0.874,0.889C-0.989,0.508 -0.784,0.101 -0.415,-0.018C-0.383,-0.028 -0.351,-0.035 -0.318,-0.04C0.019,-0.097 0.354,0.11 0.459,0.458C0.574,0.84 0.369,1.245 0,1.365M0.885,0.411L1.146,0.207L0.946,-0.196L0.635,-0.093C0.583,-0.154 0.526,-0.209 0.465,-0.257L0.538,-0.584L0.134,-0.759L-0.039,-0.476C-0.115,-0.488 -0.193,-0.492 -0.272,-0.487L-0.418,-0.784L-0.43,-0.781L-0.836,-0.649L-0.793,-0.318C-0.861,-0.275 -0.923,-0.225 -0.979,-0.17L-1.275,-0.301L-1.512,0.081L-1.271,0.308C-1.296,0.384 -1.313,0.463 -1.322,0.544L-1.632,0.641L-1.576,1.091L-1.249,1.105C-1.22,1.18 -1.184,1.251 -1.142,1.316L-1.321,1.6L-1,1.908L-0.737,1.698C-0.671,1.735 -0.601,1.765 -0.528,1.788L-0.488,2.128L-0.051,2.149L-0.015,1.977L0.02,1.812C0.055,1.804 0.091,1.795 0.126,1.783C0.163,1.771 0.199,1.758 0.234,1.742L0.477,1.977L0.825,1.702L0.67,1.397C0.717,1.336 0.758,1.269 0.792,1.2L1.122,1.219L1.218,0.776L0.914,0.646C0.912,0.568 0.902,0.49 0.885,0.411" style="fill:rgb(183,192,237);fill-rule:nonzero;"/>
                    </g>
                </g>
                <g transform="matrix(1,0,0,1,-14.9269,-19.3753)">
                    <g transform="matrix(-1.25959,0,0,1.25959,91.8597,-0.0266067)">
                        <g transform="matrix(-0.232828,0,0,0.232828,354.591,-410.564)">
                            <path d="M1487.43,1887.69C1487.43,1887.69 1487.21,1894.95 1488.43,1897.24C1489.65,1899.54 1479.48,1903.96 1479.48,1903.96L1469.72,1894C1469.72,1894 1471.68,1889.88 1470.98,1886.51C1470.28,1883.14 1487.43,1887.69 1487.43,1887.69Z" style="fill:rgb(223,162,121);"/>
                        </g>
                        <g transform="matrix(-0.232828,0,0,0.232828,354.591,-410.564)">
                            <path d="M1464.13,1868.74C1464.13,1868.74 1465.96,1882.97 1467.93,1884.74C1469.89,1886.51 1477.35,1892.91 1479.25,1892.74C1481.14,1892.57 1487.63,1888.89 1489.93,1886.05C1492.23,1883.21 1495.52,1870.74 1495.93,1868.69C1496.34,1866.64 1495.62,1857.69 1491.93,1855.06C1488.23,1852.42 1477.39,1850.76 1474.43,1850.24C1471.46,1849.73 1462.99,1857.8 1462.93,1859.96C1462.86,1862.12 1464.13,1868.74 1464.13,1868.74Z" style="fill:rgb(230,180,148);"/>
                        </g>
                        <g transform="matrix(1,0,0,1,9.46,36.5384)">
                            <path d="M0,-3.417L-0.931,-2.06L-0.551,-0.891L-0.29,0L0.271,-2.64C0.295,-2.753 0.279,-2.872 0.227,-2.975L0,-3.417Z" style="fill:rgb(186,209,221);fill-rule:nonzero;"/>
                        </g>
                        <g transform="matrix(1,0,0,1,10.5957,36.0388)">
                            <path d="M0,-2.475C-0.053,-2.372 -0.068,-2.254 -0.044,-2.14L0.504,0.442L0.778,-0.392L1.132,-1.483L1.156,-1.563L0.227,-2.917L0,-2.475Z" style="fill:rgb(154,185,202);fill-rule:nonzero;"/>
                        </g>
                        <g transform="matrix(1,0,0,1,10.5957,38.3018)">
                            <path d="M0,-4.738L0.227,-5.18L-0.003,-5.516L-0.369,-6.049L-0.524,-6.049L-0.524,1.307L-0.523,1.311L0.504,-1.821L-0.044,-4.403C-0.068,-4.517 -0.053,-4.635 0,-4.738" style="fill:rgb(133,147,225);fill-rule:nonzero;"/>
                        </g>
                        <g transform="matrix(1,0,0,1,10.0713,39.5618)">
                            <path d="M0,-7.329C-0.001,-7.327 -0.004,-7.326 -0.006,-7.324L-0.016,-7.309L-0.235,-6.989L-0.611,-6.44L-0.385,-5.998C-0.332,-5.895 -0.316,-5.777 -0.34,-5.663L-0.901,-3.024L0,0.047L0,-7.309L0.156,-7.309L0.146,-7.324C0.11,-7.375 0.039,-7.376 0,-7.329" style="fill:rgb(133,147,225);fill-rule:nonzero;"/>
                        </g>
                        <g transform="matrix(1,0,0,1,5.9429,45.0318)">
                            <path d="M0,-11.155L1.209,-11.685L-0.182,-12.394C-0.114,-12.614 0.037,-13.061 0.216,-13.466C-1.45,-12.942 -4.066,-12.144 -4.119,-12.076C-5.67,-10.078 -5.935,-0.967 -5.943,2.311L4.184,2.311L4.128,-2.925L0,-11.155Z" style="fill:rgb(109,128,241);fill-rule:nonzero;"/>
                        </g>
                        <g transform="matrix(1,0,0,1,19.8741,36.8018)">
                            <path d="M0,5.305C-0.13,1.184 -0.14,-2.632 -1.415,-3.846C-1.478,-3.905 -4.085,-4.712 -5.751,-5.236C-5.57,-4.831 -5.421,-4.384 -5.353,-4.164L-6.745,-3.455L-5.534,-2.925L-9.765,5.381L-9.803,5.305L-9.803,5.461C-9.801,5.461 -9.8,9.673 -9.799,10.541L-0.224,10.541L7.908,3.678L5.676,0.017L0,5.305Z" style="fill:rgb(109,128,241);fill-rule:nonzero;"/>
                        </g>
                        <g transform="matrix(1,0,0,1,11.7276,34.4755)">
                            <path d="M0,0.08L0.025,0.002L0.024,0L0,0.08Z" style="fill:rgb(75,97,108);fill-rule:nonzero;"/>
                        </g>
                        <g transform="matrix(1,0,0,1,12.4751,34.4451)">
                            <path d="M0,-4.519L-1.801,-2.834L-2.272,-2.394C-2.307,-2.361 -2.361,-2.361 -2.396,-2.394L-2.404,-2.401L-2.404,-2.278C-2.394,-2.288 -2.385,-2.298 -2.372,-2.307C-2.292,-2.363 -2.221,-2.269 -2.18,-2.192L-2.248,-2.192L-1.883,-1.66L-1.652,-1.324L-0.724,0.031L-0.722,0.033L-0.584,-0.393L0.355,-3.282C0.384,-3.273 0.422,-3.261 0.465,-3.248L0.036,-4.552L0,-4.519Z" style="fill:rgb(193,218,236);fill-rule:nonzero;"/>
                        </g>
                        <g transform="matrix(1,0,0,1,10.1031,32.234)">
                            <path d="M0,-0.096C-0.013,-0.087 -0.021,-0.077 -0.032,-0.067L-0.032,-0.19L-2.289,-2.302L-2.331,-2.341L-2.761,-1.036C-2.718,-1.05 -2.679,-1.062 -2.65,-1.071L-1.839,1.429L-1.698,1.864L-1.574,2.245L-0.643,0.887L-0.267,0.339L-0.048,0.019L-0.038,0.004C-0.036,0.002 -0.033,0.001 -0.032,-0.001C0.007,-0.049 0.079,-0.048 0.114,0.004L0.124,0.019L0.192,0.019C0.151,-0.058 0.08,-0.152 0,-0.096" style="fill:rgb(193,218,236);fill-rule:nonzero;"/>
                        </g>
                        <g transform="matrix(1,0,0,1,8.9087,37.6223)">
                            <path d="M0,-1.975L-0.379,-3.143L-0.503,-3.524L-0.645,-3.959L-1.456,-6.459C-1.485,-6.45 -1.523,-6.438 -1.566,-6.425C-1.798,-6.353 -2.226,-6.219 -2.75,-6.056C-2.929,-5.652 -3.08,-5.205 -3.148,-4.985L-1.756,-4.275L-2.966,-3.746L1.163,4.484L1.163,1.986L0.261,-1.084L0,-1.975Z" style="fill:rgb(91,111,214);fill-rule:nonzero;"/>
                        </g>
                        <g transform="matrix(1,0,0,1,14.1226,41.7803)">
                            <path d="M0,-10.214C-0.521,-10.377 -0.95,-10.51 -1.183,-10.583C-1.225,-10.596 -1.263,-10.608 -1.292,-10.617L-2.231,-7.728L-2.37,-7.302L-2.395,-7.225L-2.749,-6.133L-3.022,-5.3L-4.05,-2.167L-4.051,-2.172L-4.051,0.327L-4.013,0.403L0.218,-7.903L-0.993,-8.433L0.399,-9.143C0.331,-9.363 0.181,-9.81 0,-10.214" style="fill:rgb(91,111,214);fill-rule:nonzero;"/>
                        </g>
                        <g transform="matrix(1,0,0,1,4.0552,40.2633)">
                            <path d="M0,7.032L-0.336,0L-0.336,7.032L0,7.032Z" style="fill:rgb(75,97,108);fill-rule:nonzero;"/>
                        </g>
                        <g transform="matrix(1,0,0,1,16.1036,40.2631)">
                            <path d="M0,7.08L0.339,7.08L0,0L0,7.08Z" style="fill:rgb(48,62,67);fill-rule:nonzero;"/>
                        </g>
                        <g transform="matrix(1,0,0,1,-2.27374e-13,3.2077)">
                            <path d="M16.418,35.318L13.848,35.318L13.848,35.169L16.418,35.169L16.418,35.318ZM16.418,35.664L13.848,35.664L13.848,35.514L16.418,35.514L16.418,35.664ZM15.686,34.205L15.686,34.441C15.686,34.713 15.473,34.935 15.21,34.935L15.054,34.935C14.792,34.935 14.58,34.713 14.58,34.441L14.58,34.205L13.638,34.205C13.511,34.308 13.427,34.466 13.427,34.647L13.427,35.566C13.427,35.878 13.67,36.13 13.97,36.13L16.295,36.13C16.595,36.13 16.837,35.878 16.837,35.566L16.837,34.647C16.837,34.466 16.754,34.308 16.627,34.205L15.686,34.205Z" style="fill:rgb(242,243,244);fill-rule:nonzero;"/>
                        </g>
                        <g transform="matrix(1,0,0,1,15.2105,37.9588)">
                            <path d="M0,-1.042L-0.156,-1.042C-0.321,-1.042 -0.454,-0.925 -0.454,-0.781L-0.454,-0.261C-0.454,-0.117 -0.321,0 -0.156,0L0,0C0.165,0 0.298,-0.117 0.298,-0.261L0.298,-0.781C0.298,-0.925 0.165,-1.042 0,-1.042" style="fill:rgb(242,243,244);fill-rule:nonzero;"/>
                        </g>
                        <g transform="matrix(1,0,0,1,29.6871,39.3815)">
                            <path d="M0,-3.782C-0.089,-3.936 -0.094,-4.143 -0.241,-4.248C-0.397,-4.36 -0.664,-4.346 -0.834,-4.29C-1.292,-4.14 -1.822,-3.966 -1.916,-3.906C-2.465,-3.556 -2.968,-2.959 -3.37,-2.418C-4.087,-1.453 -4.131,0.578 -2.516,0.292C-2.212,0.239 -1.912,0.167 -1.62,0.067C-0.817,-0.208 -0.059,-0.721 0.244,-1.575C0.363,-1.914 0.403,-2.278 0.387,-2.637C0.379,-2.818 0.36,-3.001 0.323,-3.178C0.268,-3.444 0.129,-3.559 0,-3.782" style="fill:rgb(249,207,179);fill-rule:nonzero;"/>
                        </g>
                        <g transform="matrix(1,0,0,1,46.9561,37.6824)">
                            <path d="M0,-16.745C-0.203,-16.585 -0.407,-16.426 -0.61,-16.266C-2.199,-15.019 -3.735,-13.696 -5.278,-12.388C-7.461,-10.537 -9.635,-8.675 -11.806,-6.809C-12.814,-5.944 -13.821,-5.078 -14.829,-4.211C-15.258,-3.842 -15.687,-3.473 -16.116,-3.103C-16.305,-2.941 -16.499,-2.784 -16.683,-2.616C-16.988,-2.338 -16.74,-2.135 -16.91,-1.816C-17.054,-1.545 -17.644,-1.721 -17.876,-1.593C-17.941,-1.557 -18.656,-1.015 -18.646,-0.94L-18.498,0.233C-18.139,0.115 -17.871,-0.067 -17.604,-0.358C-15.838,-2.282 -2.074,-14.328 0.357,-16.52C0.632,-16.767 0.298,-16.978 0,-16.745" style="fill:rgb(48,62,67);fill-rule:nonzero;"/>
                        </g>
                        <g transform="matrix(1,0,0,1,0.420691,-10.428)">
                            <g transform="matrix(1,0,0,1,-4.7303,-0.747615)">
                                <g transform="matrix(1,0,0,1,22.8492,63.1634)">
                                    <path d="M0,-12.041L-21.137,-12.041C-21.25,-12.041 -21.346,-11.989 -21.397,-11.909C-19.637,-11.579 -15.26,-10.518 -10.265,-7.514L-8.149,-7.514C-8.104,-7.514 -8.07,-7.48 -8.075,-7.44L-8.21,-6.187C-5.903,-4.589 -3.526,-2.563 -1.261,0C-1.101,-0.002 -0.96,-0.107 -0.945,-0.236L0.3,-11.739C0.318,-11.905 0.183,-12.041 0,-12.041" style="fill:rgb(105,112,113);fill-rule:nonzero;"/>
                                </g>
                                <g transform="matrix(1,0,0,1,14.6387,57.4414)">
                                    <path d="M0,-0.465L-0.174,1.136C-0.177,1.169 -0.212,1.195 -0.253,1.195L-4.87,1.195C-4.909,1.195 -4.945,1.169 -4.949,1.136L-5.257,-1.718C-5.262,-1.758 -5.228,-1.792 -5.183,-1.792L-2.054,-1.792C-7.05,-4.796 -11.427,-5.857 -13.187,-6.187C-13.218,-6.138 -13.234,-6.08 -13.226,-6.017L-11.981,5.486C-11.967,5.616 -11.824,5.722 -11.663,5.722L6.95,5.722C4.684,3.159 2.307,1.133 0,-0.465" style="fill:rgb(129,134,134);fill-rule:nonzero;"/>
                                </g>
                                <g transform="matrix(1,0,0,1,9.4556,58.6363)">
                                    <path d="M0,-2.987C-0.045,-2.987 -0.079,-2.953 -0.074,-2.913L0.234,-0.059C0.238,-0.026 0.274,0 0.313,0L4.93,0C4.971,0 5.006,-0.026 5.009,-0.059L5.183,-1.66C4.491,-2.14 3.804,-2.581 3.129,-2.987L0,-2.987Z" style="fill:rgb(242,243,244);fill-rule:nonzero;"/>
                                </g>
                            </g>
                            <g transform="matrix(-1,0,0,1,7.9329,56.2287)">
                                <path d="M-2.037,-1.327L0.079,-1.327C-0.596,-0.921 -1.283,-0.48 -1.975,0L-2.111,-1.253C-2.116,-1.293 -2.081,-1.327 -2.037,-1.327" style="fill:rgb(226,226,226);fill-rule:nonzero;"/>
                            </g>
                        </g>
                        <g transform="matrix(-0.232828,0,0,0.232828,354.722,-410.619)">
                            <path d="M1495.43,1869.74C1495.43,1869.74 1496.44,1865.89 1497.73,1867.74C1499.02,1869.6 1498.63,1873.26 1497.68,1874.74C1496.74,1876.23 1493.43,1877.48 1493.43,1877.48L1495.43,1869.74Z" style="fill:rgb(230,180,148);"/>
                        </g>
                        <g transform="matrix(0.232828,0,0,0.232828,-334.575,-410.619)">
                            <path d="M1495.43,1869.74C1495.43,1869.74 1496.44,1865.89 1497.73,1867.74C1499.02,1869.6 1498.63,1873.26 1497.68,1874.74C1496.74,1876.23 1493.43,1877.48 1493.43,1877.48L1495.43,1869.74Z" style="fill:rgb(230,180,148);"/>
                        </g>
                    </g>
                    <g transform="matrix(0.293267,0,0,0.293267,-354.778,-517.167)">
                        <path d="M1465.14,1871.8L1466.15,1869.24L1464.43,1862.24L1464.43,1860.24C1464.43,1860.24 1465.37,1856.13 1468.01,1855.7C1470.64,1855.26 1481.22,1855.11 1482.43,1855.02C1483.64,1854.93 1486.73,1854.92 1488.43,1855.24C1490.12,1855.57 1493.28,1857.5 1493.43,1858.44C1493.57,1859.38 1492.86,1869.24 1492.86,1869.24L1493.43,1871.48C1493.43,1871.48 1496.07,1867.54 1496.43,1864.24C1496.79,1860.94 1498.5,1856.91 1498.85,1853.77C1499.3,1849.72 1498.17,1844.76 1496.03,1842.24C1496.03,1842.24 1490.3,1839.55 1485.81,1838.88C1481.33,1838.2 1477.51,1837.56 1474.13,1838.24C1470.75,1838.93 1466.81,1840.29 1466.35,1840.24C1464.9,1840.08 1463.61,1846.93 1464.43,1847.24L1462.43,1847.24C1461.69,1846.93 1459.95,1851.24 1459.97,1853.52C1459.99,1855.15 1461.99,1864.59 1462.92,1864.77L1465.14,1871.8Z" style="fill:rgb(66,66,66);"/>
                    </g>
                </g>
                <g transform="matrix(0.287841,0,0,0.271543,-344.85,-473.867)">
                    <rect x="1343.43" y="1912.24" width="159" height="81" style="fill:rgb(209,214,244);"/>
                </g>
                <g transform="matrix(1.55831,0,0,1.60272,-66.7222,-34.813)">
                    <g transform="matrix(-0.116228,-0.993223,-0.993223,0.116228,54.7165,45.2339)">
                        <path d="M-0.188,-0.211C-0.188,-0.183 -0.187,-0.154 -0.188,-0.126C-0.188,-0.028 -0.189,0.07 -0.188,0.167C-0.189,0.07 -0.188,-0.028 -0.188,-0.126L-0.188,-0.211Z" style="fill:rgb(50,49,44);fill-rule:nonzero;"/>
                    </g>
                    <g transform="matrix(1,0,0,1,58.7187,52.2441)">
                        <path d="M0,-1.93C-0.16,-1.927 -0.1,-1.467 -0.074,-1.377C0.047,-0.949 0.206,-0.435 0.583,-0.174C0.685,-0.104 0.901,-0.064 0.981,0C0.665,-0.542 0.154,-0.942 0.06,-1.586C0.043,-1.705 0.022,-1.819 0,-1.93" style="fill:rgb(249,207,179);fill-rule:nonzero;"/>
                    </g>
                    <g transform="matrix(1,0,0,1,63.1406,54.9427)">
                        <path d="M0,-1.654C-0.204,-1.642 -0.403,-1.808 -0.6,-1.776C-0.796,-1.743 -0.861,-1.539 -1.034,-1.478C-1.066,-1.467 -1.106,-1.457 -1.15,-1.448L-1.15,0.212C-0.989,0.203 -0.829,0.188 -0.67,0.155L0.574,-0.106L0.575,-0.104C0.516,-0.692 0.417,-1.315 0.553,-1.866C0.479,-1.803 0.404,-1.75 0.326,-1.713C0.406,-1.751 -0.045,-1.651 0,-1.654" style="fill:rgb(238,198,171);fill-rule:nonzero;"/>
                    </g>
                    <g transform="matrix(1,0,0,1,61.7885,52.5137)">
                        <path d="M0,2.649C0.067,2.649 0.134,2.644 0.202,2.641L0.202,0.981C0.142,0.993 0.074,1.004 0,1.012C-0.336,1.047 -0.779,1.026 -0.943,0.88C-1.306,0.558 -1.043,0.645 -1.48,0.811C-1.539,0.541 -1.784,0.26 -1.939,0C-1.788,0.384 -1.627,1.048 -1.631,1.247L-1.654,2.397L-0.557,2.599C-0.373,2.633 -0.187,2.648 0,2.649" style="fill:rgb(249,207,179);fill-rule:nonzero;"/>
                    </g>
                    <g transform="matrix(-0.064537,-0.997915,-0.997915,0.064537,63.7169,48.4534)">
                        <path d="M-0.518,-0.553C-0.521,-0.423 -0.525,-0.293 -0.526,-0.163C-0.527,0.053 -0.523,0.269 -0.518,0.486C-0.523,0.269 -0.527,0.053 -0.526,-0.163C-0.525,-0.293 -0.521,-0.423 -0.518,-0.553" style="fill:rgb(247,220,84);fill-rule:nonzero;"/>
                    </g>
                    <g transform="matrix(1,0,0,1,64.2397,49.6005)">
                        <path d="M0,0.157C-0.754,0.221 -1.503,0.253 -2.25,0.253C-1.504,0.253 -0.755,0.221 0,0.157C0.22,0.139 0.433,0.083 0.621,0.004C0.691,-0.025 0.756,-0.06 0.818,-0.096C0.756,-0.06 0.691,-0.025 0.621,0.004C0.433,0.083 0.221,0.138 0,0.157" style="fill:rgb(247,220,84);fill-rule:nonzero;"/>
                    </g>
                    <g transform="matrix(1,0,0,1,62.9291,49.0362)">
                        <path d="M0,-0.017C-0.313,-0.006 -0.626,0 -0.939,0C-0.626,0 -0.313,-0.006 0,-0.017" style="fill:rgb(247,220,84);fill-rule:nonzero;"/>
                    </g>
                    <g transform="matrix(1,0,0,1,61.9902,53.1955)">
                        <path d="M0,-3.128L0,0.299C0.044,0.29 0.084,0.28 0.116,0.269C0.289,0.208 0.354,0.004 0.551,-0.028C0.747,-0.061 0.946,0.105 1.15,0.093C1.105,0.096 1.557,-0.004 1.477,0.034C1.555,-0.003 1.63,-0.056 1.703,-0.119C2,-0.375 2.253,-0.817 2.439,-1.231C2.542,-1.459 2.624,-1.677 2.682,-1.851C2.755,-2.072 2.866,-2.27 2.971,-2.469C3.047,-2.613 3.12,-2.758 3.173,-2.914C3.229,-3.074 3.253,-3.25 3.271,-3.427C2.87,-3.274 2.446,-3.202 2.354,-3.195C1.656,-3.141 0.694,-3.128 0,-3.128" style="fill-rule:nonzero;"/>
                    </g>
                    <g transform="matrix(1,0,0,1,62.9135,47.037)">
                        <path d="M0,1.384C0.195,0.885 0.383,0.423 0.559,0C0.383,0.423 0.194,0.885 0,1.384" style="fill:rgb(247,220,84);fill-rule:nonzero;"/>
                    </g>
                    <g transform="matrix(-0.115881,0.993263,0.993263,0.115881,58.9139,48.6518)">
                        <path d="M0.21,-0.236C0.21,-0.204 0.21,-0.17 0.211,-0.138C0.21,-0.03 0.213,0.078 0.21,0.187C0.212,0.079 0.209,-0.03 0.21,-0.138C0.21,-0.17 0.21,-0.203 0.21,-0.236" style="fill:rgb(247,220,84);fill-rule:nonzero;"/>
                    </g>
                    <g transform="matrix(1,0,0,1,58.5859,49.5033)">
                        <path d="M0,-0.238C0.229,-0.115 0.557,-0.029 0.909,0C0.557,-0.029 0.229,-0.115 0,-0.238" style="fill:rgb(247,220,84);fill-rule:nonzero;"/>
                    </g>
                    <g transform="matrix(1,0,0,1,58.3774,48.8334)">
                        <path d="M0,-0.034C0.093,-0.023 0.186,-0.011 0.278,0C0.186,-0.011 0.093,-0.023 0,-0.034" style="fill:rgb(247,220,84);fill-rule:nonzero;"/>
                    </g>
                    <g transform="matrix(1,0,0,1,60.2182,45.5111)">
                        <path d="M0,0.822C-0.135,0.513 -0.261,0.235 -0.369,0C-0.261,0.235 -0.135,0.513 0,0.822" style="fill:rgb(247,220,84);fill-rule:nonzero;"/>
                    </g>
                    <g transform="matrix(1,0,0,1,60.6337,46.2509)">
                        <path d="M0,1.406C-0.249,0.956 -0.521,0.474 -0.812,0C-0.521,0.474 -0.249,0.956 0,1.406" style="fill:rgb(247,220,84);fill-rule:nonzero;"/>
                    </g>
                    <g transform="matrix(1,0,0,1,60.8456,49.9102)">
                        <path d="M0,3.484C0.164,3.63 0.606,3.651 0.943,3.615C1.017,3.608 1.084,3.597 1.145,3.585L1.145,0.157L1.138,0.157L1.138,0.158L-1.473,0.045C-1.54,0.021 -1.906,-0.022 -2.256,-0.167C-2.237,-0.092 -2.218,-0.017 -2.202,0.054C-2.176,0.168 -2.151,0.284 -2.127,0.404C-2.104,0.515 -2.084,0.629 -2.067,0.748C-1.973,1.392 -1.462,1.792 -1.146,2.334C-1.116,2.384 -1.086,2.433 -1.062,2.485C-1.042,2.524 -1.021,2.563 -0.997,2.603C-0.841,2.863 -0.596,3.144 -0.537,3.415C-0.101,3.249 -0.363,3.162 0,3.484" style="fill-rule:nonzero;"/>
                    </g>
                    <g transform="matrix(-0.053216,0.998583,0.998583,0.053216,60.7216,48.6838)">
                        <path d="M0.319,-0.336C0.319,-0.224 0.32,-0.112 0.319,-0.001C0.318,0.1 0.32,0.201 0.319,0.302C0.32,0.201 0.318,0.1 0.319,-0.001C0.32,-0.112 0.319,-0.224 0.319,-0.336" style="fill:rgb(247,220,84);fill-rule:nonzero;"/>
                    </g>
                    <g transform="matrix(-0.294251,0.955728,0.955728,0.294251,59.5408,49.2797)">
                        <path d="M0.406,-0.55C0.422,-0.481 0.437,-0.413 0.445,-0.339C0.465,-0.136 0.453,0.083 0.406,0.3C0.453,0.083 0.465,-0.136 0.445,-0.339C0.437,-0.413 0.422,-0.481 0.406,-0.55" style="fill:rgb(247,220,84);fill-rule:nonzero;"/>
                    </g>
                    <g transform="matrix(1,0,0,1,62.4706,55.5703)">
                        <path d="M0,-0.473C-0.159,-0.44 -0.319,-0.424 -0.48,-0.416L-0.48,0.252L0.9,0.227L1.444,0.218C1.444,0.218 1.465,0.224 1.505,0.236C1.527,0.242 1.557,0.251 1.59,0.261L1.245,-0.732L1.244,-0.734L0,-0.473Z" style="fill:rgb(218,233,244);fill-rule:nonzero;"/>
                    </g>
                    <g transform="matrix(1,0,0,1,59.9115,54.9485)">
                        <path d="M0,0.911L0.611,0.9L1.877,0.877L2.079,0.874L2.079,0.206C2.011,0.209 1.944,0.215 1.877,0.214C1.69,0.213 1.504,0.198 1.32,0.164L0.223,-0.038L0.169,-0.047L-0.144,0.958C-0.111,0.948 -0.082,0.938 -0.06,0.931C-0.021,0.918 0,0.911 0,0.911" style="fill:rgb(228,244,255);fill-rule:nonzero;"/>
                    </g>
                    <g transform="matrix(1,0,0,1,61.7885,63.8618)">
                        <path d="M0,-8.036L-1.266,-8.014L-1.877,-8.002C-1.877,-8.002 -1.897,-7.995 -1.937,-7.982C-1.958,-7.975 -1.988,-7.966 -2.021,-7.955C-2.198,-7.896 -2.524,-7.788 -2.924,-7.656C-4.195,-7.231 -6.177,-6.569 -6.23,-6.531C-6.284,-6.491 -6.94,-5.04 -7.335,-4.159C-7.595,-3.581 -7.734,-1.304 -7.53,0.003L0.184,0.003L0.202,-8.039L0,-8.036Z" style="fill:rgb(109,128,241);fill-rule:nonzero;"/>
                    </g>
                    <g transform="matrix(1,0,0,1,69.4989,60.2161)">
                        <path d="M0,-0.779C-0.424,-1.645 -1.128,-3.074 -1.184,-3.112C-1.239,-3.149 -3.242,-3.74 -4.527,-4.119C-4.929,-4.237 -5.26,-4.333 -5.438,-4.385C-5.471,-4.395 -5.501,-4.404 -5.523,-4.41C-5.563,-4.422 -5.584,-4.428 -5.584,-4.428L-6.128,-4.419L-7.509,-4.394L-7.526,3.649L0.164,3.649C0.429,2.401 0.297,-0.171 0,-0.779" style="fill:rgb(109,128,241);fill-rule:nonzero;"/>
                    </g>
                    <g transform="matrix(1,0,0,1,64.766,43.9285)">
                        <path d="M0,4.954L-2.776,5.107C-2.463,5.107 -2.15,5.102 -1.837,5.091L-1.82,5.091C-1.714,5.087 -1.607,5.079 -1.5,5.074C-1.285,5.064 -1.069,5.055 -0.852,5.039C-0.723,5.03 -0.594,5.017 -0.464,5.006C-0.268,4.99 -0.072,4.975 0.126,4.954C0.138,4.953 0.15,4.951 0.163,4.95C0.26,4.939 0.357,4.927 0.454,4.915C0.482,4.912 0.511,4.909 0.539,4.906C0.542,4.905 0.546,4.905 0.55,4.904C0.716,4.885 0.883,4.866 1.051,4.843C1.053,4.835 1.055,4.827 1.057,4.818C1.336,3.566 0.904,2.276 -0.111,1.395C-0.208,1.308 -0.316,1.227 -0.424,1.148L-0.464,1.221C-0.406,1.279 -0.352,1.344 -0.295,1.405C-0.243,1.462 -0.187,1.516 -0.138,1.577L-0.138,1.578C-0.195,1.662 -0.251,1.747 -0.308,1.833C-0.576,2.241 -0.831,2.666 -1.068,3.081C-1.355,3.584 -1.618,4.072 -1.853,4.493L-1.853,4.492L-1.853,4.493C-1.658,3.994 -1.47,3.531 -1.293,3.108C-1.123,2.698 -0.963,2.324 -0.827,2.011C-0.762,1.863 -0.704,1.732 -0.649,1.61C-0.564,1.418 -0.491,1.256 -0.437,1.139C-0.442,1.135 -0.448,1.13 -0.453,1.126L-0.392,1.04L-0.392,1.039C-0.353,0.956 -0.331,0.909 -0.331,0.909C-0.331,0.909 -0.328,0.885 -0.318,0.844C-0.457,0.666 -1.09,-0.042 -2.78,-0.153L-2.782,-0.153L-2.782,4.778L0,4.954Z" style="fill:rgb(247,220,84);fill-rule:nonzero;"/>
                    </g>
                    <g transform="matrix(1,0,0,1,65.3158,49.9906)">
                        <path d="M0,-1.158C-0.003,-1.158 -0.007,-1.157 -0.011,-1.157C-0.039,-1.153 -0.067,-1.149 -0.096,-1.146C-0.193,-1.135 -0.29,-1.123 -0.387,-1.112C-0.399,-1.111 -0.412,-1.109 -0.424,-1.108C-0.622,-1.088 -0.818,-1.073 -1.014,-1.056C-1.144,-1.045 -1.273,-1.032 -1.402,-1.023C-1.619,-1.008 -1.834,-0.998 -2.05,-0.989C-2.157,-0.983 -2.264,-0.975 -2.37,-0.971L-2.387,-0.971C-2.7,-0.96 -3.013,-0.954 -3.326,-0.954L-3.332,-0.954L-3.332,-0.835L-3.333,-0.711L-3.333,-0.407C-2.535,-0.407 -1.735,-0.431 -0.932,-0.479C-0.539,-0.502 -0.175,-0.602 0.069,-0.742L0.068,-0.741L0.069,-0.742C0.04,-0.715 0.013,-0.689 -0.016,-0.662C-0.021,-0.657 -0.026,-0.652 -0.031,-0.647C-0.095,-0.588 -0.174,-0.535 -0.258,-0.486C-0.32,-0.45 -0.385,-0.415 -0.456,-0.386C-0.644,-0.307 -0.856,-0.251 -1.076,-0.233C-1.831,-0.169 -2.58,-0.137 -3.326,-0.137L-3.333,-0.137L-3.333,0.077L-3.326,0.077C-2.632,0.077 -1.67,0.064 -0.971,0.01C-0.88,0.003 -0.456,-0.069 -0.055,-0.222C0.281,-0.351 0.6,-0.537 0.693,-0.793C0.737,-0.914 0.709,-1.04 0.718,-1.167C0.685,-1.194 0.666,-1.209 0.633,-1.235C0.589,-1.229 0.545,-1.225 0.501,-1.219C0.333,-1.197 0.167,-1.178 0,-1.158" style="fill:rgb(247,220,84);fill-rule:nonzero;"/>
                    </g>
                    <g transform="matrix(1,0,0,1,61.9833,48.756)">
                        <path d="M0,1.312L0,1.097C-0.754,1.097 -1.512,1.065 -2.276,1C-2.496,0.981 -2.709,0.928 -2.897,0.849C-2.965,0.82 -3.027,0.785 -3.087,0.75C-3.184,0.694 -3.273,0.634 -3.343,0.564C-3.361,0.546 -3.379,0.528 -3.397,0.509C-3.169,0.632 -2.841,0.718 -2.489,0.747C-2.466,0.749 -2.444,0.753 -2.421,0.754C-2.016,0.779 -1.612,0.797 -1.208,0.81C-0.805,0.822 -0.402,0.828 0,0.828L0,0.28C-0.32,0.28 -0.641,0.274 -0.962,0.263C-0.967,0.263 -0.972,0.262 -0.977,0.262C-1.078,0.258 -1.179,0.251 -1.28,0.247C-1.391,0.241 -1.503,0.234 -1.615,0.229C-1.72,0.223 -1.824,0.219 -1.93,0.212C-2.059,0.203 -2.188,0.189 -2.318,0.179C-2.514,0.162 -2.71,0.147 -2.908,0.126C-3.016,0.116 -3.123,0.101 -3.231,0.089C-3.263,0.085 -3.296,0.081 -3.328,0.077C-3.42,0.066 -3.513,0.055 -3.606,0.043C-3.681,0.034 -3.755,0.026 -3.831,0.016C-3.875,0.01 -3.92,0.006 -3.965,0C-3.999,0.026 -4.017,0.041 -4.05,0.067C-4.042,0.195 -4.075,0.321 -4.025,0.442C-3.915,0.708 -3.659,0.876 -3.394,0.987C-3.043,1.132 -2.678,1.175 -2.61,1.199L0,1.312Z" style="fill:rgb(247,220,84);fill-rule:nonzero;"/>
                    </g>
                    <g transform="matrix(1,0,0,1,64.2397,49.3445)">
                        <path d="M0,0.413C0.221,0.394 0.433,0.339 0.621,0.26C0.691,0.231 0.756,0.196 0.818,0.16C0.902,0.111 0.981,0.059 1.045,-0.001C1.05,-0.006 1.055,-0.011 1.061,-0.016C1.088,-0.042 1.116,-0.068 1.144,-0.095L1.145,-0.096C0.901,0.044 0.538,0.144 0.145,0.167C-0.659,0.215 -1.459,0.239 -2.256,0.239L-2.256,0.509L-2.25,0.509C-1.503,0.509 -0.754,0.477 0,0.413" style="fill:rgb(247,220,84);fill-rule:nonzero;"/>
                    </g>
                    <g transform="matrix(1,0,0,1,61.9833,49.5356)">
                        <path d="M0,0.048C-0.402,0.048 -0.805,0.042 -1.208,0.03C-1.612,0.018 -2.016,-0.001 -2.421,-0.025C-2.444,-0.027 -2.466,-0.031 -2.489,-0.033C-2.841,-0.061 -3.169,-0.147 -3.397,-0.27C-3.379,-0.252 -3.361,-0.234 -3.343,-0.216C-3.273,-0.146 -3.184,-0.085 -3.087,-0.03C-3.027,0.006 -2.965,0.04 -2.897,0.069C-2.709,0.148 -2.496,0.202 -2.276,0.22C-1.512,0.285 -0.754,0.318 0,0.318L0,0.048Z" style="fill:rgb(247,220,84);fill-rule:nonzero;"/>
                    </g>
                    <g transform="matrix(1,0,0,1,58.7524,43.9674)">
                        <path d="M0,4.877C0.107,4.889 0.216,4.904 0.323,4.915C0.521,4.936 0.717,4.951 0.913,4.967C1.042,4.978 1.172,4.991 1.301,5.001C1.407,5.008 1.511,5.012 1.616,5.017C1.728,5.023 1.84,5.03 1.951,5.035C2.052,5.04 2.153,5.047 2.254,5.051C2.259,5.051 2.264,5.051 2.269,5.052C2.59,5.063 2.911,5.069 3.231,5.069L3.237,5.068L6.014,4.915L3.231,4.739L3.231,-0.192C1.53,-0.08 0.898,0.636 0.768,0.81C0.751,0.84 0.74,0.854 0.74,0.854L0.747,0.862C0.75,0.855 0.757,0.841 0.768,0.811C0.777,0.847 0.78,0.87 0.78,0.87C0.78,0.87 0.804,0.92 0.844,1.003L0.901,1.087C0.897,1.09 0.893,1.094 0.889,1.097C0.943,1.211 1.016,1.369 1.097,1.544C1.205,1.779 1.331,2.057 1.466,2.366C1.747,3.005 2.06,3.757 2.304,4.454C2.246,4.349 2.185,4.239 2.123,4.127C2.044,3.985 1.964,3.839 1.881,3.69C1.632,3.24 1.361,2.757 1.069,2.283C0.914,2.03 0.753,1.78 0.586,1.538C0.632,1.481 0.686,1.43 0.735,1.376C0.795,1.311 0.852,1.243 0.913,1.182L0.899,1.156L0.874,1.109C0.765,1.188 0.658,1.269 0.56,1.356C-0.456,2.237 -0.888,3.527 -0.605,4.779C-0.604,4.788 -0.602,4.796 -0.6,4.804C-0.525,4.815 -0.45,4.823 -0.375,4.832C-0.282,4.843 -0.189,4.855 -0.097,4.866C-0.064,4.87 -0.032,4.874 0,4.877" style="fill:rgb(247,220,84);fill-rule:nonzero;"/>
                    </g>
                    <g transform="matrix(1,0,0,1,64.3744,48.2264)">
                        <path d="M0,-3.259L0,-3.258C-0.013,-3.23 -0.028,-3.197 -0.045,-3.159C-0.099,-3.042 -0.172,-2.88 -0.258,-2.688C-0.312,-2.566 -0.37,-2.435 -0.435,-2.287C-0.571,-1.974 -0.731,-1.6 -0.902,-1.19C-1.078,-0.767 -1.266,-0.304 -1.461,0.194L-1.461,0.195C-1.227,-0.226 -0.964,-0.714 -0.676,-1.217C-0.439,-1.632 -0.184,-2.057 0.084,-2.465C0.14,-2.551 0.196,-2.637 0.254,-2.72L0.254,-2.721C0.205,-2.782 0.149,-2.836 0.096,-2.893C0.04,-2.954 -0.014,-3.019 -0.073,-3.077L-0.033,-3.15L0.102,-3.389C0.102,-3.389 0.099,-3.395 0.098,-3.398C0.095,-3.406 0.088,-3.423 0.073,-3.454C0.064,-3.413 0.061,-3.389 0.061,-3.389C0.061,-3.389 0.039,-3.342 0,-3.259" style="fill:rgb(247,220,84);fill-rule:nonzero;"/>
                    </g>
                    <g transform="matrix(1,0,0,1,59.6659,48.0485)">
                        <path d="M0,-2.899C-0.062,-2.838 -0.119,-2.77 -0.178,-2.706C-0.228,-2.651 -0.281,-2.601 -0.327,-2.543C-0.161,-2.301 0,-2.051 0.156,-1.798C0.447,-1.324 0.719,-0.841 0.968,-0.392C1.05,-0.242 1.131,-0.096 1.209,0.045C1.271,0.158 1.332,0.268 1.391,0.372C1.146,-0.324 0.833,-1.076 0.552,-1.715C0.417,-2.024 0.292,-2.302 0.183,-2.537C0.102,-2.712 0.029,-2.87 -0.025,-2.984C-0.042,-3.021 -0.057,-3.05 -0.07,-3.078C-0.11,-3.161 -0.134,-3.211 -0.134,-3.211C-0.134,-3.211 -0.137,-3.234 -0.146,-3.271C-0.157,-3.24 -0.163,-3.226 -0.167,-3.219C-0.169,-3.216 -0.171,-3.211 -0.171,-3.211L-0.04,-2.972L-0.014,-2.925L0,-2.899Z" style="fill:rgb(247,220,84);fill-rule:nonzero;"/>
                    </g>
                </g>
                <g transform="matrix(1.55831,0,0,1.60272,-90.9447,-34.813)">
                    <g transform="matrix(-0.116228,-0.993223,-0.993223,0.116228,54.7165,45.2339)">
                        <path d="M-0.188,-0.211C-0.188,-0.183 -0.187,-0.154 -0.188,-0.126C-0.188,-0.028 -0.189,0.07 -0.188,0.167C-0.189,0.07 -0.188,-0.028 -0.188,-0.126L-0.188,-0.211Z" style="fill:rgb(50,49,44);fill-rule:nonzero;"/>
                    </g>
                    <g transform="matrix(1,0,0,1,58.7187,52.2441)">
                        <path d="M0,-1.93C-0.16,-1.927 -0.1,-1.467 -0.074,-1.377C0.047,-0.949 0.206,-0.435 0.583,-0.174C0.685,-0.104 0.901,-0.064 0.981,0C0.665,-0.542 0.154,-0.942 0.06,-1.586C0.043,-1.705 0.022,-1.819 0,-1.93" style="fill:rgb(249,207,179);fill-rule:nonzero;"/>
                    </g>
                    <g transform="matrix(1,0,0,1,63.1406,54.9427)">
                        <path d="M0,-1.654C-0.204,-1.642 -0.403,-1.808 -0.6,-1.776C-0.796,-1.743 -0.861,-1.539 -1.034,-1.478C-1.066,-1.467 -1.106,-1.457 -1.15,-1.448L-1.15,0.212C-0.989,0.203 -0.829,0.188 -0.67,0.155L0.574,-0.106L0.575,-0.104C0.516,-0.692 0.417,-1.315 0.553,-1.866C0.479,-1.803 0.404,-1.75 0.326,-1.713C0.406,-1.751 -0.045,-1.651 0,-1.654" style="fill:rgb(238,198,171);fill-rule:nonzero;"/>
                    </g>
                    <g transform="matrix(1,0,0,1,61.7885,52.5137)">
                        <path d="M0,2.649C0.067,2.649 0.134,2.644 0.202,2.641L0.202,0.981C0.142,0.993 0.074,1.004 0,1.012C-0.336,1.047 -0.779,1.026 -0.943,0.88C-1.306,0.558 -1.043,0.645 -1.48,0.811C-1.539,0.541 -1.784,0.26 -1.939,0C-1.788,0.384 -1.627,1.048 -1.631,1.247L-1.654,2.397L-0.557,2.599C-0.373,2.633 -0.187,2.648 0,2.649" style="fill:rgb(249,207,179);fill-rule:nonzero;"/>
                    </g>
                    <g transform="matrix(-0.064537,-0.997915,-0.997915,0.064537,63.7169,48.4534)">
                        <path d="M-0.518,-0.553C-0.521,-0.423 -0.525,-0.293 -0.526,-0.163C-0.527,0.053 -0.523,0.269 -0.518,0.486C-0.523,0.269 -0.527,0.053 -0.526,-0.163C-0.525,-0.293 -0.521,-0.423 -0.518,-0.553" style="fill:rgb(247,220,84);fill-rule:nonzero;"/>
                    </g>
                    <g transform="matrix(1,0,0,1,64.2397,49.6005)">
                        <path d="M0,0.157C-0.754,0.221 -1.503,0.253 -2.25,0.253C-1.504,0.253 -0.755,0.221 0,0.157C0.22,0.139 0.433,0.083 0.621,0.004C0.691,-0.025 0.756,-0.06 0.818,-0.096C0.756,-0.06 0.691,-0.025 0.621,0.004C0.433,0.083 0.221,0.138 0,0.157" style="fill:rgb(247,220,84);fill-rule:nonzero;"/>
                    </g>
                    <g transform="matrix(1,0,0,1,62.9291,49.0362)">
                        <path d="M0,-0.017C-0.313,-0.006 -0.626,0 -0.939,0C-0.626,0 -0.313,-0.006 0,-0.017" style="fill:rgb(247,220,84);fill-rule:nonzero;"/>
                    </g>
                    <g transform="matrix(1,0,0,1,61.9902,53.1955)">
                        <path d="M0,-3.128L0,0.299C0.044,0.29 0.084,0.28 0.116,0.269C0.289,0.208 0.354,0.004 0.551,-0.028C0.747,-0.061 0.946,0.105 1.15,0.093C1.105,0.096 1.557,-0.004 1.477,0.034C1.555,-0.003 1.63,-0.056 1.703,-0.119C2,-0.375 2.253,-0.817 2.439,-1.231C2.542,-1.459 2.624,-1.677 2.682,-1.851C2.755,-2.072 2.866,-2.27 2.971,-2.469C3.047,-2.613 3.12,-2.758 3.173,-2.914C3.229,-3.074 3.253,-3.25 3.271,-3.427C2.87,-3.274 2.446,-3.202 2.354,-3.195C1.656,-3.141 0.694,-3.128 0,-3.128" style="fill-rule:nonzero;"/>
                    </g>
                    <g transform="matrix(1,0,0,1,62.9135,47.037)">
                        <path d="M0,1.384C0.195,0.885 0.383,0.423 0.559,0C0.383,0.423 0.194,0.885 0,1.384" style="fill:rgb(247,220,84);fill-rule:nonzero;"/>
                    </g>
                    <g transform="matrix(-0.115881,0.993263,0.993263,0.115881,58.9139,48.6518)">
                        <path d="M0.21,-0.236C0.21,-0.204 0.21,-0.17 0.211,-0.138C0.21,-0.03 0.213,0.078 0.21,0.187C0.212,0.079 0.209,-0.03 0.21,-0.138C0.21,-0.17 0.21,-0.203 0.21,-0.236" style="fill:rgb(247,220,84);fill-rule:nonzero;"/>
                    </g>
                    <g transform="matrix(1,0,0,1,58.5859,49.5033)">
                        <path d="M0,-0.238C0.229,-0.115 0.557,-0.029 0.909,0C0.557,-0.029 0.229,-0.115 0,-0.238" style="fill:rgb(247,220,84);fill-rule:nonzero;"/>
                    </g>
                    <g transform="matrix(1,0,0,1,58.3774,48.8334)">
                        <path d="M0,-0.034C0.093,-0.023 0.186,-0.011 0.278,0C0.186,-0.011 0.093,-0.023 0,-0.034" style="fill:rgb(247,220,84);fill-rule:nonzero;"/>
                    </g>
                    <g transform="matrix(1,0,0,1,60.2182,45.5111)">
                        <path d="M0,0.822C-0.135,0.513 -0.261,0.235 -0.369,0C-0.261,0.235 -0.135,0.513 0,0.822" style="fill:rgb(247,220,84);fill-rule:nonzero;"/>
                    </g>
                    <g transform="matrix(1,0,0,1,60.6337,46.2509)">
                        <path d="M0,1.406C-0.249,0.956 -0.521,0.474 -0.812,0C-0.521,0.474 -0.249,0.956 0,1.406" style="fill:rgb(247,220,84);fill-rule:nonzero;"/>
                    </g>
                    <g transform="matrix(1,0,0,1,60.8456,49.9102)">
                        <path d="M0,3.484C0.164,3.63 0.606,3.651 0.943,3.615C1.017,3.608 1.084,3.597 1.145,3.585L1.145,0.157L1.138,0.157L1.138,0.158L-1.473,0.045C-1.54,0.021 -1.906,-0.022 -2.256,-0.167C-2.237,-0.092 -2.218,-0.017 -2.202,0.054C-2.176,0.168 -2.151,0.284 -2.127,0.404C-2.104,0.515 -2.084,0.629 -2.067,0.748C-1.973,1.392 -1.462,1.792 -1.146,2.334C-1.116,2.384 -1.086,2.433 -1.062,2.485C-1.042,2.524 -1.021,2.563 -0.997,2.603C-0.841,2.863 -0.596,3.144 -0.537,3.415C-0.101,3.249 -0.363,3.162 0,3.484" style="fill-rule:nonzero;"/>
                    </g>
                    <g transform="matrix(-0.053216,0.998583,0.998583,0.053216,60.7216,48.6838)">
                        <path d="M0.319,-0.336C0.319,-0.224 0.32,-0.112 0.319,-0.001C0.318,0.1 0.32,0.201 0.319,0.302C0.32,0.201 0.318,0.1 0.319,-0.001C0.32,-0.112 0.319,-0.224 0.319,-0.336" style="fill:rgb(247,220,84);fill-rule:nonzero;"/>
                    </g>
                    <g transform="matrix(-0.294251,0.955728,0.955728,0.294251,59.5408,49.2797)">
                        <path d="M0.406,-0.55C0.422,-0.481 0.437,-0.413 0.445,-0.339C0.465,-0.136 0.453,0.083 0.406,0.3C0.453,0.083 0.465,-0.136 0.445,-0.339C0.437,-0.413 0.422,-0.481 0.406,-0.55" style="fill:rgb(247,220,84);fill-rule:nonzero;"/>
                    </g>
                    <g transform="matrix(1,0,0,1,62.4706,55.5703)">
                        <path d="M0,-0.473C-0.159,-0.44 -0.319,-0.424 -0.48,-0.416L-0.48,0.252L0.9,0.227L1.444,0.218C1.444,0.218 1.465,0.224 1.505,0.236C1.527,0.242 1.557,0.251 1.59,0.261L1.245,-0.732L1.244,-0.734L0,-0.473Z" style="fill:rgb(218,233,244);fill-rule:nonzero;"/>
                    </g>
                    <g transform="matrix(1,0,0,1,59.9115,54.9485)">
                        <path d="M0,0.911L0.611,0.9L1.877,0.877L2.079,0.874L2.079,0.206C2.011,0.209 1.944,0.215 1.877,0.214C1.69,0.213 1.504,0.198 1.32,0.164L0.223,-0.038L0.169,-0.047L-0.144,0.958C-0.111,0.948 -0.082,0.938 -0.06,0.931C-0.021,0.918 0,0.911 0,0.911" style="fill:rgb(228,244,255);fill-rule:nonzero;"/>
                    </g>
                    <g transform="matrix(1,0,0,1,61.7885,63.8618)">
                        <path d="M0,-8.036L-1.266,-8.014L-1.877,-8.002C-1.877,-8.002 -1.897,-7.995 -1.937,-7.982C-1.958,-7.975 -1.988,-7.966 -2.021,-7.955C-2.198,-7.896 -2.524,-7.788 -2.924,-7.656C-4.195,-7.231 -6.177,-6.569 -6.23,-6.531C-6.284,-6.491 -6.94,-5.04 -7.335,-4.159C-7.595,-3.581 -7.734,-1.304 -7.53,0.003L0.184,0.003L0.202,-8.039L0,-8.036Z" style="fill:rgb(109,128,241);fill-rule:nonzero;"/>
                    </g>
                    <g transform="matrix(1,0,0,1,69.4989,60.2161)">
                        <path d="M0,-0.779C-0.424,-1.645 -1.128,-3.074 -1.184,-3.112C-1.239,-3.149 -3.242,-3.74 -4.527,-4.119C-4.929,-4.237 -5.26,-4.333 -5.438,-4.385C-5.471,-4.395 -5.501,-4.404 -5.523,-4.41C-5.563,-4.422 -5.584,-4.428 -5.584,-4.428L-6.128,-4.419L-7.509,-4.394L-7.526,3.649L0.164,3.649C0.429,2.401 0.297,-0.171 0,-0.779" style="fill:rgb(109,128,241);fill-rule:nonzero;"/>
                    </g>
                    <g transform="matrix(1,0,0,1,64.766,43.9285)">
                        <path d="M0,4.954L-2.776,5.107C-2.463,5.107 -2.15,5.102 -1.837,5.091L-1.82,5.091C-1.714,5.087 -1.607,5.079 -1.5,5.074C-1.285,5.064 -1.069,5.055 -0.852,5.039C-0.723,5.03 -0.594,5.017 -0.464,5.006C-0.268,4.99 -0.072,4.975 0.126,4.954C0.138,4.953 0.15,4.951 0.163,4.95C0.26,4.939 0.357,4.927 0.454,4.915C0.482,4.912 0.511,4.909 0.539,4.906C0.542,4.905 0.546,4.905 0.55,4.904C0.716,4.885 0.883,4.866 1.051,4.843C1.053,4.835 1.055,4.827 1.057,4.818C1.336,3.566 0.904,2.276 -0.111,1.395C-0.208,1.308 -0.316,1.227 -0.424,1.148L-0.464,1.221C-0.406,1.279 -0.352,1.344 -0.295,1.405C-0.243,1.462 -0.187,1.516 -0.138,1.577L-0.138,1.578C-0.195,1.662 -0.251,1.747 -0.308,1.833C-0.576,2.241 -0.831,2.666 -1.068,3.081C-1.355,3.584 -1.618,4.072 -1.853,4.493L-1.853,4.492L-1.853,4.493C-1.658,3.994 -1.47,3.531 -1.293,3.108C-1.123,2.698 -0.963,2.324 -0.827,2.011C-0.762,1.863 -0.704,1.732 -0.649,1.61C-0.564,1.418 -0.491,1.256 -0.437,1.139C-0.442,1.135 -0.448,1.13 -0.453,1.126L-0.392,1.04L-0.392,1.039C-0.353,0.956 -0.331,0.909 -0.331,0.909C-0.331,0.909 -0.328,0.885 -0.318,0.844C-0.457,0.666 -1.09,-0.042 -2.78,-0.153L-2.782,-0.153L-2.782,4.778L0,4.954Z" style="fill:rgb(247,220,84);fill-rule:nonzero;"/>
                    </g>
                    <g transform="matrix(1,0,0,1,65.3158,49.9906)">
                        <path d="M0,-1.158C-0.003,-1.158 -0.007,-1.157 -0.011,-1.157C-0.039,-1.153 -0.067,-1.149 -0.096,-1.146C-0.193,-1.135 -0.29,-1.123 -0.387,-1.112C-0.399,-1.111 -0.412,-1.109 -0.424,-1.108C-0.622,-1.088 -0.818,-1.073 -1.014,-1.056C-1.144,-1.045 -1.273,-1.032 -1.402,-1.023C-1.619,-1.008 -1.834,-0.998 -2.05,-0.989C-2.157,-0.983 -2.264,-0.975 -2.37,-0.971L-2.387,-0.971C-2.7,-0.96 -3.013,-0.954 -3.326,-0.954L-3.332,-0.954L-3.332,-0.835L-3.333,-0.711L-3.333,-0.407C-2.535,-0.407 -1.735,-0.431 -0.932,-0.479C-0.539,-0.502 -0.175,-0.602 0.069,-0.742L0.068,-0.741L0.069,-0.742C0.04,-0.715 0.013,-0.689 -0.016,-0.662C-0.021,-0.657 -0.026,-0.652 -0.031,-0.647C-0.095,-0.588 -0.174,-0.535 -0.258,-0.486C-0.32,-0.45 -0.385,-0.415 -0.456,-0.386C-0.644,-0.307 -0.856,-0.251 -1.076,-0.233C-1.831,-0.169 -2.58,-0.137 -3.326,-0.137L-3.333,-0.137L-3.333,0.077L-3.326,0.077C-2.632,0.077 -1.67,0.064 -0.971,0.01C-0.88,0.003 -0.456,-0.069 -0.055,-0.222C0.281,-0.351 0.6,-0.537 0.693,-0.793C0.737,-0.914 0.709,-1.04 0.718,-1.167C0.685,-1.194 0.666,-1.209 0.633,-1.235C0.589,-1.229 0.545,-1.225 0.501,-1.219C0.333,-1.197 0.167,-1.178 0,-1.158" style="fill:rgb(247,220,84);fill-rule:nonzero;"/>
                    </g>
                    <g transform="matrix(1,0,0,1,61.9833,48.756)">
                        <path d="M0,1.312L0,1.097C-0.754,1.097 -1.512,1.065 -2.276,1C-2.496,0.981 -2.709,0.928 -2.897,0.849C-2.965,0.82 -3.027,0.785 -3.087,0.75C-3.184,0.694 -3.273,0.634 -3.343,0.564C-3.361,0.546 -3.379,0.528 -3.397,0.509C-3.169,0.632 -2.841,0.718 -2.489,0.747C-2.466,0.749 -2.444,0.753 -2.421,0.754C-2.016,0.779 -1.612,0.797 -1.208,0.81C-0.805,0.822 -0.402,0.828 0,0.828L0,0.28C-0.32,0.28 -0.641,0.274 -0.962,0.263C-0.967,0.263 -0.972,0.262 -0.977,0.262C-1.078,0.258 -1.179,0.251 -1.28,0.247C-1.391,0.241 -1.503,0.234 -1.615,0.229C-1.72,0.223 -1.824,0.219 -1.93,0.212C-2.059,0.203 -2.188,0.189 -2.318,0.179C-2.514,0.162 -2.71,0.147 -2.908,0.126C-3.016,0.116 -3.123,0.101 -3.231,0.089C-3.263,0.085 -3.296,0.081 -3.328,0.077C-3.42,0.066 -3.513,0.055 -3.606,0.043C-3.681,0.034 -3.755,0.026 -3.831,0.016C-3.875,0.01 -3.92,0.006 -3.965,0C-3.999,0.026 -4.017,0.041 -4.05,0.067C-4.042,0.195 -4.075,0.321 -4.025,0.442C-3.915,0.708 -3.659,0.876 -3.394,0.987C-3.043,1.132 -2.678,1.175 -2.61,1.199L0,1.312Z" style="fill:rgb(247,220,84);fill-rule:nonzero;"/>
                    </g>
                    <g transform="matrix(1,0,0,1,64.2397,49.3445)">
                        <path d="M0,0.413C0.221,0.394 0.433,0.339 0.621,0.26C0.691,0.231 0.756,0.196 0.818,0.16C0.902,0.111 0.981,0.059 1.045,-0.001C1.05,-0.006 1.055,-0.011 1.061,-0.016C1.088,-0.042 1.116,-0.068 1.144,-0.095L1.145,-0.096C0.901,0.044 0.538,0.144 0.145,0.167C-0.659,0.215 -1.459,0.239 -2.256,0.239L-2.256,0.509L-2.25,0.509C-1.503,0.509 -0.754,0.477 0,0.413" style="fill:rgb(247,220,84);fill-rule:nonzero;"/>
                    </g>
                    <g transform="matrix(1,0,0,1,61.9833,49.5356)">
                        <path d="M0,0.048C-0.402,0.048 -0.805,0.042 -1.208,0.03C-1.612,0.018 -2.016,-0.001 -2.421,-0.025C-2.444,-0.027 -2.466,-0.031 -2.489,-0.033C-2.841,-0.061 -3.169,-0.147 -3.397,-0.27C-3.379,-0.252 -3.361,-0.234 -3.343,-0.216C-3.273,-0.146 -3.184,-0.085 -3.087,-0.03C-3.027,0.006 -2.965,0.04 -2.897,0.069C-2.709,0.148 -2.496,0.202 -2.276,0.22C-1.512,0.285 -0.754,0.318 0,0.318L0,0.048Z" style="fill:rgb(247,220,84);fill-rule:nonzero;"/>
                    </g>
                    <g transform="matrix(1,0,0,1,58.7524,43.9674)">
                        <path d="M0,4.877C0.107,4.889 0.216,4.904 0.323,4.915C0.521,4.936 0.717,4.951 0.913,4.967C1.042,4.978 1.172,4.991 1.301,5.001C1.407,5.008 1.511,5.012 1.616,5.017C1.728,5.023 1.84,5.03 1.951,5.035C2.052,5.04 2.153,5.047 2.254,5.051C2.259,5.051 2.264,5.051 2.269,5.052C2.59,5.063 2.911,5.069 3.231,5.069L3.237,5.068L6.014,4.915L3.231,4.739L3.231,-0.192C1.53,-0.08 0.898,0.636 0.768,0.81C0.751,0.84 0.74,0.854 0.74,0.854L0.747,0.862C0.75,0.855 0.757,0.841 0.768,0.811C0.777,0.847 0.78,0.87 0.78,0.87C0.78,0.87 0.804,0.92 0.844,1.003L0.901,1.087C0.897,1.09 0.893,1.094 0.889,1.097C0.943,1.211 1.016,1.369 1.097,1.544C1.205,1.779 1.331,2.057 1.466,2.366C1.747,3.005 2.06,3.757 2.304,4.454C2.246,4.349 2.185,4.239 2.123,4.127C2.044,3.985 1.964,3.839 1.881,3.69C1.632,3.24 1.361,2.757 1.069,2.283C0.914,2.03 0.753,1.78 0.586,1.538C0.632,1.481 0.686,1.43 0.735,1.376C0.795,1.311 0.852,1.243 0.913,1.182L0.899,1.156L0.874,1.109C0.765,1.188 0.658,1.269 0.56,1.356C-0.456,2.237 -0.888,3.527 -0.605,4.779C-0.604,4.788 -0.602,4.796 -0.6,4.804C-0.525,4.815 -0.45,4.823 -0.375,4.832C-0.282,4.843 -0.189,4.855 -0.097,4.866C-0.064,4.87 -0.032,4.874 0,4.877" style="fill:rgb(247,220,84);fill-rule:nonzero;"/>
                    </g>
                    <g transform="matrix(1,0,0,1,64.3744,48.2264)">
                        <path d="M0,-3.259L0,-3.258C-0.013,-3.23 -0.028,-3.197 -0.045,-3.159C-0.099,-3.042 -0.172,-2.88 -0.258,-2.688C-0.312,-2.566 -0.37,-2.435 -0.435,-2.287C-0.571,-1.974 -0.731,-1.6 -0.902,-1.19C-1.078,-0.767 -1.266,-0.304 -1.461,0.194L-1.461,0.195C-1.227,-0.226 -0.964,-0.714 -0.676,-1.217C-0.439,-1.632 -0.184,-2.057 0.084,-2.465C0.14,-2.551 0.196,-2.637 0.254,-2.72L0.254,-2.721C0.205,-2.782 0.149,-2.836 0.096,-2.893C0.04,-2.954 -0.014,-3.019 -0.073,-3.077L-0.033,-3.15L0.102,-3.389C0.102,-3.389 0.099,-3.395 0.098,-3.398C0.095,-3.406 0.088,-3.423 0.073,-3.454C0.064,-3.413 0.061,-3.389 0.061,-3.389C0.061,-3.389 0.039,-3.342 0,-3.259" style="fill:rgb(247,220,84);fill-rule:nonzero;"/>
                    </g>
                    <g transform="matrix(1,0,0,1,59.6659,48.0485)">
                        <path d="M0,-2.899C-0.062,-2.838 -0.119,-2.77 -0.178,-2.706C-0.228,-2.651 -0.281,-2.601 -0.327,-2.543C-0.161,-2.301 0,-2.051 0.156,-1.798C0.447,-1.324 0.719,-0.841 0.968,-0.392C1.05,-0.242 1.131,-0.096 1.209,0.045C1.271,0.158 1.332,0.268 1.391,0.372C1.146,-0.324 0.833,-1.076 0.552,-1.715C0.417,-2.024 0.292,-2.302 0.183,-2.537C0.102,-2.712 0.029,-2.87 -0.025,-2.984C-0.042,-3.021 -0.057,-3.05 -0.07,-3.078C-0.11,-3.161 -0.134,-3.211 -0.134,-3.211C-0.134,-3.211 -0.137,-3.234 -0.146,-3.271C-0.157,-3.24 -0.163,-3.226 -0.167,-3.219C-0.169,-3.216 -0.171,-3.211 -0.171,-3.211L-0.04,-2.972L-0.014,-2.925L0,-2.899Z" style="fill:rgb(247,220,84);fill-rule:nonzero;"/>
                    </g>
                </g>
            </g>
            <g id="Background-Complete" serif:id="Background Complete">
            </g>
            <g id="Floor">
            </g>
            <g id="Plant">
            </g>
            <g id="Device">
            </g>
            <g id="Character">
            </g>
            <g id="-1" serif:id=" 1">
            </g>
            <g id="-11" serif:id=" 1">
            </g>
            <g transform="matrix(1,0,0,1,23.5298,-68.6996)">
                <path d="M54,456L414,456" style="fill:none;stroke:black;stroke-width:1px;"/>
            </g>
            <g id="-12" serif:id=" 1">
            </g>
        </g>
        <g id="Layer-1" serif:id="Layer 1">
        </g>
        <g id="-13" serif:id=" 1">
        </g>
        <g id="Padlock">
        </g>
        <g id="Speech-Bubble" serif:id="Speech Bubble">
        </g>
    </g>
</svg>
