<?xml version="1.0" encoding="UTF-8" standalone="no"?>
<!DOCTYPE svg PUBLIC "-//W3C//DTD SVG 1.1//EN" "http://www.w3.org/Graphics/SVG/1.1/DTD/svg11.dtd">
<svg width="100%" height="100%" viewBox="0 0 500 500" version="1.1" xmlns="http://www.w3.org/2000/svg" xmlns:xlink="http://www.w3.org/1999/xlink" xml:space="preserve" xmlns:serif="http://www.serif.com/" style="fill-rule:evenodd;clip-rule:evenodd;stroke-linecap:round;stroke-linejoin:round;stroke-miterlimit:1.5;">
    <g transform="matrix(1,0,0,1,0,-1606.24)">
        <g id="Artboard1" transform="matrix(1,0,0,1,0,1606.24)">
            <rect x="0" y="0" width="499.999" height="500" style="fill:none;"/>
            <g transform="matrix(1,0,0,1,-11.453,-65.4534)">
                <path d="M85.026,453C68.756,424.533 59.453,391.571 59.453,356.453C59.453,248.83 146.83,161.453 254.453,161.453C362.076,161.453 449.453,248.83 449.453,356.453C449.453,391.571 440.15,424.533 423.88,453L85.026,453Z" style="fill:rgb(220,245,226);"/>
            </g>
            <g id="Background-Complete" serif:id="Background Complete">
            </g>
            <g id="Floor">
            </g>
            <g id="Plant">
            </g>
            <g id="Device">
            </g>
            <g id="Character">
            </g>
            <g transform="matrix(1,0,0,1,11.4675,-68.6996)">
                <path d="M54,456L414,456" style="fill:none;stroke:black;stroke-width:1px;"/>
            </g>
            <g transform="matrix(1,0,0,1,11.4675,-68.6996)">
                <path d="M54,456L414,456" style="fill:none;stroke:black;stroke-width:1px;"/>
            </g>
            <g id="Слой-1" serif:id="Слой 1">
            </g>
            <g transform="matrix(4.45386,0,0,4.45386,-933.046,-447.438)">
                <path d="M283.624,124.481L259.918,119.494L250.961,150.711L252.273,153.53L252.886,151.116L277.32,156.256L276.909,158.713L279.246,156.661L283.624,124.481Z" style="fill:rgb(159,168,243);fill-rule:nonzero;"/>
            </g>
            <g transform="matrix(4.45386,0,0,4.45386,-933.046,-447.438)">
                <path d="M272.454,139.109C271.723,139.702 270.866,140.115 269.886,140.344C267.725,140.852 265.402,140.282 263.729,138.833C262.97,138.176 262.405,137.415 262.036,136.552C260.239,132.339 263.815,127.475 263.964,127.275C264.112,127.077 264.368,126.996 264.6,127.053L264.792,127.138C265.06,127.318 265.125,127.671 264.936,127.927C264.904,127.971 261.631,132.477 263.182,136.059C263.689,137.229 264.665,138.179 266.094,138.9C266.609,139.16 267.184,139.301 267.762,139.31C269.365,139.333 270.674,138.945 271.671,138.143C274.725,135.692 273.946,130.192 273.938,130.137C273.891,129.823 274.114,129.541 274.436,129.506L274.646,129.52C274.878,129.577 275.067,129.767 275.104,130.01C275.142,130.256 276.022,136.214 272.454,139.109Z" style="fill:rgb(175,175,176);fill-rule:nonzero;"/>
            </g>
            <g transform="matrix(4.45386,0,0,4.45386,-933.046,-447.438)">
                <path d="M282.391,125.939L260.459,121.325L252.273,153.53L276.909,158.713L282.391,125.939Z" style="fill:rgb(199,204,250);fill-rule:nonzero;"/>
            </g>
            <g transform="matrix(4.45386,0,0,4.45386,-933.046,-447.438)">
                <path d="M266.235,126.392C266.103,127.094 265.401,127.534 264.667,127.38C263.932,127.225 263.437,126.533 263.561,125.83C263.686,125.122 264.39,124.672 265.132,124.828C265.875,124.985 266.369,125.687 266.235,126.392Z" style="fill:rgb(128,129,131);fill-rule:nonzero;"/>
            </g>
            <g transform="matrix(4.45386,0,0,4.45386,-933.046,-447.438)">
                <path d="M276.247,128.498C276.082,129.193 275.354,129.628 274.62,129.473C273.885,129.319 273.417,128.632 273.573,127.936C273.73,127.235 274.46,126.79 275.204,126.947C275.946,127.103 276.413,127.8 276.247,128.498Z" style="fill:rgb(128,129,131);fill-rule:nonzero;"/>
            </g>
            <g transform="matrix(4.45386,0,0,4.45386,-933.046,-447.438)">
                <path d="M259.918,119.494L263.087,121.062L260.459,121.325L282.391,125.939L280.381,124.66L283.624,124.481L259.918,119.494Z" style="fill:rgb(96,103,185);fill-rule:nonzero;"/>
            </g>
            <g transform="matrix(4.45386,0,0,4.45386,-933.046,-447.438)">
                <path d="M273.036,136.521C272.315,137.099 271.468,137.5 270.501,137.722C268.369,138.213 266.072,137.649 264.415,136.228C263.665,135.584 263.104,134.838 262.738,133.993C260.95,129.867 264.469,125.115 264.616,124.92C264.761,124.727 265.013,124.649 265.243,124.705L265.434,124.789C265.699,124.965 265.764,125.311 265.578,125.561C265.545,125.604 262.326,130.006 263.868,133.514C264.372,134.66 265.337,135.592 266.751,136.3C267.261,136.555 267.831,136.695 268.401,136.705C269.985,136.732 271.277,136.355 272.26,135.574C275.272,133.184 274.49,127.8 274.481,127.747C274.434,127.439 274.654,127.164 274.971,127.131L275.18,127.145C275.41,127.201 275.595,127.387 275.633,127.626C275.671,127.866 276.554,133.698 273.036,136.521Z" style="fill:white;fill-rule:nonzero;"/>
            </g>
            <g transform="matrix(4.45386,0,0,4.45386,-933.046,-447.438)">
                <path d="M250.961,150.711L253.064,150.415L252.273,153.53L250.961,150.711Z" style="fill:rgb(213,167,41);fill-rule:nonzero;"/>
            </g>
            <g transform="matrix(4.45386,0,0,4.45386,-933.046,-447.438)">
                <path d="M279.246,156.661L277.57,155.57L276.909,158.713L279.246,156.661Z" style="fill:rgb(213,167,41);fill-rule:nonzero;"/>
            </g>
            <g transform="matrix(4.45386,0,0,4.45386,-933.046,-447.438)">
                <path d="M261.398,123.799L238.962,132.931L249.007,163.816L251.672,165.418L250.83,163.074L273.956,153.66L274.99,155.927L275.778,152.919L261.398,123.799Z" style="fill:rgb(160,167,243);fill-rule:nonzero;"/>
            </g>
            <g transform="matrix(4.45386,0,0,4.45386,-933.046,-447.438)">
                <path d="M252.056,120.839C251.247,120.358 250.338,120.075 249.336,119.99C247.125,119.802 244.909,120.703 243.463,122.38C242.809,123.14 242.361,123.976 242.122,124.883C240.956,129.312 245.2,133.605 245.376,133.782C245.551,133.955 245.816,133.998 246.037,133.908L246.215,133.796C246.455,133.579 246.467,133.221 246.243,132.995C246.205,132.956 242.313,128.973 243.327,125.204C243.658,123.972 244.485,122.891 245.794,121.97C246.266,121.638 246.815,121.415 247.385,121.323C248.967,121.066 250.319,121.261 251.422,121.908C254.799,123.89 254.829,129.446 254.829,129.5C254.828,129.818 255.089,130.065 255.413,130.053L255.619,130.008C255.84,129.918 255.999,129.703 256,129.457C256.002,129.208 256.006,123.186 252.056,120.839Z" style="fill:white;fill-rule:nonzero;"/>
            </g>
            <g transform="matrix(4.45386,0,0,4.45386,-933.046,-447.438)">
                <path d="M261.193,125.697L240.435,134.147L251.672,165.418L274.99,155.927L261.193,125.697Z" style="fill:rgb(199,204,250);fill-rule:nonzero;"/>
            </g>
            <g transform="matrix(4.45386,0,0,4.45386,-933.046,-447.438)">
                <path d="M248.057,135.114C248.34,135.769 248.004,136.527 247.309,136.81C246.615,137.093 245.817,136.797 245.526,136.144C245.234,135.488 245.565,134.721 246.268,134.435C246.971,134.148 247.773,134.454 248.057,135.114Z" style="fill:rgb(128,129,131);fill-rule:nonzero;"/>
            </g>
            <g transform="matrix(4.45386,0,0,4.45386,-933.046,-447.438)">
                <path d="M257.532,131.257C257.786,131.925 257.424,132.692 256.73,132.975C256.035,133.258 255.262,132.952 255.002,132.287C254.741,131.618 255.097,130.841 255.799,130.554C256.502,130.268 257.28,130.585 257.532,131.257Z" style="fill:rgb(128,129,131);fill-rule:nonzero;"/>
            </g>
            <g transform="matrix(4.45386,0,0,4.45386,-933.046,-447.438)">
                <path d="M238.962,132.931L242.465,132.458L240.435,134.147L261.193,125.697L258.812,125.762L261.398,123.799L238.962,132.931Z" style="fill:rgb(96,103,185);fill-rule:nonzero;"/>
            </g>
            <g transform="matrix(4.45386,0,0,4.45386,-933.046,-447.438)">
                <path d="M253.008,123.315C252.21,122.848 251.315,122.574 250.327,122.495C248.145,122.319 245.954,123.211 244.521,124.858C243.872,125.604 243.426,126.424 243.186,127.313C242.017,131.655 246.189,135.844 246.363,136.016C246.535,136.186 246.795,136.227 247.014,136.138L247.191,136.028C247.428,135.814 247.442,135.463 247.221,135.242C247.184,135.204 243.358,131.318 244.375,127.622C244.706,126.415 245.527,125.353 246.823,124.447C247.29,124.12 247.833,123.899 248.395,123.807C249.958,123.55 251.292,123.735 252.378,124.364C255.706,126.292 255.713,131.732 255.713,131.786C255.711,132.097 255.968,132.338 256.288,132.325L256.492,132.281C256.709,132.191 256.868,131.98 256.871,131.739C256.874,131.495 256.9,125.597 253.008,123.315Z" style="fill:white;fill-rule:nonzero;"/>
            </g>
            <g transform="matrix(4.45386,0,0,4.45386,-933.046,-447.438)">
                <path d="M249.007,163.816L250.585,162.393L251.672,165.418L249.007,163.816Z" style="fill:rgb(213,167,41);fill-rule:nonzero;"/>
            </g>
            <g transform="matrix(4.45386,0,0,4.45386,-933.046,-447.438)">
                <path d="M275.778,152.919L273.779,152.952L274.99,155.927L275.778,152.919Z" style="fill:rgb(213,167,41);fill-rule:nonzero;"/>
            </g>
            <g transform="matrix(4.45386,0,0,4.45386,-933.046,-447.438)">
                <path d="M276.891,131.553L252.667,131.553L250.328,163.946L252.192,166.434L252.295,163.946L277.264,163.946L277.368,166.434L279.231,163.946L276.891,131.553Z" style="fill:rgb(110,122,237);fill-rule:nonzero;"/>
            </g>
            <g transform="matrix(4.45386,0,0,4.45386,-933.046,-447.438)">
                <path d="M269.354,125.29C268.786,124.539 268.051,123.935 267.156,123.478C265.178,122.469 262.786,122.469 260.815,123.478C259.922,123.935 259.191,124.539 258.627,125.29C255.878,128.953 258.191,134.529 258.288,134.759C258.384,134.986 258.613,135.125 258.851,135.125L259.06,135.089C259.363,134.978 259.509,134.651 259.387,134.357C259.366,134.306 257.264,129.151 259.624,126.041C260.394,125.026 261.568,124.336 263.128,123.976C263.69,123.847 264.283,123.847 264.846,123.976C266.408,124.336 267.586,125.026 268.365,126.041C270.745,129.151 268.677,134.306 268.657,134.357C268.537,134.651 268.685,134.978 268.989,135.089L269.197,135.125C269.436,135.125 269.664,134.986 269.758,134.759C269.854,134.529 272.128,128.953 269.354,125.29Z" style="fill:rgb(133,141,216);fill-rule:nonzero;"/>
            </g>
            <g transform="matrix(4.45386,0,0,4.45386,-933.046,-447.438)">
                <path d="M275.986,133.234L253.574,133.234L252.192,166.434L277.368,166.434L275.986,133.234Z" style="fill:rgb(146,153,244);fill-rule:nonzero;"/>
            </g>
            <g transform="matrix(4.45386,0,0,4.45386,-933.046,-447.438)">
                <path d="M260.269,137.004C260.284,137.718 259.687,138.293 258.937,138.293C258.186,138.293 257.558,137.718 257.536,137.004C257.512,136.285 258.109,135.7 258.868,135.7C259.626,135.7 260.254,136.285 260.269,137.004Z" style="fill:white;fill-rule:nonzero;"/>
            </g>
            <g transform="matrix(4.45386,0,0,4.45386,-933.046,-447.438)">
                <path d="M270.5,137.004C270.481,137.718 269.858,138.293 269.108,138.293C268.358,138.293 267.757,137.718 267.767,137.004C267.776,136.285 268.4,135.7 269.159,135.7C269.918,135.7 270.518,136.285 270.5,137.004Z" style="fill:white;fill-rule:nonzero;"/>
            </g>
            <g transform="matrix(4.45386,0,0,4.45386,-933.046,-447.438)">
                <path d="M252.667,131.553L256.09,132.435L253.574,133.234L275.986,133.234L273.755,132.397L276.891,131.553L252.667,131.553Z" style="fill:rgb(95,104,185);fill-rule:nonzero;"/>
            </g>
            <g transform="matrix(4.45386,0,0,4.45386,-933.046,-447.438)">
                <path d="M269.302,127.942C268.74,127.209 268.014,126.618 267.128,126.171C265.173,125.186 262.808,125.186 260.861,126.171C259.978,126.618 259.255,127.209 258.699,127.942C255.978,131.523 258.263,136.976 258.359,137.2C258.454,137.423 258.68,137.559 258.917,137.559L259.122,137.523C259.422,137.415 259.566,137.095 259.446,136.808C259.424,136.758 257.347,131.716 259.682,128.676C260.444,127.684 261.605,127.01 263.147,126.658C263.703,126.532 264.289,126.532 264.845,126.658C266.389,127.01 267.555,127.684 268.324,128.676C270.678,131.716 268.634,136.758 268.615,136.808C268.496,137.095 268.643,137.415 268.943,137.523L269.149,137.559C269.385,137.559 269.611,137.423 269.705,137.2C269.798,136.976 272.046,131.523 269.302,127.942Z" style="fill:rgb(107,119,240);fill-rule:nonzero;"/>
            </g>
            <g transform="matrix(4.45386,0,0,4.45386,-933.046,-447.438)">
                <path d="M250.328,163.946L252.325,163.223L252.192,166.434L250.328,163.946Z" style="fill:rgb(12,120,151);fill-rule:nonzero;"/>
            </g>
            <g transform="matrix(4.45386,0,0,4.45386,-933.046,-447.438)">
                <path d="M279.231,163.946L277.368,163.223L277.368,166.434L279.231,163.946Z" style="fill:rgb(12,120,151);fill-rule:nonzero;"/>
            </g>
            <g transform="matrix(4.45386,0,0,4.45386,-933.046,-447.438)">
                <path d="M278.353,156.725L273.625,156.725L274.5,151.856L279.577,151.856L278.353,156.725ZM276.805,162.882L272.521,162.882L273.234,158.91L277.803,158.91L276.805,162.882ZM275.523,167.985L271.605,167.985L272.198,164.683L276.353,164.683L275.523,167.985ZM266.599,156.725L266.953,151.856L272.03,151.856L271.326,156.725L266.599,156.725ZM270.436,162.882L266.152,162.882L266.441,158.91L271.01,158.91L270.436,162.882ZM269.699,167.985L265.782,167.985L266.021,164.683L270.176,164.683L269.699,167.985ZM264.299,156.725L259.573,156.725L259.406,151.856L264.483,151.856L264.299,156.725ZM264.068,162.882L259.782,162.882L259.647,158.91L264.217,158.91L264.068,162.882ZM263.875,167.985L259.958,167.985L259.845,164.683L264,164.683L263.875,167.985ZM254.134,167.985L253.668,164.683L257.823,164.683L258.051,167.985L254.134,167.985ZM252.854,158.91L257.423,158.91L257.699,162.882L253.415,162.882L252.854,158.91ZM251.859,151.856L256.936,151.856L257.273,156.725L252.545,156.725L251.859,151.856ZM248.31,167.985L247.492,164.683L251.647,164.683L252.228,167.985L248.31,167.985ZM246.061,158.91L250.63,158.91L251.33,162.882L247.045,162.882L246.061,158.91ZM245.519,156.725L244.312,151.856L249.389,151.856L250.246,156.725L245.519,156.725ZM288.645,140.075C288.173,139.563 287.374,139.538 286.871,140.02L282.012,143.822C281.857,143.97 281.743,144.157 281.681,144.363L280.067,149.762C279.847,149.697 279.615,149.657 279.371,149.657L244.276,149.657C242.675,149.657 241.522,151.193 241.967,152.73L245.95,167.285C246.47,169.19 248.201,170.51 250.174,170.51L273.472,170.51C274.449,170.511 274.088,171.545 273.819,172.045C273.431,172.762 272.786,173.314 271.955,173.412L251.199,175.879C250.079,176.011 249.229,177.06 249.229,178.309C249.229,179.659 250.216,180.753 251.434,180.753L275.491,180.753C276.131,180.753 276.651,180.234 276.651,179.593C276.651,178.952 276.131,178.433 275.491,178.433L257.092,178.433C256.538,178.433 256.482,177.62 257.032,177.544L273.241,175.308C275.042,175.06 276.376,173.335 276.324,171.325L276.276,169.48C276.944,168.922 277.456,168.171 277.697,167.285L281.34,153.966L283.952,145.846C284.009,145.666 284.108,145.501 284.239,145.365L288.625,141.778C289.082,141.305 289.089,140.559 288.645,140.075Z" style="fill:rgb(61,69,145);fill-rule:nonzero;"/>
            </g>
            <g transform="matrix(4.45386,0,0,4.45386,-933.046,-447.438)">
                <path d="M257.207,183.631C257.207,185.314 255.842,186.678 254.16,186.678C252.477,186.678 251.113,185.314 251.113,183.631C251.113,181.948 252.477,180.584 254.16,180.584C255.842,180.584 257.207,181.948 257.207,183.631Z" style="fill:rgb(5,35,52);fill-rule:nonzero;"/>
            </g>
            <g transform="matrix(4.45386,0,0,4.45386,-933.046,-447.438)">
                <path d="M256.268,183.631C256.268,184.795 255.324,185.74 254.16,185.74C252.995,185.74 252.051,184.795 252.051,183.631C252.051,182.466 252.995,181.522 254.16,181.522C255.324,181.522 256.268,182.466 256.268,183.631Z" style="fill:rgb(175,175,176);fill-rule:nonzero;"/>
            </g>
            <g transform="matrix(4.45386,0,0,4.45386,-933.046,-447.438)">
                <path d="M254.16,179.153C253.67,179.153 253.271,179.553 253.271,180.041L253.271,183.427C253.271,183.916 253.67,184.316 254.16,184.316C254.648,184.316 255.048,183.916 255.048,183.427L255.048,180.041C255.048,179.553 254.648,179.153 254.16,179.153Z" style="fill:rgb(61,68,146);fill-rule:nonzero;"/>
            </g>
            <g transform="matrix(4.45386,0,0,4.45386,-933.046,-447.438)">
                <path d="M274.514,183.631C274.514,185.314 273.15,186.678 271.467,186.678C269.785,186.678 268.42,185.314 268.42,183.631C268.42,181.948 269.785,180.584 271.467,180.584C273.15,180.584 274.514,181.948 274.514,183.631Z" style="fill-rule:nonzero;"/>
            </g>
            <g transform="matrix(4.45386,0,0,4.45386,-933.046,-447.438)">
                <path d="M273.576,183.631C273.576,184.795 272.632,185.74 271.467,185.74C270.303,185.74 269.359,184.795 269.359,183.631C269.359,182.466 270.303,181.522 271.467,181.522C272.632,181.522 273.576,182.466 273.576,183.631Z" style="fill:rgb(175,175,176);fill-rule:nonzero;"/>
            </g>
            <g transform="matrix(4.45386,0,0,4.45386,-933.046,-447.438)">
                <path d="M271.467,179.153C270.979,179.153 270.579,179.553 270.579,180.041L270.579,183.427C270.579,183.916 270.979,184.316 271.467,184.316C271.957,184.316 272.356,183.916 272.356,183.427L272.356,180.041C272.356,179.553 271.957,179.153 271.467,179.153Z" style="fill:rgb(61,68,146);fill-rule:nonzero;"/>
            </g>
            <g id="Слой-11" serif:id="Слой 1" transform="matrix(0.163571,0,0,0.163571,72,300)">
                <g transform="matrix(1,0,0,1,39.6506,-89.9347)">
                    <g transform="matrix(0,1,1,0,160.865,236.66)">
                        <path d="M147.957,-147.957C66.243,-147.957 -0,-81.714 -0,0C-0,81.714 66.243,147.957 147.957,147.957C229.672,147.957 295.914,81.714 295.914,0C295.914,-81.714 229.672,-147.957 147.957,-147.957" style="fill:rgb(226,129,14);fill-rule:nonzero;"/>
                    </g>
                    <g transform="matrix(0,1,1,0,147.957,236.66)">
                        <path d="M147.957,-147.957C66.243,-147.957 -0,-81.714 -0,0C-0,81.714 66.243,147.957 147.957,147.957C229.672,147.957 295.914,81.714 295.914,0C295.914,-81.714 229.672,-147.957 147.957,-147.957" style="fill:rgb(255,185,62);fill-rule:nonzero;"/>
                    </g>
                    <g transform="matrix(1,0,0,1,147.957,513.128)">
                        <path d="M0,-253.526C-69.897,-253.526 -126.763,-196.66 -126.763,-126.763C-126.763,-56.866 -69.897,0 0,0C69.897,0 126.763,-56.866 126.763,-126.763C126.763,-196.66 69.897,-253.526 0,-253.526M0,8.041C-36.007,8.041 -69.86,-5.98 -95.321,-31.442C-120.783,-56.903 -134.805,-90.755 -134.805,-126.763C-134.805,-162.77 -120.783,-196.623 -95.321,-222.084C-69.86,-247.546 -36.007,-261.567 0,-261.567C36.008,-261.567 69.86,-247.546 95.321,-222.084C120.782,-196.623 134.804,-162.77 134.804,-126.763C134.804,-90.755 120.782,-56.903 95.321,-31.442C69.86,-5.98 36.008,8.041 0,8.041" style="fill:rgb(255,164,18);fill-rule:nonzero;"/>
                    </g>
                    <g transform="matrix(8.91507,0,0,10.254,-752.091,-19719.1)">
                        <text x="91.998px" y="1964.79px" style="font-family:'LucidaGrande-Bold', 'Lucida Grande', sans-serif;font-weight:600;font-size:14.151px;fill:white;">Rp</text>
                    </g>
                </g>
                <g transform="matrix(0.643665,0,0,0.643665,21.3099,-526.206)">
                    <g transform="matrix(0,1,1,0,160.865,236.66)">
                        <path d="M147.957,-147.957C66.243,-147.957 -0,-81.714 -0,0C-0,81.714 66.243,147.957 147.957,147.957C229.672,147.957 295.914,81.714 295.914,0C295.914,-81.714 229.672,-147.957 147.957,-147.957" style="fill:rgb(226,129,14);fill-rule:nonzero;"/>
                    </g>
                    <g transform="matrix(0,1,1,0,147.957,236.66)">
                        <path d="M147.957,-147.957C66.243,-147.957 -0,-81.714 -0,0C-0,81.714 66.243,147.957 147.957,147.957C229.672,147.957 295.914,81.714 295.914,0C295.914,-81.714 229.672,-147.957 147.957,-147.957" style="fill:rgb(255,185,62);fill-rule:nonzero;"/>
                    </g>
                    <g transform="matrix(1,0,0,1,147.957,513.128)">
                        <path d="M0,-253.526C-69.897,-253.526 -126.763,-196.66 -126.763,-126.763C-126.763,-56.866 -69.897,0 0,0C69.897,0 126.763,-56.866 126.763,-126.763C126.763,-196.66 69.897,-253.526 0,-253.526M0,8.041C-36.007,8.041 -69.86,-5.98 -95.321,-31.442C-120.783,-56.903 -134.805,-90.755 -134.805,-126.763C-134.805,-162.77 -120.783,-196.623 -95.321,-222.084C-69.86,-247.546 -36.007,-261.567 0,-261.567C36.008,-261.567 69.86,-247.546 95.321,-222.084C120.782,-196.623 134.804,-162.77 134.804,-126.763C134.804,-90.755 120.782,-56.903 95.321,-31.442C69.86,-5.98 36.008,8.041 0,8.041" style="fill:rgb(255,164,18);fill-rule:nonzero;"/>
                    </g>
                    <g transform="matrix(8.91507,0,0,10.254,-752.091,-19719.1)">
                        <text x="91.998px" y="1964.79px" style="font-family:'LucidaGrande-Bold', 'Lucida Grande', sans-serif;font-weight:600;font-size:14.151px;fill:white;">Rp</text>
                    </g>
                </g>
                <g transform="matrix(0.643665,0,0,0.643665,1551.27,67.7581)">
                    <g transform="matrix(0,1,1,0,160.865,236.66)">
                        <path d="M147.957,-147.957C66.243,-147.957 -0,-81.714 -0,0C-0,81.714 66.243,147.957 147.957,147.957C229.672,147.957 295.914,81.714 295.914,0C295.914,-81.714 229.672,-147.957 147.957,-147.957" style="fill:rgb(226,129,14);fill-rule:nonzero;"/>
                    </g>
                    <g transform="matrix(0,1,1,0,147.957,236.66)">
                        <path d="M147.957,-147.957C66.243,-147.957 -0,-81.714 -0,0C-0,81.714 66.243,147.957 147.957,147.957C229.672,147.957 295.914,81.714 295.914,0C295.914,-81.714 229.672,-147.957 147.957,-147.957" style="fill:rgb(255,185,62);fill-rule:nonzero;"/>
                    </g>
                    <g transform="matrix(1,0,0,1,147.957,513.128)">
                        <path d="M0,-253.526C-69.897,-253.526 -126.763,-196.66 -126.763,-126.763C-126.763,-56.866 -69.897,0 0,0C69.897,0 126.763,-56.866 126.763,-126.763C126.763,-196.66 69.897,-253.526 0,-253.526M0,8.041C-36.007,8.041 -69.86,-5.98 -95.321,-31.442C-120.783,-56.903 -134.805,-90.755 -134.805,-126.763C-134.805,-162.77 -120.783,-196.623 -95.321,-222.084C-69.86,-247.546 -36.007,-261.567 0,-261.567C36.008,-261.567 69.86,-247.546 95.321,-222.084C120.782,-196.623 134.804,-162.77 134.804,-126.763C134.804,-90.755 120.782,-56.903 95.321,-31.442C69.86,-5.98 36.008,8.041 0,8.041" style="fill:rgb(255,164,18);fill-rule:nonzero;"/>
                    </g>
                    <g transform="matrix(8.91507,0,0,10.254,-752.091,-19719.1)">
                        <text x="91.998px" y="1964.79px" style="font-family:'LucidaGrande-Bold', 'Lucida Grande', sans-serif;font-weight:600;font-size:14.151px;fill:white;">Rp</text>
                    </g>
                </g>
                <g transform="matrix(0.643665,0,0,0.643665,1716.34,-837.997)">
                    <g transform="matrix(0,1,1,0,160.865,236.66)">
                        <path d="M147.957,-147.957C66.243,-147.957 -0,-81.714 -0,0C-0,81.714 66.243,147.957 147.957,147.957C229.672,147.957 295.914,81.714 295.914,0C295.914,-81.714 229.672,-147.957 147.957,-147.957" style="fill:rgb(226,129,14);fill-rule:nonzero;"/>
                    </g>
                    <g transform="matrix(0,1,1,0,147.957,236.66)">
                        <path d="M147.957,-147.957C66.243,-147.957 -0,-81.714 -0,0C-0,81.714 66.243,147.957 147.957,147.957C229.672,147.957 295.914,81.714 295.914,0C295.914,-81.714 229.672,-147.957 147.957,-147.957" style="fill:rgb(255,185,62);fill-rule:nonzero;"/>
                    </g>
                    <g transform="matrix(1,0,0,1,147.957,513.128)">
                        <path d="M0,-253.526C-69.897,-253.526 -126.763,-196.66 -126.763,-126.763C-126.763,-56.866 -69.897,0 0,0C69.897,0 126.763,-56.866 126.763,-126.763C126.763,-196.66 69.897,-253.526 0,-253.526M0,8.041C-36.007,8.041 -69.86,-5.98 -95.321,-31.442C-120.783,-56.903 -134.805,-90.755 -134.805,-126.763C-134.805,-162.77 -120.783,-196.623 -95.321,-222.084C-69.86,-247.546 -36.007,-261.567 0,-261.567C36.008,-261.567 69.86,-247.546 95.321,-222.084C120.782,-196.623 134.804,-162.77 134.804,-126.763C134.804,-90.755 120.782,-56.903 95.321,-31.442C69.86,-5.98 36.008,8.041 0,8.041" style="fill:rgb(255,164,18);fill-rule:nonzero;"/>
                    </g>
                    <g transform="matrix(8.91507,0,0,10.254,-752.091,-19719.1)">
                        <text x="91.998px" y="1964.79px" style="font-family:'LucidaGrande-Bold', 'Lucida Grande', sans-serif;font-weight:600;font-size:14.151px;fill:white;">Rp</text>
                    </g>
                </g>
                <g transform="matrix(0.356335,0,0,0.356335,1925.77,226.229)">
                    <g transform="matrix(0,1,1,0,160.865,236.66)">
                        <path d="M147.957,-147.957C66.243,-147.957 -0,-81.714 -0,0C-0,81.714 66.243,147.957 147.957,147.957C229.672,147.957 295.914,81.714 295.914,0C295.914,-81.714 229.672,-147.957 147.957,-147.957" style="fill:rgb(226,129,14);fill-rule:nonzero;"/>
                    </g>
                    <g transform="matrix(0,1,1,0,147.957,236.66)">
                        <path d="M147.957,-147.957C66.243,-147.957 -0,-81.714 -0,0C-0,81.714 66.243,147.957 147.957,147.957C229.672,147.957 295.914,81.714 295.914,0C295.914,-81.714 229.672,-147.957 147.957,-147.957" style="fill:rgb(255,185,62);fill-rule:nonzero;"/>
                    </g>
                    <g transform="matrix(1,0,0,1,147.957,513.128)">
                        <path d="M0,-253.526C-69.897,-253.526 -126.763,-196.66 -126.763,-126.763C-126.763,-56.866 -69.897,0 0,0C69.897,0 126.763,-56.866 126.763,-126.763C126.763,-196.66 69.897,-253.526 0,-253.526M0,8.041C-36.007,8.041 -69.86,-5.98 -95.321,-31.442C-120.783,-56.903 -134.805,-90.755 -134.805,-126.763C-134.805,-162.77 -120.783,-196.623 -95.321,-222.084C-69.86,-247.546 -36.007,-261.567 0,-261.567C36.008,-261.567 69.86,-247.546 95.321,-222.084C120.782,-196.623 134.804,-162.77 134.804,-126.763C134.804,-90.755 120.782,-56.903 95.321,-31.442C69.86,-5.98 36.008,8.041 0,8.041" style="fill:rgb(255,164,18);fill-rule:nonzero;"/>
                    </g>
                    <g transform="matrix(8.91507,0,0,10.254,-752.091,-19719.1)">
                        <text x="91.998px" y="1964.79px" style="font-family:'LucidaGrande-Bold', 'Lucida Grande', sans-serif;font-weight:600;font-size:14.151px;fill:white;">Rp</text>
                    </g>
                </g>
            </g>
        </g>
        <g id="Layer-1" serif:id="Layer 1">
        </g>
        <g id="Слой-12" serif:id="Слой 1">
        </g>
        <g id="Padlock">
        </g>
        <g id="Speech-Bubble" serif:id="Speech Bubble">
        </g>
    </g>
</svg>
